<?xml version="1.0" encoding="UTF-8" standalone="no"?><svg xmlns="http://www.w3.org/2000/svg" xmlns:xlink="http://www.w3.org/1999/xlink" clip-rule="evenodd" stroke-miterlimit="10" viewBox="0 0 720 540"><desc>SVG generated by Keynote</desc><defs></defs><g transform="matrix(1.00, 0.00, -0.00, -1.00, 0.0, 540.0)"><g><clipPath id="clip0x7fda5928a040"><path d="M 0.0 540.0 L 720.0 540.0 L 720.0 0.0 L 0.0 0.0 Z M 0.0 540.0 "></path></clipPath><g clip-path="url(#clip0x7fda5928a040)"><image xlink:href="../../A8130665-9052-4470-BAE6-AA5FC7750E31/assets/CF91160C7D345B5E9725DD58C6CE8E0B.jpeg" width="1280.00" height="960.00" transform="matrix(0.56, 0.00, -0.00, -0.56, 0.0, 540.0)"></image></g></g><text xml:space="preserve" font-family="HelveticaNeue-Bold,Helvetica Neue" font-weight="bold" font-size="36.0" fill="#000000" transform="matrix(1.00, 0.00, -0.00, -1.00, 38.5, 479.3)">T</text><text xml:space="preserve" font-family="HelveticaNeue-Bold,Helvetica Neue" font-weight="bold" font-size="36.0" fill="#000000" transform="matrix(1.00, 0.00, -0.00, -1.00, 56.5, 479.3)">e</text><text xml:space="preserve" font-family="HelveticaNeue-Bold,Helvetica Neue" font-weight="bold" font-size="36.0" fill="#000000" transform="matrix(1.00, 0.00, -0.00, -1.00, 77.2, 479.3)">s</text><text xml:space="preserve" font-family="HelveticaNeue-Bold,Helvetica Neue" font-weight="bold" font-size="36.0" fill="#000000" transform="matrix(1.00, 0.00, -0.00, -1.00, 96.5, 479.3)">t</text><text xml:space="preserve" font-family="HelveticaNeue-Bold,Helvetica Neue" font-weight="bold" font-size="36.0" fill="#000000" transform="matrix(1.00, 0.00, -0.00, -1.00, 109.2, 479.3)">a</text><text xml:space="preserve" font-family="HelveticaNeue-Bold,Helvetica Neue" font-weight="bold" font-size="36.0" fill="#000000" transform="matrix(1.00, 0.00, -0.00, -1.00, 129.8, 479.3)">b</text><text xml:space="preserve" font-family="HelveticaNeue-Bold,Helvetica Neue" font-weight="bold" font-size="36.0" fill="#000000" transform="matrix(1.00, 0.00, -0.00, -1.00, 151.8, 479.3)">l</text><text xml:space="preserve" font-family="HelveticaNeue-Bold,Helvetica Neue" font-weight="bold" font-size="36.0" fill="#000000" transform="matrix(1.00, 0.00, -0.00, -1.00, 161.1, 479.3)">a</text><text xml:space="preserve" font-family="HelveticaNeue-Bold,Helvetica Neue" font-weight="bold" font-size="36.0" fill="#000000" transform="matrix(1.00, 0.00, -0.00, -1.00, 181.8, 479.3)">u</text><text xml:space="preserve" font-family="HelveticaNeue-Bold,Helvetica Neue" font-weight="bold" font-size="36.0" fill="#000000" transform="matrix(1.00, 0.00, -0.00, -1.00, 203.1, 479.3)">f</text><image xlink:href="D83357D07C006DD1EF2832E456899E09.png" width="1656.00" height="225.00" transform="matrix(0.44, 0.00, -0.00, -0.44, -5.0, 409.0)"></image><text xml:space="preserve" font-family="HelveticaNeue-Bold,Helvetica Neue" font-weight="bold" font-size="32.0" fill="#000000" transform="matrix(1.00, 0.00, -0.00, -1.00, 36.6, 263.9)">V</text><text xml:space="preserve" font-family="HelveticaNeue-Bold,Helvetica Neue" font-weight="bold" font-size="32.0" fill="#000000" transform="matrix(1.00, 0.00, -0.00, -1.00, 56.8, 263.9)">M</text><text xml:space="preserve" font-family="HelveticaNeue-Bold,Helvetica Neue" font-weight="bold" font-size="32.0" fill="#000000" transform="matrix(1.00, 0.00, -0.00, -1.00, 85.8, 263.9)"> </text><text xml:space="preserve" font-family="HelveticaNeue-Bold,Helvetica Neue" font-weight="bold" font-size="32.0" fill="#000000" transform="matrix(1.00, 0.00, -0.00, -1.00, 94.7, 263.9)">P</text><text xml:space="preserve" font-family="HelveticaNeue-Bold,Helvetica Neue" font-weight="bold" font-size="32.0" fill="#000000" transform="matrix(1.00, 0.00, -0.00, -1.00, 116.0, 263.9)">r</text><text xml:space="preserve" font-family="HelveticaNeue-Bold,Helvetica Neue" font-weight="bold" font-size="32.0" fill="#000000" transform="matrix(1.00, 0.00, -0.00, -1.00, 127.9, 263.9)">o</text><text xml:space="preserve" font-family="HelveticaNeue-Bold,Helvetica Neue" font-weight="bold" font-size="32.0" fill="#000000" transform="matrix(1.00, 0.00, -0.00, -1.00, 147.4, 263.9)">f</text><text xml:space="preserve" font-family="HelveticaNeue-Bold,Helvetica Neue" font-weight="bold" font-size="32.0" fill="#000000" transform="matrix(1.00, 0.00, -0.00, -1.00, 158.1, 263.9)">i</text><text xml:space="preserve" font-family="HelveticaNeue-Bold,Helvetica Neue" font-weight="bold" font-size="32.0" fill="#000000" transform="matrix(1.00, 0.00, -0.00, -1.00, 166.4, 263.9)">l</text><text xml:space="preserve" font-family="HelveticaNeue-Bold,Helvetica Neue" font-weight="bold" font-size="32.0" fill="#000000" transform="matrix(1.00, 0.00, -0.00, -1.00, 174.6, 263.9)">e</text><text xml:space="preserve" font-family="HelveticaNeue-Bold,Helvetica Neue" font-weight="bold" font-size="32.0" fill="#000000" transform="matrix(1.00, 0.00, -0.00, -1.00, 193.0, 263.9)"> </text><text xml:space="preserve" font-family="HelveticaNeue,Helvetica Neue" font-size="32.0" fill="#000000" transform="matrix(1.00, 0.00, -0.00, -1.00, 72.6, 210.5)">•</text><text xml:space="preserve" font-family="HelveticaNeue,Helvetica Neue" font-size="32.0" fill="#000000" transform="matrix(1.00, 0.00, -0.00, -1.00, 99.6, 210.5)">m</text><text xml:space="preserve" font-family="HelveticaNeue,Helvetica Neue" font-size="32.0" fill="#000000" transform="matrix(1.00, 0.00, -0.00, -1.00, 126.9, 210.5)">1</text><text xml:space="preserve" font-family="HelveticaNeue,Helvetica Neue" font-size="32.0" fill="#000000" transform="matrix(1.00, 0.00, -0.00, -1.00, 144.7, 210.5)">.</text><text xml:space="preserve" font-family="HelveticaNeue,Helvetica Neue" font-size="32.0" fill="#000000" transform="matrix(1.00, 0.00, -0.00, -1.00, 153.6, 210.5)">x</text><text xml:space="preserve" font-family="HelveticaNeue,Helvetica Neue" font-size="32.0" fill="#000000" transform="matrix(1.00, 0.00, -0.00, -1.00, 170.2, 210.5)">s</text><text xml:space="preserve" font-family="HelveticaNeue,Helvetica Neue" font-size="32.0" fill="#000000" transform="matrix(1.00, 0.00, -0.00, -1.00, 186.2, 210.5)">m</text><text xml:space="preserve" font-family="HelveticaNeue,Helvetica Neue" font-size="32.0" fill="#000000" transform="matrix(1.00, 0.00, -0.00, -1.00, 213.5, 210.5)">a</text><text xml:space="preserve" font-family="HelveticaNeue,Helvetica Neue" font-size="32.0" fill="#000000" transform="matrix(1.00, 0.00, -0.00, -1.00, 230.6, 210.5)">l</text><text xml:space="preserve" font-family="HelveticaNeue,Helvetica Neue" font-size="32.0" fill="#000000" transform="matrix(1.00, 0.00, -0.00, -1.00, 237.7, 210.5)">l</text><text xml:space="preserve" font-family="HelveticaNeue,Helvetica Neue" font-size="32.0" fill="#000000" transform="matrix(1.00, 0.00, -0.00, -1.00, 244.8, 210.5)">
</text><text xml:space="preserve" font-family="HelveticaNeue,Helvetica Neue" font-size="32.0" fill="#000000" transform="matrix(1.00, 0.00, -0.00, -1.00, 72.6, 157.4)">•</text><text xml:space="preserve" font-family="HelveticaNeue,Helvetica Neue" font-size="32.0" fill="#000000" transform="matrix(1.00, 0.00, -0.00, -1.00, 99.6, 157.4)">1</text><text xml:space="preserve" font-family="HelveticaNeue,Helvetica Neue" font-size="32.0" fill="#000000" transform="matrix(1.00, 0.00, -0.00, -1.00, 117.4, 157.4)">G</text><text xml:space="preserve" font-family="HelveticaNeue,Helvetica Neue" font-size="32.0" fill="#000000" transform="matrix(1.00, 0.00, -0.00, -1.00, 141.7, 157.4)">B</text><text xml:space="preserve" font-family="HelveticaNeue,Helvetica Neue" font-size="32.0" fill="#000000" transform="matrix(1.00, 0.00, -0.00, -1.00, 163.6, 157.4)"> </text><text xml:space="preserve" font-family="HelveticaNeue,Helvetica Neue" font-size="32.0" fill="#000000" transform="matrix(1.00, 0.00, -0.00, -1.00, 172.5, 157.4)">R</text><text xml:space="preserve" font-family="HelveticaNeue,Helvetica Neue" font-size="32.0" fill="#000000" transform="matrix(1.00, 0.00, -0.00, -1.00, 194.4, 157.4)">A</text><text xml:space="preserve" font-family="HelveticaNeue,Helvetica Neue" font-size="32.0" fill="#000000" transform="matrix(1.00, 0.00, -0.00, -1.00, 215.2, 157.4)">M</text><text xml:space="preserve" font-family="HelveticaNeue,Helvetica Neue" font-size="32.0" fill="#000000" transform="matrix(1.00, 0.00, -0.00, -1.00, 243.0, 157.4)">
</text><text xml:space="preserve" font-family="HelveticaNeue,Helvetica Neue" font-size="32.0" fill="#000000" transform="matrix(1.00, 0.00, -0.00, -1.00, 72.6, 104.3)">•</text><text xml:space="preserve" font-family="HelveticaNeue,Helvetica Neue" font-size="32.0" fill="#000000" transform="matrix(1.00, 0.00, -0.00, -1.00, 99.6, 104.3)">1</text><text xml:space="preserve" font-family="HelveticaNeue,Helvetica Neue" font-size="32.0" fill="#000000" transform="matrix(1.00, 0.00, -0.00, -1.00, 117.4, 104.3)"> </text><text xml:space="preserve" font-family="HelveticaNeue,Helvetica Neue" font-size="32.0" fill="#000000" transform="matrix(1.00, 0.00, -0.00, -1.00, 126.3, 104.3)">V</text><text xml:space="preserve" font-family="HelveticaNeue,Helvetica Neue" font-size="32.0" fill="#000000" transform="matrix(1.00, 0.00, -0.00, -1.00, 145.8, 104.3)">C</text><text xml:space="preserve" font-family="HelveticaNeue,Helvetica Neue" font-size="32.0" fill="#000000" transform="matrix(1.00, 0.00, -0.00, -1.00, 168.9, 104.3)">P</text><text xml:space="preserve" font-family="HelveticaNeue,Helvetica Neue" font-size="32.0" fill="#000000" transform="matrix(1.00, 0.00, -0.00, -1.00, 189.7, 104.3)">U</text><text xml:space="preserve" font-family="HelveticaNeue,Helvetica Neue" font-size="32.0" fill="#000000" transform="matrix(1.00, 0.00, -0.00, -1.00, 212.8, 104.3)">
</text><text xml:space="preserve" font-family="HelveticaNeue,Helvetica Neue" font-size="32.0" fill="#000000" transform="matrix(1.00, 0.00, -0.00, -1.00, 72.6, 51.2)">•</text><text xml:space="preserve" font-family="HelveticaNeue,Helvetica Neue" font-size="32.0" fill="#000000" transform="matrix(1.00, 0.00, -0.00, -1.00, 99.6, 51.2)">1</text><text xml:space="preserve" font-family="HelveticaNeue,Helvetica Neue" font-size="32.0" fill="#000000" transform="matrix(1.00, 0.00, -0.00, -1.00, 117.4, 51.2)">0</text><text xml:space="preserve" font-family="HelveticaNeue,Helvetica Neue" font-size="32.0" fill="#000000" transform="matrix(1.00, 0.00, -0.00, -1.00, 135.2, 51.2)">.</text><text xml:space="preserve" font-family="HelveticaNeue,Helvetica Neue" font-size="32.0" fill="#000000" transform="matrix(1.00, 0.00, -0.00, -1.00, 144.1, 51.2)">0</text><text xml:space="preserve" font-family="HelveticaNeue,Helvetica Neue" font-size="32.0" fill="#000000" transform="matrix(1.00, 0.00, -0.00, -1.00, 161.9, 51.2)">G</text><text xml:space="preserve" font-family="HelveticaNeue,Helvetica Neue" font-size="32.0" fill="#000000" transform="matrix(1.00, 0.00, -0.00, -1.00, 186.2, 51.2)">B</text><text xml:space="preserve" font-family="HelveticaNeue,Helvetica Neue" font-size="32.0" fill="#000000" transform="matrix(1.00, 0.00, -0.00, -1.00, 208.1, 51.2)"> </text><text xml:space="preserve" font-family="HelveticaNeue,Helvetica Neue" font-size="32.0" fill="#000000" transform="matrix(1.00, 0.00, -0.00, -1.00, 217.0, 51.2)">D</text><text xml:space="preserve" font-family="HelveticaNeue,Helvetica Neue" font-size="32.0" fill="#000000" transform="matrix(1.00, 0.00, -0.00, -1.00, 239.5, 51.2)">i</text><text xml:space="preserve" font-family="HelveticaNeue,Helvetica Neue" font-size="32.0" fill="#000000" transform="matrix(1.00, 0.00, -0.00, -1.00, 246.6, 51.2)">s</text><text xml:space="preserve" font-family="HelveticaNeue,Helvetica Neue" font-size="32.0" fill="#000000" transform="matrix(1.00, 0.00, -0.00, -1.00, 262.6, 51.2)">k</text><text xml:space="preserve" font-family="HelveticaNeue,Helvetica Neue" font-size="32.0" fill="#000000" transform="matrix(1.00, 0.00, -0.00, -1.00, 373.6, 264.8)">•</text><text xml:space="preserve" font-family="HelveticaNeue,Helvetica Neue" font-size="32.0" fill="#000000" transform="matrix(1.00, 0.00, -0.00, -1.00, 400.6, 264.8)">L</text><text xml:space="preserve" font-family="HelveticaNeue,Helvetica Neue" font-size="32.0" fill="#000000" transform="matrix(1.00, 0.00, -0.00, -1.00, 418.4, 264.8)">a</text><text xml:space="preserve" font-family="HelveticaNeue,Helvetica Neue" font-size="32.0" fill="#000000" transform="matrix(1.00, 0.00, -0.00, -1.00, 435.6, 264.8)">s</text><text xml:space="preserve" font-family="HelveticaNeue,Helvetica Neue" font-size="32.0" fill="#000000" transform="matrix(1.00, 0.00, -0.00, -1.00, 451.6, 264.8)">t</text><text xml:space="preserve" font-family="HelveticaNeue,Helvetica Neue" font-size="32.0" fill="#000000" transform="matrix(1.00, 0.00, -0.00, -1.00, 461.7, 264.8)"> </text><text xml:space="preserve" font-family="HelveticaNeue,Helvetica Neue" font-size="32.0" fill="#000000" transform="matrix(1.00, 0.00, -0.00, -1.00, 470.6, 264.8)">S</text><text xml:space="preserve" font-family="HelveticaNeue,Helvetica Neue" font-size="32.0" fill="#000000" transform="matrix(1.00, 0.00, -0.00, -1.00, 491.3, 264.8)">i</text><text xml:space="preserve" font-family="HelveticaNeue,Helvetica Neue" font-size="32.0" fill="#000000" transform="matrix(1.00, 0.00, -0.00, -1.00, 498.4, 264.8)">m</text><text xml:space="preserve" font-family="HelveticaNeue,Helvetica Neue" font-size="32.0" fill="#000000" transform="matrix(1.00, 0.00, -0.00, -1.00, 525.7, 264.8)">u</text><text xml:space="preserve" font-family="HelveticaNeue,Helvetica Neue" font-size="32.0" fill="#000000" transform="matrix(1.00, 0.00, -0.00, -1.00, 543.5, 264.8)">l</text><text xml:space="preserve" font-family="HelveticaNeue,Helvetica Neue" font-size="32.0" fill="#000000" transform="matrix(1.00, 0.00, -0.00, -1.00, 550.6, 264.8)">a</text><text xml:space="preserve" font-family="HelveticaNeue,Helvetica Neue" font-size="32.0" fill="#000000" transform="matrix(1.00, 0.00, -0.00, -1.00, 567.8, 264.8)">t</text><text xml:space="preserve" font-family="HelveticaNeue,Helvetica Neue" font-size="32.0" fill="#000000" transform="matrix(1.00, 0.00, -0.00, -1.00, 577.8, 264.8)">i</text><text xml:space="preserve" font-family="HelveticaNeue,Helvetica Neue" font-size="32.0" fill="#000000" transform="matrix(1.00, 0.00, -0.00, -1.00, 585.0, 264.8)">o</text><text xml:space="preserve" font-family="HelveticaNeue,Helvetica Neue" font-size="32.0" fill="#000000" transform="matrix(1.00, 0.00, -0.00, -1.00, 603.3, 264.8)">n</text><text xml:space="preserve" font-family="HelveticaNeue,Helvetica Neue" font-size="32.0" fill="#000000" transform="matrix(1.00, 0.00, -0.00, -1.00, 621.1, 264.8)">
</text><text xml:space="preserve" font-family="HelveticaNeue,Helvetica Neue" font-size="32.0" fill="#000000" transform="matrix(1.00, 0.00, -0.00, -1.00, 373.6, 211.2)">•</text><text xml:space="preserve" font-family="Courier,Courier" font-size="32.0" fill="#000000" transform="matrix(1.00, 0.00, -0.00, -1.00, 400.6, 211.7)">s</text><text xml:space="preserve" font-family="Courier,Courier" font-size="32.0" fill="#000000" transform="matrix(1.00, 0.00, -0.00, -1.00, 419.8, 211.7)">t</text><text xml:space="preserve" font-family="Courier,Courier" font-size="32.0" fill="#000000" transform="matrix(1.00, 0.00, -0.00, -1.00, 439.0, 211.7)">r</text><text xml:space="preserve" font-family="Courier,Courier" font-size="32.0" fill="#000000" transform="matrix(1.00, 0.00, -0.00, -1.00, 458.2, 211.7)">e</text><text xml:space="preserve" font-family="Courier,Courier" font-size="32.0" fill="#000000" transform="matrix(1.00, 0.00, -0.00, -1.00, 477.4, 211.7)">s</text><text xml:space="preserve" font-family="Courier,Courier" font-size="32.0" fill="#000000" transform="matrix(1.00, 0.00, -0.00, -1.00, 496.6, 211.7)">s</text><text xml:space="preserve" font-family="HelveticaNeue,Helvetica Neue" font-size="32.0" fill="#000000" transform="matrix(1.00, 0.00, -0.00, -1.00, 515.8, 211.7)"> </text><text xml:space="preserve" font-family="HelveticaNeue,Helvetica Neue" font-size="32.0" fill="#000000" transform="matrix(1.00, 0.00, -0.00, -1.00, 400.6, 165.0)">I</text><text xml:space="preserve" font-family="HelveticaNeue,Helvetica Neue" font-size="32.0" fill="#000000" transform="matrix(1.00, 0.00, -0.00, -1.00, 408.9, 165.0)">/</text><text xml:space="preserve" font-family="HelveticaNeue,Helvetica Neue" font-size="32.0" fill="#000000" transform="matrix(1.00, 0.00, -0.00, -1.00, 419.5, 165.0)">O</text><text xml:space="preserve" font-family="HelveticaNeue,Helvetica Neue" font-size="32.0" fill="#000000" transform="matrix(1.00, 0.00, -0.00, -1.00, 443.9, 165.0)">,</text><text xml:space="preserve" font-family="HelveticaNeue,Helvetica Neue" font-size="32.0" fill="#000000" transform="matrix(1.00, 0.00, -0.00, -1.00, 452.8, 165.0)"> </text><text xml:space="preserve" font-family="HelveticaNeue,Helvetica Neue" font-size="32.0" fill="#000000" transform="matrix(1.00, 0.00, -0.00, -1.00, 461.7, 165.0)">M</text><text xml:space="preserve" font-family="HelveticaNeue,Helvetica Neue" font-size="32.0" fill="#000000" transform="matrix(1.00, 0.00, -0.00, -1.00, 489.5, 165.0)">e</text><text xml:space="preserve" font-family="HelveticaNeue,Helvetica Neue" font-size="32.0" fill="#000000" transform="matrix(1.00, 0.00, -0.00, -1.00, 506.7, 165.0)">m</text><text xml:space="preserve" font-family="HelveticaNeue,Helvetica Neue" font-size="32.0" fill="#000000" transform="matrix(1.00, 0.00, -0.00, -1.00, 534.0, 165.0)">,</text><text xml:space="preserve" font-family="HelveticaNeue,Helvetica Neue" font-size="32.0" fill="#000000" transform="matrix(1.00, 0.00, -0.00, -1.00, 542.9, 165.0)"> </text><text xml:space="preserve" font-family="HelveticaNeue,Helvetica Neue" font-size="32.0" fill="#000000" transform="matrix(1.00, 0.00, -0.00, -1.00, 551.8, 165.0)">C</text><text xml:space="preserve" font-family="HelveticaNeue,Helvetica Neue" font-size="32.0" fill="#000000" transform="matrix(1.00, 0.00, -0.00, -1.00, 574.9, 165.0)">P</text><text xml:space="preserve" font-family="HelveticaNeue,Helvetica Neue" font-size="32.0" fill="#000000" transform="matrix(1.00, 0.00, -0.00, -1.00, 595.6, 165.0)">U</text><text xml:space="preserve" font-family="HelveticaNeue,Helvetica Neue" font-size="32.0" fill="#000000" transform="matrix(1.00, 0.00, -0.00, -1.00, 618.7, 165.0)">
</text><text xml:space="preserve" font-family="HelveticaNeue,Helvetica Neue" font-size="32.0" fill="#000000" transform="matrix(1.00, 0.00, -0.00, -1.00, 373.6, 111.9)">•</text><text xml:space="preserve" font-family="HelveticaNeue,Helvetica Neue" font-size="32.0" fill="#000000" transform="matrix(1.00, 0.00, -0.00, -1.00, 400.6, 111.9)">Z</text><text xml:space="preserve" font-family="HelveticaNeue,Helvetica Neue" font-size="32.0" fill="#000000" transform="matrix(1.00, 0.00, -0.00, -1.00, 420.2, 111.9)">i</text><text xml:space="preserve" font-family="HelveticaNeue,Helvetica Neue" font-size="32.0" fill="#000000" transform="matrix(1.00, 0.00, -0.00, -1.00, 427.3, 111.9)">e</text><text xml:space="preserve" font-family="HelveticaNeue,Helvetica Neue" font-size="32.0" fill="#000000" transform="matrix(1.00, 0.00, -0.00, -1.00, 444.4, 111.9)">l</text><text xml:space="preserve" font-family="HelveticaNeue,Helvetica Neue" font-size="32.0" fill="#000000" transform="matrix(1.00, 0.00, -0.00, -1.00, 451.5, 111.9)">l</text><text xml:space="preserve" font-family="HelveticaNeue,Helvetica Neue" font-size="32.0" fill="#000000" transform="matrix(1.00, 0.00, -0.00, -1.00, 458.6, 111.9)">a</text><text xml:space="preserve" font-family="HelveticaNeue,Helvetica Neue" font-size="32.0" fill="#000000" transform="matrix(1.00, 0.00, -0.00, -1.00, 475.8, 111.9)">s</text><text xml:space="preserve" font-family="HelveticaNeue,Helvetica Neue" font-size="32.0" fill="#000000" transform="matrix(1.00, 0.00, -0.00, -1.00, 491.8, 111.9)">t</text><text xml:space="preserve" font-family="HelveticaNeue,Helvetica Neue" font-size="32.0" fill="#000000" transform="matrix(1.00, 0.00, -0.00, -1.00, 501.9, 111.9)"> </text><text xml:space="preserve" font-family="HelveticaNeue,Helvetica Neue" font-size="32.0" fill="#000000" transform="matrix(1.00, 0.00, -0.00, -1.00, 510.8, 111.9)">~</text><text xml:space="preserve" font-family="HelveticaNeue,Helvetica Neue" font-size="32.0" fill="#000000" transform="matrix(1.00, 0.00, -0.00, -1.00, 530.0, 111.9)">8</text><text xml:space="preserve" font-family="HelveticaNeue,Helvetica Neue" font-size="32.0" fill="#000000" transform="matrix(1.00, 0.00, -0.00, -1.00, 547.8, 111.9)">0</text><text xml:space="preserve" font-family="HelveticaNeue,Helvetica Neue" font-size="32.0" fill="#000000" transform="matrix(1.00, 0.00, -0.00, -1.00, 565.6, 111.9)">%</text><text xml:space="preserve" font-family="HelveticaNeue,Helvetica Neue" font-size="32.0" fill="#000000" transform="matrix(1.00, 0.00, -0.00, -1.00, 597.6, 111.9)"> </text><text xml:space="preserve" font-family="HelveticaNeue,Helvetica Neue" font-size="32.0" fill="#000000" transform="matrix(1.00, 0.00, -0.00, -1.00, 400.6, 66.5)">C</text><text xml:space="preserve" font-family="HelveticaNeue,Helvetica Neue" font-size="32.0" fill="#000000" transform="matrix(1.00, 0.00, -0.00, -1.00, 423.7, 66.5)">P</text><text xml:space="preserve" font-family="HelveticaNeue,Helvetica Neue" font-size="32.0" fill="#000000" transform="matrix(1.00, 0.00, -0.00, -1.00, 444.4, 66.5)">U</text><text xml:space="preserve" font-family="HelveticaNeue,Helvetica Neue" font-size="32.0" fill="#000000" transform="matrix(1.00, 0.00, -0.00, -1.00, 467.5, 66.5)"> </text><text xml:space="preserve" font-family="HelveticaNeue,Helvetica Neue" font-size="32.0" fill="#000000" transform="matrix(1.00, 0.00, -0.00, -1.00, 476.4, 66.5)">U</text><text xml:space="preserve" font-family="HelveticaNeue,Helvetica Neue" font-size="32.0" fill="#000000" transform="matrix(1.00, 0.00, -0.00, -1.00, 499.5, 66.5)">t</text><text xml:space="preserve" font-family="HelveticaNeue,Helvetica Neue" font-size="32.0" fill="#000000" transform="matrix(1.00, 0.00, -0.00, -1.00, 509.6, 66.5)">i</text><text xml:space="preserve" font-family="HelveticaNeue,Helvetica Neue" font-size="32.0" fill="#000000" transform="matrix(1.00, 0.00, -0.00, -1.00, 516.7, 66.5)">l</text><text xml:space="preserve" font-family="HelveticaNeue,Helvetica Neue" font-size="32.0" fill="#000000" transform="matrix(1.00, 0.00, -0.00, -1.00, 523.8, 66.5)">i</text><text xml:space="preserve" font-family="HelveticaNeue,Helvetica Neue" font-size="32.0" fill="#000000" transform="matrix(1.00, 0.00, -0.00, -1.00, 530.9, 66.5)">z</text><text xml:space="preserve" font-family="HelveticaNeue,Helvetica Neue" font-size="32.0" fill="#000000" transform="matrix(1.00, 0.00, -0.00, -1.00, 546.3, 66.5)">a</text><text xml:space="preserve" font-family="HelveticaNeue,Helvetica Neue" font-size="32.0" fill="#000000" transform="matrix(1.00, 0.00, -0.00, -1.00, 563.5, 66.5)">t</text><text xml:space="preserve" font-family="HelveticaNeue,Helvetica Neue" font-size="32.0" fill="#000000" transform="matrix(1.00, 0.00, -0.00, -1.00, 573.6, 66.5)">i</text><text xml:space="preserve" font-family="HelveticaNeue,Helvetica Neue" font-size="32.0" fill="#000000" transform="matrix(1.00, 0.00, -0.00, -1.00, 580.7, 66.5)">o</text><text xml:space="preserve" font-family="HelveticaNeue,Helvetica Neue" font-size="32.0" fill="#000000" transform="matrix(1.00, 0.00, -0.00, -1.00, 599.0, 66.5)">n</text></g></svg>