<?xml version="1.0" encoding="UTF-8" standalone="no"?><svg xmlns="http://www.w3.org/2000/svg" xmlns:xlink="http://www.w3.org/1999/xlink" clip-rule="evenodd" stroke-miterlimit="10" viewBox="0 0 720 540"><desc>SVG generated by Keynote</desc><defs></defs><g transform="matrix(1.00, 0.00, -0.00, -1.00, 0.0, 540.0)"><g><clipPath id="clip0x7fda596018a0"><path d="M 0.0 540.0 L 720.0 540.0 L 720.0 0.0 L 0.0 0.0 Z M 0.0 540.0 "></path></clipPath><g clip-path="url(#clip0x7fda596018a0)"><image xlink:href="../../A8130665-9052-4470-BAE6-AA5FC7750E31/assets/CF91160C7D345B5E9725DD58C6CE8E0B.jpeg" width="1280.00" height="960.00" transform="matrix(0.56, 0.00, -0.00, -0.56, 0.0, 540.0)"></image></g></g><text xml:space="preserve" font-family="HelveticaNeue-Bold,Helvetica Neue" font-weight="bold" font-size="36.0" fill="#000000" transform="matrix(1.00, 0.00, -0.00, -1.00, 38.5, 479.3)">T</text><text xml:space="preserve" font-family="HelveticaNeue-Bold,Helvetica Neue" font-weight="bold" font-size="36.0" fill="#000000" transform="matrix(1.00, 0.00, -0.00, -1.00, 56.5, 479.3)">e</text><text xml:space="preserve" font-family="HelveticaNeue-Bold,Helvetica Neue" font-weight="bold" font-size="36.0" fill="#000000" transform="matrix(1.00, 0.00, -0.00, -1.00, 77.2, 479.3)">s</text><text xml:space="preserve" font-family="HelveticaNeue-Bold,Helvetica Neue" font-weight="bold" font-size="36.0" fill="#000000" transform="matrix(1.00, 0.00, -0.00, -1.00, 96.5, 479.3)">t</text><text xml:space="preserve" font-family="HelveticaNeue-Bold,Helvetica Neue" font-weight="bold" font-size="36.0" fill="#000000" transform="matrix(1.00, 0.00, -0.00, -1.00, 109.2, 479.3)">a</text><text xml:space="preserve" font-family="HelveticaNeue-Bold,Helvetica Neue" font-weight="bold" font-size="36.0" fill="#000000" transform="matrix(1.00, 0.00, -0.00, -1.00, 129.8, 479.3)">b</text><text xml:space="preserve" font-family="HelveticaNeue-Bold,Helvetica Neue" font-weight="bold" font-size="36.0" fill="#000000" transform="matrix(1.00, 0.00, -0.00, -1.00, 151.8, 479.3)">l</text><text xml:space="preserve" font-family="HelveticaNeue-Bold,Helvetica Neue" font-weight="bold" font-size="36.0" fill="#000000" transform="matrix(1.00, 0.00, -0.00, -1.00, 161.1, 479.3)">a</text><text xml:space="preserve" font-family="HelveticaNeue-Bold,Helvetica Neue" font-weight="bold" font-size="36.0" fill="#000000" transform="matrix(1.00, 0.00, -0.00, -1.00, 181.8, 479.3)">u</text><text xml:space="preserve" font-family="HelveticaNeue-Bold,Helvetica Neue" font-weight="bold" font-size="36.0" fill="#000000" transform="matrix(1.00, 0.00, -0.00, -1.00, 203.1, 479.3)">f</text><image xlink:href="../../85B4A56A-96A6-4F5C-BF29-AFA84BF66355/assets/C72AD1FECF7756F75C5761AD0742CB64.png" width="1658.00" height="580.00" transform="matrix(0.43, 0.00, -0.00, -0.43, 6.0, 349.0)"></image><image xlink:href="../../48C6CF7C-F110-467A-B1B5-0F8FDFE3AD47/assets/A21E15E814A9680A6537DEFE4D8F3038.png" width="832.00" height="306.00" transform="matrix(1.04, 0.00, -0.00, -1.04, -152.0, 366.0)"></image><path d="M 678.2 279.4 C 679.1 279.3 680.3 279.3 682.0 279.3 C 681.2 279.3 680.5 279.2 680.5 279.1 C 679.1 279.1 677.1 279.2 674.0 279.2 C 674.2 279.2 675.7 279.2 676.8 279.2 C 678.0 279.2 677.9 279.3 678.2 279.4 C 678.2 279.4 678.2 279.4 678.2 279.4 Z M 415.5 245.7 C 418.2 245.8 415.3 245.5 414.3 245.5 C 414.1 245.5 414.0 245.6 413.0 245.6 C 412.7 245.4 415.0 245.3 416.8 245.3 C 424.1 245.4 418.7 245.7 415.5 245.7 C 415.5 245.7 415.5 245.7 415.5 245.7 Z M 65.7 245.9 C 59.9 245.9 66.3 246.1 67.2 246.2 C 64.6 246.3 67.1 246.7 63.7 246.7 C 63.0 246.6 61.6 246.5 60.9 246.4 C 62.4 246.4 64.6 246.4 64.8 246.3 C 62.7 246.3 60.0 246.3 59.5 246.2 C 63.9 246.2 60.0 246.0 59.1 245.8 C 63.1 245.9 64.2 245.6 65.7 245.9 C 65.7 245.9 65.7 245.9 65.7 245.9 Z M 264.1 278.2 C 262.5 278.2 261.1 278.2 261.4 278.0 C 263.2 278.0 264.4 278.1 265.4 278.1 C 265.6 278.0 265.1 277.9 266.6 277.9 C 268.4 278.1 267.6 278.4 266.8 278.5 C 266.6 278.3 260.8 278.4 264.1 278.2 C 264.1 278.2 264.1 278.2 264.1 278.2 Z M 410.7 277.8 C 415.7 277.9 410.7 277.4 415.7 277.6 C 415.7 277.8 416.6 278.0 413.3 278.0 C 413.0 277.9 411.1 277.9 410.7 277.8 C 410.7 277.8 410.7 277.8 410.7 277.8 Z M 214.1 247.7 C 214.0 247.6 210.5 247.6 211.3 247.4 C 213.0 247.4 214.7 247.4 216.5 247.4 C 216.9 247.6 216.3 247.7 214.1 247.7 C 214.1 247.7 214.1 247.7 214.1 247.7 Z M 34.6 254.2 C 34.4 260.1 34.7 266.8 34.5 264.8 C 34.2 267.1 33.8 260.1 34.1 260.5 C 34.4 260.0 34.6 249.4 34.6 254.2 C 34.6 254.2 34.6 254.2 34.6 254.2 Z M 385.3 249.9 C 379.2 249.7 380.4 250.4 376.4 250.1 C 377.8 250.0 378.4 250.0 378.9 249.9 C 377.9 249.9 376.4 249.9 376.4 249.8 C 379.3 249.8 382.8 249.7 385.3 249.9 C 385.3 249.9 385.3 249.9 385.3 249.9 Z M 589.3 278.8 C 588.3 278.8 587.8 278.9 588.0 279.0 C 584.0 278.9 584.2 279.1 581.6 279.0 C 581.2 278.7 584.7 278.8 587.9 278.8 C 588.0 278.8 589.0 278.7 589.3 278.8 C 589.3 278.8 589.3 278.8 589.3 278.8 Z M 474.3 278.0 C 474.6 278.2 477.0 278.2 473.2 278.3 C 468.8 278.0 472.4 277.8 476.8 277.6 C 476.7 277.5 476.6 277.4 476.5 277.3 C 474.8 277.3 473.6 277.3 472.6 277.2 C 472.1 277.6 468.7 276.9 462.2 277.2 C 465.2 277.0 461.6 276.7 465.9 276.8 C 464.6 276.6 467.5 276.6 466.9 276.4 C 465.2 276.6 460.8 276.5 462.0 276.8 C 459.7 276.8 457.9 276.8 456.7 276.8 C 454.9 276.5 460.9 276.7 459.1 276.4 C 457.8 276.4 457.5 276.4 456.5 276.4 C 456.3 276.5 456.9 276.6 455.4 276.6 C 451.1 276.5 455.9 276.3 450.0 276.3 C 449.7 276.4 451.5 276.5 451.4 276.6 C 448.9 276.7 448.9 276.5 446.3 276.7 C 445.7 276.5 448.1 276.5 446.2 276.4 C 444.7 276.8 440.6 276.2 437.1 276.5 C 440.0 277.0 436.4 276.4 433.4 276.9 C 432.6 276.8 434.8 276.4 431.9 276.4 C 433.3 277.1 421.5 276.9 431.2 277.4 C 426.3 277.4 424.9 277.9 428.9 278.0 C 420.2 277.8 423.2 278.2 419.9 278.2 C 416.6 278.2 421.6 278.1 419.7 277.9 C 423.3 277.9 422.3 277.7 424.9 277.9 C 424.8 277.8 425.4 277.7 426.1 277.6 C 422.7 277.8 418.3 277.4 420.7 277.2 C 422.5 277.2 421.0 277.5 423.4 277.5 C 422.3 277.1 426.0 277.5 426.0 277.3 C 424.1 277.0 429.0 276.7 424.2 276.7 C 424.3 276.8 424.4 276.9 424.4 277.1 C 423.2 277.1 421.9 277.1 420.6 277.1 C 419.4 276.8 420.2 276.7 419.0 276.6 C 416.8 276.6 415.7 276.6 415.2 276.7 C 417.8 276.8 421.1 277.0 416.7 277.1 C 418.1 276.6 410.5 277.0 413.8 276.7 C 409.0 276.5 406.8 276.9 406.1 276.6 C 403.6 276.6 405.4 276.9 402.3 276.8 C 397.4 276.6 398.5 277.0 391.9 276.8 C 391.4 277.1 391.2 276.7 389.2 276.7 C 389.3 276.8 389.3 276.9 389.4 277.1 C 387.0 276.9 381.8 276.7 376.5 277.0 C 375.1 276.9 376.0 276.7 372.4 276.8 C 368.8 277.1 364.1 276.7 359.7 277.1 C 359.2 276.9 356.1 276.9 354.5 277.0 C 353.7 276.9 355.8 276.6 352.9 276.6 C 351.1 276.8 354.6 276.9 350.6 277.0 C 350.8 276.7 346.9 277.2 346.6 276.9 C 347.8 276.8 349.2 276.8 350.4 276.7 C 348.7 276.7 349.1 276.5 347.7 276.5 C 348.1 276.8 344.8 276.6 343.8 276.5 C 344.0 276.6 343.6 276.8 342.7 276.8 C 340.4 276.8 338.6 276.8 337.5 276.9 C 334.6 276.8 339.1 276.7 336.1 276.7 C 335.0 277.3 331.8 276.6 325.9 277.0 C 324.5 276.8 321.9 276.7 318.0 276.7 C 317.7 276.9 321.8 276.8 322.0 276.9 C 316.3 276.9 323.0 277.1 319.4 277.1 C 311.2 276.9 305.9 276.9 297.3 276.7 C 297.5 276.9 290.8 277.1 290.9 277.0 C 292.7 277.0 287.1 276.7 284.3 276.7 C 283.7 277.1 279.6 277.4 279.4 277.6 C 278.3 277.4 278.6 277.4 277.9 277.1 C 273.1 276.9 270.7 277.3 267.5 276.9 C 267.8 277.1 265.6 277.2 263.7 277.2 C 264.1 277.0 265.2 276.9 266.2 276.7 C 263.7 276.8 263.2 276.7 261.0 276.7 C 258.9 277.4 254.9 276.5 253.3 277.2 C 249.6 277.2 250.2 276.9 246.8 276.9 C 246.9 277.0 246.6 277.2 245.6 277.2 C 247.9 277.2 249.4 277.0 250.8 277.2 C 245.8 277.3 260.5 277.9 252.4 278.2 C 252.1 278.1 252.8 277.9 251.0 277.9 C 246.3 278.0 249.2 278.2 251.1 278.2 C 248.0 278.3 244.6 278.2 247.3 278.5 C 240.1 278.6 244.6 278.4 242.0 278.3 C 229.1 278.5 213.0 278.6 195.3 278.3 C 194.7 278.6 185.3 278.3 182.2 278.1 C 177.3 278.4 172.1 278.4 170.6 278.1 C 169.7 278.4 164.4 277.9 164.0 278.2 C 166.1 278.2 167.5 278.3 165.4 278.3 C 158.2 278.2 147.4 278.1 143.2 278.3 C 140.7 278.0 136.0 278.1 132.8 278.3 C 132.3 278.1 134.8 278.1 132.8 278.0 C 132.2 278.2 125.5 278.4 123.8 278.2 C 125.9 278.2 128.1 277.9 125.1 277.9 C 125.1 278.0 121.5 278.0 122.5 278.2 C 118.1 278.1 115.6 278.2 112.1 278.1 C 115.0 278.1 116.7 278.0 117.2 277.8 C 114.7 277.9 112.8 278.0 110.8 277.8 C 111.3 278.2 107.2 277.9 103.1 278.1 C 101.9 278.0 101.0 277.9 97.7 277.9 C 96.1 278.1 102.9 278.1 99.2 278.2 C 99.1 278.1 95.6 277.9 96.5 278.2 C 92.1 278.1 89.7 278.3 86.1 278.0 C 90.7 278.1 87.2 277.8 86.1 277.7 C 85.1 277.7 83.5 277.7 83.6 277.8 C 83.6 277.9 85.8 277.9 86.1 278.0 C 82.9 277.8 82.1 278.3 80.9 278.0 C 82.3 278.0 82.5 277.9 80.9 277.9 C 80.5 278.3 71.3 278.0 74.4 277.8 C 74.4 277.9 78.0 277.9 78.4 277.8 C 77.3 277.7 72.0 277.8 73.2 277.5 C 76.2 277.5 76.0 277.7 79.6 277.6 C 80.0 277.5 82.1 277.4 83.5 277.3 C 77.7 277.3 76.5 277.6 75.7 277.3 C 73.2 277.3 74.7 277.6 70.5 277.5 C 64.6 277.5 69.5 277.2 68.0 277.2 C 62.7 277.3 64.3 277.6 66.6 277.9 C 62.4 277.9 61.2 278.0 56.2 278.0 C 56.5 277.8 57.1 277.7 58.9 277.6 C 59.0 277.7 63.2 277.9 62.8 277.7 C 62.4 277.4 59.0 277.2 53.7 277.2 C 54.9 277.5 55.1 277.3 49.8 277.3 C 50.6 277.7 47.2 277.2 47.1 277.5 C 47.4 277.6 49.3 277.6 51.0 277.5 C 50.9 277.7 50.3 277.8 48.5 277.9 C 47.4 277.7 46.5 277.9 43.3 277.8 C 43.1 277.6 45.3 277.5 45.8 277.4 C 44.1 277.4 43.7 277.5 41.9 277.6 C 40.4 277.3 40.5 277.0 40.6 276.7 C 42.7 276.6 45.8 276.6 43.3 276.4 C 50.9 276.4 42.9 276.8 45.8 276.8 C 49.0 276.5 47.2 276.9 52.3 276.9 C 53.8 276.9 54.3 276.8 54.9 276.7 C 54.5 276.7 51.6 276.4 54.9 276.4 C 55.7 276.6 57.4 276.7 60.1 276.7 C 60.1 276.6 54.7 276.5 60.1 276.5 C 62.7 276.5 60.4 276.9 64.0 276.8 C 64.0 276.7 65.0 276.7 65.3 276.7 C 60.0 276.7 66.3 276.5 62.7 276.3 C 67.3 276.2 63.5 276.6 66.5 276.6 C 66.7 276.4 71.6 276.7 71.7 276.4 C 69.8 276.6 66.0 276.5 66.5 276.3 C 69.9 276.3 85.7 276.1 79.5 276.5 C 81.8 276.3 93.3 276.0 92.4 276.2 C 89.0 276.2 89.1 276.4 88.6 276.5 C 95.1 276.2 98.4 276.4 105.4 276.1 C 97.7 276.1 103.5 275.7 98.9 275.5 C 96.9 275.5 94.1 275.4 93.6 275.5 C 94.5 275.8 97.7 275.7 98.9 275.5 C 98.9 275.8 98.9 276.0 99.0 276.2 C 90.5 275.9 86.0 276.2 82.0 276.1 C 85.5 276.1 75.6 275.8 79.5 275.7 C 81.1 275.9 85.2 275.9 88.6 275.9 C 88.6 275.9 88.6 275.8 88.6 275.7 C 90.1 275.7 92.2 275.7 92.4 275.6 C 87.7 275.7 85.2 275.4 82.0 275.6 C 82.0 275.6 82.0 275.5 82.0 275.5 C 81.2 275.5 80.5 275.5 80.7 275.4 C 82.2 275.4 84.4 275.4 84.6 275.3 C 81.2 275.3 80.6 275.0 76.8 275.0 C 77.7 274.7 72.6 274.4 78.1 274.3 C 79.0 274.5 82.1 274.6 82.0 274.8 C 83.6 274.8 86.9 274.8 88.5 274.7 C 86.8 274.5 83.6 274.4 83.3 274.2 C 85.9 274.1 88.1 274.0 89.7 274.3 C 84.2 274.4 92.8 274.5 94.9 274.8 C 94.3 274.6 93.0 274.5 92.3 274.4 C 96.5 274.4 98.6 274.6 98.8 274.3 C 103.9 274.2 102.8 274.4 106.5 274.4 C 104.1 274.1 108.9 274.3 106.4 274.0 C 112.5 273.9 108.2 274.3 110.4 274.3 C 112.3 274.2 112.5 274.1 114.3 274.1 C 117.0 274.3 122.6 274.3 123.4 274.6 C 125.8 274.6 126.2 274.7 128.6 274.7 C 129.2 274.6 129.9 274.5 131.0 274.4 C 131.4 274.5 133.2 274.6 133.7 274.5 C 127.0 274.1 128.9 274.1 121.9 273.9 C 121.4 274.0 120.4 274.0 121.9 274.1 C 117.2 274.2 115.8 274.0 111.6 274.0 C 111.1 273.8 110.2 273.5 106.4 273.7 C 107.3 273.5 106.2 273.4 107.8 273.3 C 109.8 273.4 112.6 273.5 115.5 273.6 C 115.7 273.5 115.2 273.4 116.7 273.4 C 118.1 273.5 120.2 273.6 122.0 273.5 C 122.0 273.6 121.4 273.6 120.6 273.7 C 127.0 273.8 124.7 273.5 129.7 273.6 C 128.9 273.5 125.7 273.5 128.4 273.3 C 132.8 273.2 133.8 273.4 136.1 273.5 C 136.4 273.4 136.2 273.3 137.4 273.3 C 140.6 273.5 130.6 273.8 136.2 274.1 C 136.5 273.9 141.9 274.0 142.7 274.1 C 141.0 274.3 137.8 274.0 137.6 274.2 C 147.4 274.2 137.9 274.6 148.0 274.7 C 147.9 274.6 147.9 274.5 147.9 274.4 C 143.9 274.4 143.7 274.2 143.9 274.0 C 140.4 273.9 139.0 273.6 136.1 273.8 C 137.2 273.3 139.0 273.8 142.6 273.8 C 142.5 273.6 139.2 273.5 138.7 273.3 C 147.0 273.5 148.7 273.2 156.7 273.5 C 154.8 273.3 161.1 273.5 160.6 273.3 C 153.6 273.4 156.4 272.7 155.3 272.6 C 150.8 272.6 152.8 273.1 150.2 273.2 C 148.9 273.0 149.5 272.9 150.1 272.5 C 154.1 272.6 153.5 272.5 156.6 272.4 C 159.3 272.6 161.6 273.1 158.0 273.2 C 158.8 273.2 164.0 273.0 164.4 273.2 C 159.4 273.2 165.0 273.4 162.0 273.5 C 165.9 273.6 172.7 273.3 177.4 273.6 C 177.0 273.4 178.8 273.4 178.6 273.2 C 173.9 273.5 172.9 272.9 168.3 272.9 C 170.3 272.9 169.1 272.7 168.2 272.7 C 172.8 272.8 175.2 272.6 178.6 272.8 C 178.5 272.8 178.5 272.7 178.5 272.6 C 184.1 272.8 183.3 272.7 187.5 272.5 C 189.2 272.6 187.0 273.1 186.4 273.3 C 188.4 273.2 195.9 273.3 191.5 273.0 C 195.9 273.0 194.9 273.3 199.3 273.3 C 199.3 273.1 195.2 273.1 196.6 272.8 C 200.8 272.7 198.5 273.0 201.8 272.8 C 202.0 273.0 202.1 273.2 205.7 273.2 C 203.1 273.0 206.0 273.1 207.0 273.0 C 205.3 273.0 203.9 272.9 203.0 272.8 C 209.5 272.9 210.7 272.9 215.9 272.8 C 214.0 273.1 217.0 273.2 213.5 273.3 C 216.7 273.1 220.8 273.5 222.5 273.3 C 220.5 273.2 217.2 273.2 215.9 273.1 C 226.2 273.0 231.5 272.7 240.4 273.1 C 238.9 273.1 236.8 273.1 236.6 273.2 C 237.6 273.2 239.2 273.2 239.2 273.2 C 236.1 273.2 233.1 273.2 231.5 273.3 C 228.7 273.2 233.0 273.1 230.1 273.1 C 229.7 273.2 224.2 273.1 226.3 273.4 C 231.2 273.2 235.9 273.4 238.1 273.8 C 242.5 273.3 238.3 273.4 243.0 272.9 C 242.9 273.0 244.1 273.1 245.6 273.1 C 244.0 272.8 250.1 273.0 250.7 273.0 C 248.5 273.1 240.0 273.3 244.5 273.6 C 242.3 273.0 254.5 273.8 252.1 273.3 C 257.6 273.3 255.7 273.6 258.6 273.3 C 258.8 273.4 258.4 273.5 259.9 273.5 C 261.4 273.5 261.9 273.5 262.5 273.4 C 254.8 273.2 257.0 272.9 251.9 272.9 C 252.8 272.9 253.6 272.9 253.3 272.8 C 253.3 272.8 253.4 272.7 254.5 272.7 C 255.0 273.1 258.5 272.7 259.7 272.9 C 258.2 272.9 256.7 272.9 257.3 273.1 C 263.7 273.0 262.6 273.3 271.5 273.5 C 268.8 273.3 272.3 273.3 275.3 273.2 C 279.6 273.3 278.1 273.7 283.2 273.6 C 282.5 273.0 288.7 273.7 294.7 273.3 C 294.2 273.6 302.3 273.7 303.8 273.5 C 304.1 273.6 307.0 273.5 309.0 273.5 C 309.5 273.7 307.2 273.7 309.1 273.8 C 310.8 273.7 309.1 273.5 311.5 273.5 C 314.3 273.5 313.9 273.8 318.0 273.8 C 318.1 273.6 315.8 273.6 317.9 273.5 C 321.6 273.6 324.8 273.6 321.7 273.3 C 327.1 273.3 324.7 273.7 329.7 273.7 C 328.1 273.6 328.2 273.5 330.8 273.5 C 332.8 273.7 333.0 273.8 333.6 273.9 C 335.1 273.7 334.5 273.6 338.7 273.7 C 338.7 273.6 338.6 273.5 338.6 273.4 C 340.5 273.4 343.2 273.4 343.8 273.5 C 340.2 273.4 341.3 273.6 340.0 273.7 C 343.5 273.7 350.4 274.0 345.2 273.7 C 350.0 273.6 347.8 273.9 351.6 273.9 C 349.1 273.6 351.5 273.8 355.5 273.8 C 355.0 273.5 358.1 273.7 360.6 273.7 C 360.2 273.5 360.7 273.4 363.0 273.4 C 362.9 273.5 364.5 273.6 367.0 273.5 C 366.9 273.4 361.4 273.3 366.8 273.3 C 369.4 273.4 369.5 273.7 373.6 273.7 C 374.6 274.0 370.0 273.9 371.1 274.1 C 374.3 273.9 375.4 274.1 380.2 274.1 C 378.1 273.7 389.5 273.5 383.7 273.3 C 385.3 273.3 387.4 273.0 388.8 273.2 C 387.1 273.3 390.3 273.5 390.2 273.5 C 392.5 273.5 397.8 273.6 397.9 273.5 C 393.0 273.5 392.9 273.3 391.3 273.1 C 398.4 273.0 404.7 273.1 404.4 273.4 C 404.3 273.3 405.3 273.3 405.5 273.2 C 403.0 273.3 401.2 272.9 404.0 272.8 C 403.6 273.1 405.7 273.2 408.0 273.2 C 408.0 273.0 417.6 273.3 415.7 273.0 C 412.0 273.2 408.8 272.8 411.6 272.7 C 414.1 272.9 419.4 273.0 418.3 273.2 C 419.7 273.1 420.9 273.1 422.1 273.0 C 423.1 272.8 420.2 272.8 420.6 272.6 C 422.5 272.6 425.4 272.6 425.8 272.7 C 420.7 272.7 428.5 272.8 423.4 273.0 C 426.6 273.0 427.4 273.1 430.0 273.1 C 429.9 273.1 430.9 273.0 431.1 273.0 C 429.0 273.1 426.6 273.0 427.1 272.7 C 431.7 272.7 431.2 273.0 435.0 273.0 C 436.1 272.8 441.1 272.5 443.9 272.7 C 438.7 272.6 444.3 272.8 441.4 272.9 C 436.7 272.7 435.6 273.0 433.9 273.2 C 436.0 273.4 440.0 273.5 440.3 273.1 C 437.8 273.1 437.8 273.3 436.5 273.3 C 436.5 273.2 437.2 273.0 438.9 273.0 C 441.2 273.2 445.8 273.0 442.9 273.3 C 446.1 273.2 449.9 273.4 453.2 273.2 C 449.4 273.2 446.5 273.1 445.3 272.9 C 448.4 272.8 451.7 273.1 451.7 272.9 C 451.2 272.7 446.2 272.8 445.1 272.6 C 449.0 272.3 455.6 273.0 450.2 272.5 C 452.5 272.6 455.6 272.5 456.7 272.7 C 454.0 272.7 457.2 273.0 458.3 273.1 C 460.7 273.1 462.6 273.0 463.4 272.9 C 459.8 273.0 456.8 272.7 459.3 272.7 C 460.1 272.8 460.7 272.6 461.8 272.6 C 462.2 272.7 466.2 272.6 467.1 272.7 C 466.7 272.6 464.8 272.6 464.4 272.5 C 466.7 272.4 470.0 272.1 472.0 272.4 C 470.5 272.4 468.4 272.4 468.3 272.5 C 475.2 272.9 477.5 273.2 485.5 273.3 C 484.5 273.3 484.1 273.4 484.4 273.5 C 489.4 273.5 492.8 273.6 492.3 273.8 C 495.4 273.7 496.9 273.6 498.4 273.5 C 495.1 273.3 494.1 273.6 492.0 273.4 C 493.2 273.3 489.1 272.9 487.7 272.7 C 482.3 273.0 481.6 272.6 476.1 272.7 C 477.6 272.5 471.9 272.7 473.4 272.4 C 478.9 272.8 483.7 272.5 491.5 272.7 C 490.6 272.9 489.9 273.0 493.1 273.2 C 498.1 273.3 495.4 272.9 499.5 273.0 C 501.3 273.2 498.9 273.2 501.0 273.3 C 502.3 273.2 506.1 273.2 507.5 273.5 C 502.2 273.4 508.7 273.7 505.2 273.8 C 507.0 273.8 508.0 273.8 509.2 273.9 C 503.8 273.6 514.1 273.5 510.0 273.3 C 517.1 273.2 511.0 273.9 516.8 273.9 C 513.8 273.7 517.5 273.6 521.8 273.6 C 523.1 273.9 527.6 273.9 531.2 274.0 C 529.2 273.8 527.8 273.8 530.9 273.7 C 529.1 273.6 526.1 273.6 524.5 273.7 C 524.4 273.6 523.8 273.5 523.0 273.5 C 527.2 273.4 525.4 273.3 526.7 273.2 C 528.0 273.3 531.2 273.3 532.0 273.5 C 532.0 273.4 533.1 273.4 533.2 273.3 C 527.7 273.3 533.8 273.0 530.4 272.9 C 528.0 272.9 529.7 273.2 526.6 273.1 C 523.5 272.8 528.8 272.8 530.1 272.6 C 527.5 272.4 524.7 272.7 523.6 272.4 C 526.7 272.1 532.1 272.3 536.4 272.4 C 535.9 272.1 543.6 272.5 543.9 272.1 C 544.7 272.2 545.5 272.3 546.6 272.3 C 547.7 272.1 549.3 272.4 550.6 272.4 C 550.6 272.3 550.2 272.2 549.1 272.1 C 554.5 272.2 555.7 272.2 561.9 272.1 C 563.0 272.3 564.3 272.4 564.9 272.6 C 563.4 272.6 562.1 272.7 561.1 272.7 C 569.7 272.8 563.7 272.1 570.0 272.5 C 569.6 272.4 565.3 272.1 568.4 272.0 C 574.0 272.3 581.4 272.0 581.7 272.7 C 586.7 273.0 589.6 272.5 592.1 272.8 C 593.6 272.8 594.0 272.7 594.6 272.7 C 593.0 272.5 591.0 272.4 589.1 272.3 C 586.3 272.4 584.9 272.2 587.9 272.5 C 583.7 272.5 582.4 272.4 580.1 272.3 C 585.8 272.1 591.4 272.3 591.4 271.9 C 593.5 272.1 595.2 272.3 596.9 272.4 C 597.4 272.2 604.0 272.2 604.7 272.4 C 600.1 272.3 595.7 272.6 599.9 272.8 C 610.8 272.6 617.3 273.1 626.9 272.8 C 627.3 272.9 626.7 273.1 628.4 273.1 C 628.3 273.0 628.6 272.9 629.5 272.8 C 632.6 272.9 634.4 272.9 638.5 272.9 C 638.5 273.1 639.3 273.3 641.6 273.4 C 642.6 273.1 646.3 272.7 648.8 272.7 C 646.3 272.8 649.9 273.1 651.6 273.1 C 649.8 272.7 663.4 273.3 659.3 273.0 C 664.6 273.0 667.0 273.1 667.2 273.2 C 669.1 273.2 670.4 273.1 672.2 273.1 C 673.7 273.4 682.6 273.2 684.0 273.3 C 680.8 273.2 680.5 273.6 683.0 273.5 C 684.6 273.4 692.7 273.2 694.3 273.2 C 693.8 273.3 693.4 273.6 689.5 273.6 C 696.3 273.7 696.0 273.3 698.0 273.1 C 698.1 273.4 700.9 273.1 701.9 273.1 C 704.2 273.2 701.9 273.2 702.2 273.4 C 704.6 273.4 705.6 273.6 708.8 273.5 C 707.6 273.3 711.3 273.4 712.6 273.5 C 712.7 273.4 712.8 273.4 713.1 273.3 C 713.0 272.5 712.9 271.2 712.9 269.4 C 713.3 273.0 713.4 255.7 713.1 259.9 C 712.8 256.6 713.4 256.4 713.3 252.1 C 713.3 251.9 713.2 251.5 713.2 251.1 C 712.2 251.1 711.4 251.1 713.1 251.3 C 713.1 251.3 713.1 251.3 713.1 251.3 C 713.1 251.3 713.1 251.3 713.1 251.3 C 709.0 251.3 711.7 251.0 706.7 251.1 C 708.5 251.4 701.9 251.0 702.6 251.4 C 700.9 251.0 696.4 251.6 692.6 251.2 C 692.5 251.3 691.4 251.3 691.1 251.3 C 690.3 251.5 695.9 251.5 692.2 251.6 C 688.0 251.4 690.5 251.3 690.0 251.2 C 678.1 251.3 663.9 251.2 651.4 251.1 C 652.8 251.2 652.6 251.3 650.0 251.3 C 646.7 250.9 631.9 251.1 629.5 251.3 C 628.4 250.9 620.6 251.3 619.3 251.1 C 620.8 251.1 623.9 250.9 620.8 250.9 C 618.5 251.2 616.0 251.0 612.9 251.2 C 611.6 250.9 602.2 251.2 606.7 250.7 C 604.9 250.7 604.0 250.7 603.0 250.6 C 602.7 250.9 600.8 250.9 604.0 251.0 C 595.7 250.8 593.5 251.1 587.3 250.9 C 586.1 251.0 591.0 251.1 587.1 251.2 C 587.1 251.1 587.1 251.1 587.2 251.0 C 585.8 251.0 585.2 251.1 584.7 251.0 C 585.0 250.9 587.1 250.9 587.4 250.6 C 584.2 250.7 582.3 250.4 581.0 250.6 C 585.4 250.7 582.1 251.1 579.6 250.9 C 582.1 250.7 569.4 250.9 565.4 251.0 C 563.5 250.7 569.8 251.0 569.4 250.8 C 561.8 250.8 562.5 250.7 561.5 251.0 C 557.5 250.9 556.1 250.8 551.2 250.9 C 548.5 250.8 553.0 250.7 550.1 250.7 C 548.3 250.8 547.5 250.9 544.8 250.9 C 538.2 250.4 521.6 251.3 514.2 250.5 C 517.2 250.7 513.0 250.8 508.9 250.8 C 508.7 250.7 509.2 250.5 507.7 250.5 C 507.9 250.7 506.5 250.8 503.8 250.8 C 503.5 250.7 504.1 250.5 502.6 250.5 C 501.3 250.8 498.1 250.5 496.0 250.7 C 495.2 250.4 500.8 250.6 501.3 250.4 C 494.7 250.2 493.4 250.5 488.4 250.4 C 491.1 250.4 486.6 250.1 485.9 250.1 C 487.0 250.3 482.9 250.4 485.7 250.6 C 483.9 250.6 481.0 250.6 480.6 250.5 C 481.6 250.5 483.2 250.5 483.3 250.5 C 480.9 250.5 477.9 250.2 476.7 250.5 C 478.4 250.5 479.3 250.6 479.3 250.7 C 478.6 250.8 477.9 250.9 476.6 250.9 C 480.4 250.3 469.7 250.6 469.0 250.8 C 468.1 250.4 467.5 250.4 467.9 250.2 C 463.4 250.2 463.9 250.5 461.3 250.5 C 462.1 250.3 463.0 250.0 458.9 249.9 C 459.7 250.2 454.7 250.2 456.1 250.5 C 445.4 250.6 443.2 250.3 436.8 250.3 C 436.7 250.4 438.7 250.4 436.8 250.5 C 433.8 250.4 431.2 250.3 429.2 250.1 C 427.5 250.3 429.8 250.4 427.9 250.5 C 423.1 250.2 424.3 249.9 420.2 249.7 C 415.0 249.9 416.9 249.8 413.7 250.1 C 415.1 250.1 416.9 250.2 415.0 250.2 C 411.9 250.0 410.6 249.7 409.9 249.7 C 412.1 249.7 413.9 249.7 415.0 249.7 C 415.8 249.6 419.0 249.6 416.3 249.4 C 419.6 249.5 423.2 249.5 428.0 249.5 C 426.4 249.2 432.2 249.4 430.6 249.2 C 425.3 249.2 424.1 249.1 419.0 249.1 C 420.1 249.4 414.8 249.2 413.8 249.2 C 413.8 249.3 410.3 249.3 411.2 249.5 C 407.2 249.6 407.4 249.4 403.5 249.4 C 403.2 249.3 403.7 249.2 402.2 249.2 C 400.8 249.4 399.6 249.1 398.3 249.1 C 399.2 249.4 393.5 249.2 393.1 249.4 C 394.7 249.4 396.8 249.4 397.0 249.5 C 390.7 249.5 395.8 249.7 397.0 249.9 C 396.8 249.8 399.1 249.5 399.6 249.7 C 394.3 249.9 406.9 250.1 402.2 250.0 C 398.2 249.9 398.4 250.1 394.4 250.1 C 389.6 249.6 395.3 249.4 390.5 249.0 C 387.6 249.2 385.6 249.2 385.3 249.4 C 384.7 249.3 384.0 249.2 382.8 249.2 C 381.6 249.3 386.6 249.4 382.8 249.5 C 380.8 249.4 383.1 249.1 378.9 249.2 C 377.1 249.4 383.9 249.4 380.2 249.5 C 376.1 249.1 381.0 249.6 376.4 249.7 C 376.0 249.6 375.3 249.6 373.7 249.6 C 373.5 249.5 374.1 249.3 372.5 249.3 C 371.6 249.7 370.7 249.1 367.3 249.2 C 365.4 249.5 370.8 249.3 369.8 249.6 C 365.9 249.3 363.7 249.6 362.2 249.6 C 365.3 249.4 357.2 249.4 357.0 249.2 C 357.9 249.5 356.1 249.3 351.7 249.6 C 351.4 249.1 346.4 249.4 345.2 249.1 C 344.6 249.2 343.4 249.3 342.8 249.4 C 344.3 249.4 345.8 249.4 345.3 249.6 C 344.0 249.6 342.8 249.6 341.4 249.6 C 339.2 249.4 344.7 248.9 336.1 248.9 C 337.2 249.3 333.5 249.3 331.2 249.4 C 331.4 249.7 334.6 249.4 335.0 249.6 C 332.1 249.8 329.0 249.5 327.3 249.4 C 322.2 249.5 316.3 249.4 309.1 249.5 C 307.5 249.3 315.1 249.3 310.3 249.2 C 308.3 249.2 309.4 249.4 306.6 249.3 C 308.9 248.3 287.1 249.1 285.6 248.7 C 284.8 248.9 278.6 248.8 279.3 249.1 C 283.4 248.9 286.4 249.2 288.4 249.3 C 292.3 249.2 284.8 249.1 288.3 249.0 C 288.8 249.2 294.0 249.0 293.6 249.3 C 288.0 249.3 296.5 249.5 292.4 249.7 C 287.3 249.7 277.1 250.0 279.4 249.7 C 279.5 249.7 281.7 249.8 282.0 249.7 C 276.1 249.5 272.8 249.7 270.5 249.9 C 267.8 249.7 257.6 250.1 260.1 249.9 C 259.2 249.7 266.3 250.0 265.2 249.7 C 254.5 249.6 254.3 249.8 247.2 249.7 C 249.6 249.9 240.0 250.1 240.8 250.0 C 240.7 249.7 238.5 249.5 234.3 249.8 C 234.8 249.6 232.5 249.5 230.2 249.4 C 229.3 249.6 232.2 249.6 231.8 249.8 C 229.7 249.8 227.4 249.8 225.3 249.8 C 225.1 249.7 225.4 249.6 223.9 249.6 C 221.6 249.7 213.0 250.0 213.7 249.8 C 217.2 249.5 207.6 249.5 213.5 249.3 C 211.8 249.3 211.6 249.2 209.5 249.3 C 209.6 249.4 209.6 249.5 209.7 249.6 C 204.9 249.6 207.1 249.2 203.0 249.2 C 202.7 249.3 201.0 249.3 200.5 249.4 C 202.1 249.4 202.2 249.3 204.4 249.3 C 202.2 249.7 208.8 249.6 208.5 249.8 C 204.0 249.9 203.9 249.6 201.9 249.5 C 196.4 249.7 199.0 249.6 192.9 249.5 C 192.9 249.6 194.6 249.6 194.3 249.7 C 186.9 249.7 187.4 249.2 182.5 249.3 C 183.6 249.3 188.0 249.1 184.8 249.1 C 181.5 249.2 180.6 249.5 176.1 249.5 C 175.8 249.4 176.1 249.3 174.6 249.3 C 172.8 249.4 172.8 249.6 171.0 249.7 C 170.6 249.5 168.1 249.6 167.1 249.7 C 165.4 249.5 167.6 249.4 165.6 249.3 C 161.8 249.3 160.1 249.9 156.9 249.8 C 156.8 249.5 153.4 249.6 150.3 249.7 C 149.6 249.3 142.9 249.4 138.5 249.3 C 139.7 249.6 135.1 249.5 136.2 249.7 C 138.4 249.7 139.5 249.8 140.1 249.9 C 135.1 249.9 133.2 249.4 129.7 249.8 C 127.7 249.6 125.2 249.5 121.8 249.4 C 121.5 249.6 128.0 249.7 124.5 249.7 C 124.2 249.6 123.1 249.7 122.0 249.7 C 122.3 249.5 119.5 249.4 117.7 249.3 C 114.9 249.5 108.3 249.1 111.4 249.4 C 106.7 249.5 109.5 249.0 105.8 249.0 C 108.0 249.4 101.7 249.4 105.0 249.6 C 100.2 249.7 100.2 249.2 102.1 249.1 C 97.5 249.0 96.7 249.2 94.3 249.1 C 96.6 249.3 89.8 249.5 93.2 249.3 C 94.2 249.1 89.0 249.2 87.9 249.1 C 89.7 249.3 87.3 249.3 90.7 249.4 C 87.3 249.5 82.3 249.5 78.9 249.3 C 74.8 249.4 70.8 249.4 72.4 249.2 C 68.4 249.2 70.0 249.2 65.9 249.2 C 65.9 249.3 67.1 249.3 67.4 249.3 C 61.9 249.3 62.8 249.2 55.5 249.2 C 56.1 248.9 51.5 248.9 49.9 248.7 C 53.0 248.7 55.4 248.8 57.9 248.9 C 58.3 248.7 55.8 248.7 57.7 248.6 C 58.0 248.7 59.2 248.7 60.3 248.8 C 55.4 248.5 66.0 248.4 62.8 248.6 C 62.8 248.6 62.5 248.5 61.5 248.5 C 62.6 248.8 62.5 248.7 61.9 248.9 C 64.2 248.9 66.4 249.2 67.0 248.9 C 66.8 248.8 64.6 248.9 64.2 248.8 C 70.0 248.6 66.3 249.1 70.9 249.0 C 71.7 248.7 69.2 248.7 67.9 248.5 C 72.2 248.5 75.9 248.5 77.2 248.7 C 81.0 248.6 76.7 248.5 79.4 248.4 C 80.9 248.5 80.9 248.7 83.6 248.7 C 86.4 248.6 81.8 248.5 84.7 248.5 C 88.0 248.6 82.8 248.8 87.7 248.9 C 86.2 248.5 92.0 248.9 91.4 248.7 C 88.7 248.7 88.4 248.4 90.0 248.6 C 96.6 248.9 100.3 248.0 106.9 248.6 C 106.8 248.5 107.8 248.5 108.0 248.5 C 103.2 248.3 96.3 248.3 94.7 247.9 C 91.0 248.0 91.7 248.2 91.1 248.3 C 86.4 248.0 86.8 247.9 89.1 247.6 C 96.5 247.5 99.9 247.7 104.9 247.8 C 107.4 247.6 104.6 247.7 103.4 247.6 C 119.0 247.8 106.7 247.1 112.2 247.2 C 112.2 247.3 113.4 247.4 115.0 247.4 C 114.9 247.3 117.2 247.3 117.5 247.3 C 116.5 247.2 115.9 247.2 116.1 247.1 C 119.8 247.0 118.5 247.3 118.9 247.4 C 115.9 247.4 114.1 247.4 113.8 247.6 C 117.5 247.5 120.6 247.7 122.8 247.4 C 126.6 247.8 121.4 248.1 123.5 248.4 C 123.0 248.6 125.5 247.8 128.2 247.6 C 132.9 247.7 132.8 247.4 137.1 247.4 C 138.4 247.7 132.9 247.5 133.4 247.7 C 134.7 247.7 135.0 247.8 136.1 247.8 C 139.2 247.8 138.8 247.6 141.1 247.5 C 142.5 247.7 143.2 247.6 144.9 247.5 C 147.9 247.6 143.4 247.7 146.5 247.7 C 149.7 247.8 151.7 247.5 152.8 247.5 C 153.1 247.6 152.7 247.7 154.2 247.7 C 157.8 247.6 158.6 247.5 154.0 247.4 C 158.1 247.4 159.8 247.3 159.0 247.1 C 152.9 247.1 151.4 247.1 148.4 246.8 C 147.4 247.0 145.5 246.8 143.2 246.8 C 144.8 247.2 140.5 246.8 139.4 247.0 C 140.9 247.0 142.5 247.1 143.4 247.2 C 136.9 247.1 137.0 247.1 132.0 247.5 C 131.9 247.4 131.2 247.3 130.5 247.3 C 132.1 247.1 136.9 247.2 136.8 247.0 C 133.0 246.7 132.0 247.2 127.6 246.8 C 126.0 247.0 131.2 247.1 127.8 247.2 C 126.1 247.0 123.8 246.9 121.1 246.8 C 118.3 246.8 117.0 246.9 114.8 247.0 C 114.4 246.9 114.1 246.8 112.0 246.8 C 112.2 246.9 114.4 247.0 112.2 247.1 C 105.1 246.8 100.3 246.6 93.6 246.7 C 96.0 246.8 101.7 247.0 99.0 247.0 C 95.9 246.9 91.9 247.2 88.6 246.9 C 87.5 246.8 92.5 247.0 91.0 246.6 C 87.9 246.6 86.0 246.6 84.4 246.5 C 84.6 246.7 81.0 246.6 82.0 246.9 C 84.6 246.9 85.1 246.6 85.8 246.7 C 84.3 247.4 76.1 246.5 71.3 246.5 C 68.2 246.6 73.9 246.7 70.3 246.8 C 68.1 246.9 66.3 246.3 69.8 246.2 C 72.3 246.3 73.0 246.0 73.8 246.3 C 74.8 246.3 76.3 246.3 76.3 246.2 C 74.5 246.2 74.7 246.0 73.5 246.0 C 76.1 246.0 76.1 245.5 78.6 245.8 C 77.1 245.8 76.6 245.9 76.1 246.0 C 83.0 245.9 85.3 246.1 89.4 246.2 C 87.1 246.1 89.4 246.1 89.1 245.9 C 86.1 246.0 80.2 245.8 83.7 245.7 C 86.3 246.0 87.6 245.3 90.1 245.6 C 88.3 245.6 88.7 245.7 87.8 245.8 C 90.5 245.8 90.5 246.0 93.2 246.1 C 101.4 245.7 108.4 246.3 121.6 245.8 C 126.3 245.8 117.4 245.9 117.9 246.1 C 119.3 246.1 119.6 246.2 120.6 246.2 C 120.6 245.9 123.1 246.2 124.4 246.0 C 124.3 246.2 130.5 246.0 133.7 246.2 C 133.8 246.1 133.3 246.0 134.9 246.0 C 144.6 246.3 161.6 245.9 168.9 246.1 C 168.6 245.9 171.7 245.9 172.6 245.8 C 177.2 245.9 175.2 246.0 181.7 245.8 C 185.0 245.8 181.2 246.0 180.6 246.0 C 190.4 245.9 199.2 246.2 205.3 245.9 C 208.5 245.8 205.4 246.1 211.9 246.1 C 211.9 245.8 222.3 246.3 223.5 245.9 C 227.4 245.8 234.8 246.3 231.4 246.0 C 236.8 245.9 233.4 246.3 235.5 246.3 C 239.2 246.3 234.1 245.7 237.8 245.7 C 237.5 245.9 240.7 245.8 243.2 246.0 C 240.2 246.0 238.4 246.1 238.0 246.2 C 240.5 246.1 240.5 246.3 244.5 246.2 C 247.5 246.1 256.2 245.9 258.9 246.2 C 259.0 246.1 258.2 246.0 257.5 246.0 C 260.1 245.9 263.2 246.2 262.7 245.9 C 268.6 245.9 271.2 246.2 274.4 245.9 C 277.0 245.8 273.6 246.1 281.1 246.1 C 281.2 245.9 294.4 245.9 298.0 246.1 C 298.1 245.8 298.9 246.1 300.6 246.1 C 300.8 246.0 300.4 245.9 301.9 245.9 C 302.2 246.0 303.3 245.9 304.5 245.9 C 303.7 246.3 309.3 245.8 309.7 246.0 C 308.6 246.1 308.6 246.3 309.8 246.3 C 310.1 246.0 315.6 246.4 315.0 246.2 C 313.8 246.1 310.1 246.2 311.1 246.0 C 316.2 245.9 314.2 246.2 317.6 246.2 C 317.4 246.1 315.3 246.0 317.6 246.0 C 321.2 246.0 317.9 246.0 320.2 246.2 C 322.1 246.2 325.5 246.0 326.8 246.0 C 326.4 246.0 327.6 246.1 328.1 246.1 C 334.8 246.2 350.1 246.0 356.7 246.3 C 357.2 246.2 358.6 246.1 358.1 246.0 C 362.0 246.1 361.8 246.0 365.8 246.1 C 365.8 246.0 365.8 245.9 365.8 245.8 C 371.1 245.7 366.4 246.2 369.8 246.1 C 370.2 245.6 371.8 246.3 375.0 246.3 C 375.4 246.2 376.9 246.1 376.4 246.0 C 381.4 246.0 381.1 246.4 385.4 246.2 C 384.4 246.2 383.7 245.4 384.2 245.2 C 384.9 245.3 386.2 245.4 388.1 245.4 C 385.8 245.7 387.1 246.6 393.3 246.3 C 389.9 246.3 388.6 246.3 389.4 246.1 C 394.1 246.0 395.7 246.2 399.8 246.2 C 400.5 246.0 397.5 245.9 398.6 245.7 C 399.6 245.6 400.1 245.6 399.9 245.5 C 404.2 245.5 404.3 245.7 409.0 245.6 C 409.0 245.7 408.0 245.7 406.3 245.7 C 406.6 245.9 406.6 246.0 403.8 246.1 C 403.4 245.9 405.1 245.7 401.1 245.7 C 401.1 245.9 401.1 246.0 401.1 246.1 C 404.0 246.1 410.9 246.3 411.5 246.2 C 410.1 246.1 407.8 246.1 409.0 245.8 C 414.0 245.9 415.3 246.2 419.4 246.3 C 426.5 246.2 439.1 246.3 437.6 245.9 C 441.9 246.0 440.4 246.0 444.2 246.1 C 443.1 245.8 448.6 245.9 448.2 245.7 C 443.5 245.8 444.9 245.7 440.3 245.8 C 440.5 245.7 441.3 245.5 443.1 245.5 C 443.3 245.6 445.2 245.7 448.2 245.7 C 447.7 245.6 445.0 245.3 448.3 245.3 C 448.6 245.4 449.3 245.4 450.8 245.4 C 450.8 245.5 450.8 245.7 450.8 245.8 C 449.0 245.9 446.8 245.9 445.5 246.1 C 446.8 246.1 447.0 246.1 448.1 246.1 C 448.9 246.0 454.2 246.1 454.7 246.0 C 452.5 246.0 451.1 245.9 453.4 245.8 C 453.8 245.9 457.3 245.9 458.7 245.8 C 454.1 245.7 455.9 245.7 453.5 245.4 C 458.8 245.4 457.9 245.7 463.9 245.6 C 464.0 245.8 464.0 246.0 462.4 246.1 C 466.1 246.5 475.1 246.1 478.0 246.1 C 476.0 246.1 473.6 246.4 476.7 246.5 C 476.7 246.3 479.0 246.4 479.4 246.3 C 480.5 245.8 477.9 245.6 475.7 245.3 C 478.1 245.4 478.7 245.2 481.0 245.3 C 481.7 245.4 479.2 245.8 482.1 245.8 C 482.8 245.4 487.6 245.8 488.7 245.5 C 486.6 245.5 485.3 245.4 487.5 245.3 C 487.0 245.5 491.3 245.4 491.3 245.6 C 487.8 245.7 486.9 245.9 484.7 245.9 C 487.4 245.9 482.6 246.1 487.2 246.1 C 489.3 246.0 490.4 245.7 495.2 245.7 C 497.0 245.8 495.2 246.0 497.7 246.1 C 497.1 245.8 502.3 245.8 499.1 246.0 C 500.9 246.0 501.9 246.0 502.9 246.1 C 500.4 245.8 512.9 245.5 511.0 245.3 C 510.9 245.7 511.4 246.0 512.0 246.1 C 514.6 245.8 517.3 246.0 523.9 246.0 C 523.8 245.7 524.9 246.0 527.8 245.9 C 528.3 245.8 525.9 245.7 527.9 245.7 C 531.0 245.8 531.1 245.8 531.7 245.9 C 534.0 245.9 535.8 245.9 536.9 246.0 C 537.1 245.9 536.3 245.8 535.7 245.7 C 544.4 246.0 549.1 245.7 556.6 245.7 C 553.5 245.6 552.6 246.0 555.2 246.0 C 556.8 245.9 558.2 245.9 559.1 245.8 C 557.4 245.6 558.1 245.7 561.8 245.7 C 565.2 245.6 560.8 245.3 563.3 245.3 C 566.0 245.5 564.3 245.6 565.8 245.7 C 567.1 245.7 568.5 245.7 569.8 245.7 C 567.4 245.5 570.2 245.4 572.5 245.3 C 570.7 245.6 571.7 245.7 576.3 245.6 C 576.7 245.7 574.3 245.8 576.2 245.8 C 577.2 245.9 580.9 245.5 584.0 245.7 C 583.0 245.8 582.4 245.8 582.6 245.9 C 586.2 245.7 588.6 246.1 591.6 246.1 C 588.7 245.9 590.5 245.7 589.3 245.6 C 592.2 245.8 596.1 245.5 598.3 245.8 C 593.9 245.8 597.9 246.3 600.7 246.3 C 601.5 246.1 596.7 246.1 598.3 245.8 C 600.0 245.6 603.2 246.0 604.9 245.7 C 604.7 245.6 602.8 245.8 602.4 245.7 C 604.8 245.6 601.7 245.5 603.8 245.5 C 604.8 245.8 606.5 245.4 607.8 245.4 C 609.4 245.5 612.6 245.8 614.1 245.7 C 614.2 245.6 611.8 245.6 611.7 245.5 C 618.9 245.3 620.8 245.7 627.4 245.4 C 628.1 245.5 629.3 245.6 631.2 245.7 C 631.1 245.5 632.3 245.5 633.9 245.4 C 636.6 245.5 639.3 245.7 642.8 245.7 C 642.0 245.9 640.3 246.1 645.1 246.1 C 645.4 246.0 643.4 245.9 645.2 245.9 C 645.2 245.9 646.3 246.0 646.6 245.9 C 646.7 245.8 646.7 245.8 646.8 245.7 C 645.4 245.7 644.1 245.7 642.8 245.7 C 643.1 245.6 642.8 245.5 641.8 245.4 C 647.6 245.3 646.8 245.8 650.7 245.6 C 651.0 246.0 652.2 246.1 648.9 246.3 C 652.2 246.2 654.6 246.1 655.7 245.9 C 651.7 245.9 653.2 245.6 652.2 245.5 C 654.7 245.5 654.8 245.4 656.1 245.3 C 658.9 245.5 652.7 245.8 658.4 245.8 C 654.3 245.5 662.2 245.6 665.0 245.7 C 664.6 245.6 663.6 245.5 665.2 245.4 C 673.1 245.3 671.8 246.1 676.8 245.7 C 676.2 245.8 678.4 245.8 679.2 245.9 C 675.3 246.0 674.3 246.0 672.6 246.1 C 672.8 246.2 673.9 246.2 675.0 246.2 C 675.1 246.1 676.2 246.1 677.7 246.2 C 679.0 246.0 678.9 245.6 682.2 245.4 C 682.4 245.5 681.9 245.7 683.4 245.7 C 685.0 245.5 681.9 246.1 688.3 246.0 C 687.2 245.9 686.7 245.8 687.4 245.6 C 690.5 245.5 689.8 245.6 694.0 245.5 C 695.1 245.9 690.7 246.0 689.4 246.2 C 692.2 246.2 694.8 245.9 697.4 246.1 C 695.3 246.0 697.7 245.7 700.3 245.7 C 702.6 245.7 699.8 246.1 702.6 246.1 C 704.8 246.0 706.2 245.8 704.3 245.7 C 709.0 245.8 708.2 245.5 712.2 245.5 C 712.2 245.7 711.0 245.7 709.6 245.6 C 709.7 245.7 709.1 245.8 710.6 245.8 C 712.5 245.7 715.8 245.6 718.8 245.6 C 718.8 247.3 718.8 249.0 718.9 250.3 C 718.4 257.6 719.0 266.0 718.8 273.3 C 718.7 271.5 718.7 275.0 718.7 278.9 C 716.4 278.9 713.9 278.8 712.7 278.7 C 711.0 278.8 706.0 279.3 707.9 279.1 C 707.0 278.8 703.7 278.9 700.9 278.8 C 701.0 278.9 701.1 279.0 701.2 279.1 C 695.4 279.1 693.9 278.9 691.8 278.7 C 684.9 278.8 676.8 278.5 668.4 278.7 C 666.0 278.5 664.2 278.5 658.9 278.3 C 659.3 278.6 655.2 278.6 651.4 278.6 C 652.5 278.8 648.9 278.7 649.1 278.9 C 652.5 278.9 651.5 279.2 653.3 279.3 C 648.6 279.0 646.7 279.5 643.0 279.3 C 647.3 279.2 648.4 278.9 648.7 278.5 C 643.4 278.6 640.6 278.5 639.4 278.3 C 639.1 278.4 639.9 278.6 641.1 278.7 C 639.3 278.7 637.6 278.7 635.9 278.7 C 635.3 278.5 637.6 278.4 635.7 278.4 C 634.5 278.5 633.2 278.6 632.0 278.7 C 630.3 278.4 633.8 278.5 634.2 278.3 C 627.2 278.2 630.7 278.7 626.9 278.8 C 625.8 278.6 625.8 278.4 622.6 278.3 C 621.5 278.5 621.3 278.7 617.7 278.7 C 615.4 278.7 617.5 278.4 614.9 278.3 C 614.6 278.4 613.4 278.4 612.2 278.3 C 612.5 278.5 611.4 278.5 609.9 278.6 C 609.4 278.5 606.9 278.5 606.0 278.6 C 605.6 278.4 601.3 278.2 600.6 278.3 C 600.6 278.4 602.9 278.4 603.2 278.5 C 600.3 278.5 598.3 278.5 596.8 278.6 C 595.5 278.0 591.0 278.5 584.9 278.2 C 581.3 278.4 585.9 278.6 581.4 278.7 C 578.5 278.6 581.8 278.5 581.0 278.3 C 580.2 278.2 575.8 278.1 575.8 278.3 C 575.9 278.4 578.1 278.3 578.5 278.4 C 575.2 278.6 575.1 278.3 573.1 278.3 C 573.5 278.5 571.3 278.5 570.9 278.7 C 561.7 278.8 561.5 278.4 557.5 278.2 C 557.6 278.3 555.3 278.2 555.1 278.3 C 557.7 278.2 561.4 278.5 557.7 278.5 C 558.3 278.4 552.9 278.5 552.6 278.6 C 553.3 278.7 556.7 278.6 555.5 278.9 C 550.6 279.0 552.3 278.5 548.8 278.7 C 548.3 278.6 550.5 278.6 551.3 278.5 C 549.8 278.5 547.6 278.5 547.3 278.4 C 549.1 278.3 549.0 278.2 549.7 278.0 C 547.3 278.2 542.6 278.0 546.0 278.3 C 540.7 278.3 535.9 278.4 539.6 278.7 C 535.5 278.7 537.6 278.4 534.4 278.6 C 534.7 278.3 535.6 278.1 532.6 277.9 C 532.2 278.1 530.0 278.1 530.4 278.3 C 524.2 278.3 522.2 278.1 519.5 277.9 C 522.1 278.2 518.8 277.9 516.0 278.2 C 514.0 278.1 515.5 277.7 510.6 277.9 C 516.2 278.2 504.3 277.9 507.0 278.3 C 500.4 278.1 500.5 278.2 493.8 278.1 C 494.3 277.9 495.8 277.8 498.7 277.8 C 496.9 278.0 504.6 278.0 504.0 277.9 C 503.9 277.8 503.9 277.7 503.9 277.7 C 499.0 277.7 495.6 277.7 493.4 277.5 C 492.5 277.7 490.3 277.8 491.2 278.1 C 486.3 277.8 481.7 278.2 479.3 277.9 C 481.0 277.9 482.5 277.9 481.9 277.8 C 480.1 277.8 477.8 277.9 478.2 278.1 C 482.0 278.2 482.8 278.2 484.6 278.0 C 483.1 278.2 488.6 278.3 484.9 278.4 C 484.7 278.0 477.2 278.6 479.6 278.3 C 483.7 278.2 474.8 278.1 474.3 278.0 C 474.3 278.0 474.3 278.0 474.3 278.0 Z M 91.9 246.1 C 88.1 246.2 93.1 246.4 96.0 246.4 C 95.0 246.3 94.6 246.2 94.4 246.1 C 93.3 246.1 92.2 246.2 91.9 246.1 C 91.9 246.1 91.9 246.1 91.9 246.1 Z M 136.1 249.6 C 137.2 249.3 130.9 249.5 128.2 249.4 C 129.0 249.5 129.9 249.6 128.3 249.6 C 131.2 249.8 131.9 249.4 136.1 249.6 C 136.1 249.6 136.1 249.6 136.1 249.6 Z M 279.2 248.7 C 278.2 248.7 275.7 248.8 275.4 248.7 C 273.9 248.7 274.3 248.8 274.1 248.9 C 271.1 249.0 274.7 248.6 270.1 248.7 C 268.5 249.2 278.3 249.3 279.2 248.7 C 279.2 248.7 279.2 248.7 279.2 248.7 Z M 521.1 274.4 C 519.1 274.2 523.4 274.0 521.9 273.8 C 514.9 274.0 520.6 274.3 510.6 274.2 C 511.3 274.3 512.1 274.3 512.1 274.4 C 516.7 274.3 516.9 274.1 516.1 274.6 C 518.2 274.6 518.4 274.1 521.1 274.4 C 521.1 274.4 521.1 274.4 521.1 274.4 Z M 427.4 273.3 C 428.2 273.4 428.9 273.4 429.0 273.5 C 431.9 273.4 431.3 273.4 435.3 273.5 C 434.6 273.1 430.7 273.1 427.4 273.3 C 427.4 273.3 427.4 273.3 427.4 273.3 Z M 182.4 272.8 C 181.5 272.8 180.7 272.8 179.8 272.8 C 180.5 272.9 178.1 273.2 182.5 273.2 C 182.8 273.1 182.0 273.1 181.2 273.1 C 182.0 273.0 184.1 273.0 183.7 272.8 C 182.6 272.8 182.4 272.8 182.4 272.8 C 182.4 272.8 182.4 272.8 182.4 272.8 Z M 79.4 275.0 C 84.5 274.7 72.1 274.2 79.4 275.0 C 79.4 275.0 79.4 275.0 79.4 275.0 C 79.4 275.0 79.4 275.0 79.4 275.0 Z M 90.1 277.8 C 90.3 277.9 91.4 277.8 91.4 277.8 C 95.7 277.9 91.5 278.0 94.0 278.1 C 97.4 277.9 92.1 277.7 96.6 277.6 C 95.7 277.4 92.7 277.8 90.1 277.8 C 90.1 277.8 90.1 277.8 90.1 277.8 Z M 671.4 245.8 C 667.8 245.9 666.6 246.1 665.7 246.4 C 668.1 246.4 670.1 246.4 670.8 246.5 C 675.5 246.4 667.9 246.4 667.2 246.3 C 667.9 246.1 671.2 246.1 671.4 245.8 C 671.4 245.8 671.4 245.8 671.4 245.8 Z M 659.6 245.9 C 658.0 246.0 655.6 246.1 655.4 246.3 C 657.7 246.3 657.9 246.4 657.9 246.5 C 660.0 246.3 657.6 246.2 659.6 245.9 C 659.6 245.9 659.6 245.9 659.6 245.9 Z M 681.6 246.1 C 679.9 246.2 680.4 246.3 680.0 246.5 C 682.4 246.4 682.7 246.5 685.1 246.5 C 685.2 246.5 685.3 246.4 685.4 246.3 C 683.3 246.3 683.1 246.4 681.4 246.4 C 681.4 246.3 681.5 246.2 681.6 246.1 C 681.6 246.1 681.6 246.1 681.6 246.1 Z M 647.7 246.2 C 640.8 246.2 637.4 246.6 632.7 246.9 C 637.7 246.9 642.6 246.4 646.0 246.5 C 650.4 246.5 644.7 246.4 644.9 246.3 C 645.1 246.2 646.6 246.2 647.7 246.2 C 647.7 246.2 647.7 246.2 647.7 246.2 Z M 587.6 246.2 C 586.3 246.0 583.6 246.4 579.7 246.4 C 580.4 246.4 581.0 246.5 580.9 246.6 C 586.5 246.7 583.4 246.2 587.6 246.2 C 587.6 246.2 587.6 246.2 587.6 246.2 Z M 555.0 246.4 C 551.6 246.4 556.7 246.5 554.8 246.7 C 558.6 246.7 562.7 246.7 562.7 246.5 C 558.6 246.6 557.7 246.6 555.0 246.4 C 555.0 246.4 555.0 246.4 555.0 246.4 Z M 531.5 246.4 C 527.6 246.5 533.0 246.7 531.2 246.9 C 532.8 246.9 532.4 246.8 532.6 246.7 C 533.7 246.7 534.7 246.8 536.5 246.8 C 535.3 246.6 530.8 246.6 531.5 246.4 C 531.5 246.4 531.5 246.4 531.5 246.4 Z M 696.4 278.0 C 698.6 278.0 697.7 277.7 702.6 277.8 C 695.2 277.8 698.6 277.0 689.1 277.2 C 690.7 277.2 689.8 277.4 689.2 277.2 C 685.7 277.4 692.7 277.4 689.5 277.6 C 692.2 277.6 690.4 277.3 693.0 277.3 C 696.1 277.6 697.8 277.7 696.4 278.0 C 696.4 278.0 696.4 278.0 696.4 278.0 Z M 688.9 276.9 C 686.1 276.8 686.6 277.3 685.1 277.1 C 683.8 277.1 684.2 277.2 684.0 277.2 C 685.0 277.2 685.2 277.3 685.3 277.3 C 687.5 277.2 689.7 277.2 688.9 276.9 C 688.9 276.9 688.9 276.9 688.9 276.9 Z M 713.5 276.9 C 709.2 277.0 707.8 276.9 705.8 277.1 C 704.0 276.7 703.1 277.2 700.5 276.9 C 696.3 277.0 699.5 277.1 700.8 277.2 C 696.7 277.3 699.5 277.0 695.5 277.1 C 695.0 277.4 700.2 277.3 699.8 277.6 C 703.0 277.6 702.8 277.4 704.8 277.3 C 706.3 277.3 706.0 277.5 706.3 277.6 C 709.9 277.5 709.8 277.7 712.8 277.6 C 713.4 277.4 712.0 277.3 708.7 277.4 C 711.9 277.3 713.3 277.1 717.0 277.2 C 717.0 277.0 717.0 276.8 717.0 276.5 C 717.2 279.8 717.3 265.2 716.9 266.3 C 716.9 270.2 717.1 269.2 717.2 270.8 C 717.0 273.4 717.0 275.5 716.9 277.2 C 715.5 277.1 714.4 277.1 713.5 276.9 C 713.5 276.9 713.5 276.9 713.5 276.9 Z M 682.2 246.9 C 681.1 246.9 680.2 246.8 678.4 246.9 C 678.4 246.6 680.7 246.7 678.7 246.5 C 675.9 246.5 675.2 246.6 673.4 246.6 C 674.3 246.7 679.9 247.0 676.8 247.1 C 677.6 247.2 679.4 247.2 681.8 247.3 C 679.3 246.9 685.8 247.2 688.4 247.3 C 688.5 246.9 692.9 247.3 695.0 247.1 C 693.7 246.9 688.2 247.1 685.9 247.1 C 687.1 247.1 679.9 246.6 682.2 246.9 C 682.2 246.9 682.2 246.9 682.2 246.9 Z M 678.6 277.1 C 678.0 277.1 675.1 277.2 677.4 277.2 C 676.4 277.3 673.8 277.2 675.2 277.6 C 673.8 277.6 672.5 277.6 671.3 277.6 C 671.6 277.4 675.2 277.5 673.6 277.2 C 671.1 277.4 672.0 277.2 668.4 277.2 C 670.1 277.0 668.1 277.0 669.2 276.7 C 668.3 276.8 665.1 276.8 665.6 277.0 C 660.6 276.9 666.6 276.7 660.1 276.7 C 660.0 276.5 664.7 276.5 666.4 276.6 C 667.1 276.4 658.3 276.5 653.4 276.4 C 657.9 276.6 654.7 276.9 652.7 277.1 C 651.1 277.0 652.6 276.9 649.8 276.8 C 647.6 276.7 646.6 276.9 645.9 276.8 C 644.1 276.8 645.0 277.0 644.9 277.1 C 641.8 277.0 643.8 276.7 639.4 276.8 C 643.0 277.1 639.3 277.2 633.3 277.1 C 633.7 277.2 635.7 277.2 636.0 277.3 C 635.3 277.5 631.6 277.2 630.6 277.1 C 628.5 277.1 630.0 277.3 632.0 277.2 C 630.8 277.3 629.6 277.4 628.3 277.5 C 634.8 277.5 645.0 277.4 657.2 277.8 C 654.7 277.6 657.3 277.5 661.0 277.6 C 661.6 277.8 660.1 277.8 658.4 277.8 C 662.9 278.1 662.1 277.4 668.7 277.6 C 672.3 277.7 664.9 277.8 669.0 278.0 C 671.3 277.9 672.8 277.7 674.2 278.0 C 678.2 277.8 679.1 277.5 685.6 277.6 C 681.8 277.4 679.6 276.9 675.9 277.0 C 676.0 277.1 677.6 277.1 678.6 277.1 C 678.6 277.1 678.6 277.1 678.6 277.1 Z M 657.8 246.6 C 655.5 246.6 654.2 246.8 653.8 246.6 C 649.8 246.7 654.1 246.9 654.8 246.9 C 656.7 246.9 657.4 246.8 657.8 246.6 C 657.8 246.6 657.8 246.6 657.8 246.6 Z M 261.7 246.6 C 256.7 246.5 257.8 246.8 253.9 246.9 C 257.1 246.9 257.9 247.1 263.1 247.1 C 263.3 246.9 263.2 246.7 261.7 246.6 C 261.7 246.6 261.7 246.6 261.7 246.6 Z M 670.6 246.8 C 674.0 246.5 666.5 247.1 666.7 246.9 C 662.9 247.0 670.0 247.0 666.4 247.3 C 669.7 247.1 671.4 247.3 675.4 247.2 C 675.5 247.0 672.3 247.0 669.1 247.0 C 668.8 246.9 670.5 246.9 670.6 246.8 C 670.6 246.8 670.6 246.8 670.6 246.8 Z M 312.6 247.3 C 316.0 247.1 309.4 246.8 307.3 246.7 C 307.3 247.0 308.3 247.0 312.6 247.3 C 312.6 247.3 312.6 247.3 312.6 247.3 Z M 227.9 247.0 C 226.2 247.3 233.8 247.0 232.0 247.3 C 234.3 247.4 234.5 247.3 234.6 247.2 C 235.8 247.3 239.4 247.2 238.5 247.4 C 239.2 247.6 232.7 247.4 234.8 247.7 C 232.7 247.7 232.5 247.6 230.9 247.6 C 234.7 247.6 232.8 247.3 228.1 247.3 C 228.1 247.5 230.3 247.4 228.2 247.6 C 227.9 247.5 225.4 247.3 225.4 246.9 C 221.3 247.0 223.9 247.4 219.1 247.3 C 219.5 247.5 222.6 247.5 224.4 247.6 C 224.0 247.8 219.2 247.4 220.5 247.7 C 219.4 247.5 216.6 247.4 216.4 247.2 C 220.0 247.1 222.3 246.9 225.3 246.8 C 222.4 246.6 218.6 247.2 213.7 246.9 C 214.3 247.1 211.4 247.1 212.5 247.3 C 208.7 247.3 210.3 247.0 211.0 246.9 C 209.9 246.8 202.6 246.9 203.3 247.1 C 202.6 246.9 193.8 247.0 194.3 247.3 C 191.6 247.1 187.7 247.4 186.4 247.1 C 184.9 247.2 181.9 247.2 178.6 247.2 C 177.8 247.4 183.5 247.3 183.9 247.5 C 185.1 247.7 177.8 247.4 178.8 247.7 C 178.9 247.7 178.9 247.8 178.9 247.8 C 181.5 247.7 184.2 247.7 186.6 247.6 C 188.6 247.6 186.2 247.7 186.8 247.8 C 188.5 247.7 196.7 247.4 197.2 247.8 C 202.7 247.7 206.6 247.8 208.8 247.6 C 212.1 247.6 207.0 247.7 209.0 247.9 C 218.6 247.6 230.6 248.0 238.6 247.6 C 240.4 247.6 239.8 247.8 240.1 247.9 C 251.2 247.7 241.5 247.4 250.3 247.5 C 250.4 247.7 246.2 247.7 246.6 247.9 C 249.6 247.9 250.3 247.8 254.4 247.8 C 254.3 247.7 254.3 247.6 254.3 247.5 C 257.6 247.5 256.4 247.8 258.2 247.9 C 262.3 247.8 261.3 247.7 263.4 248.0 C 267.3 247.9 271.1 247.8 275.2 247.9 C 277.8 247.7 272.6 247.4 268.4 247.3 C 268.6 247.3 269.8 247.3 269.7 247.2 C 274.6 247.4 275.5 247.8 282.9 247.9 C 277.2 247.6 285.8 247.8 286.8 248.0 C 289.8 248.0 287.5 247.6 285.5 247.7 C 285.8 247.5 287.7 247.6 288.0 247.7 C 288.3 247.4 281.2 247.2 273.7 247.3 C 277.0 246.9 268.4 247.4 272.2 246.9 C 266.1 246.9 271.4 247.2 264.5 247.2 C 265.2 247.3 266.5 247.4 267.2 247.5 C 262.0 247.6 263.4 247.2 258.0 247.3 C 257.2 247.5 260.7 247.4 260.7 247.6 C 254.7 247.3 252.8 247.3 248.8 247.0 C 248.1 247.2 249.2 247.4 242.4 247.3 C 242.4 247.2 242.3 247.1 242.3 247.1 C 245.5 247.1 246.1 246.7 238.2 246.7 C 237.8 246.9 240.2 246.8 242.2 246.9 C 241.4 247.0 238.9 247.1 235.8 247.1 C 234.3 247.1 232.5 247.0 234.5 246.9 C 233.2 246.7 232.2 247.1 227.9 247.0 C 227.9 247.0 227.9 247.0 227.9 247.0 Z M 593.8 246.8 C 592.7 246.8 591.7 246.9 589.8 246.9 C 588.8 247.1 592.3 247.0 592.2 247.2 C 595.0 247.2 593.1 246.9 593.8 246.8 C 593.8 246.8 593.8 246.8 593.8 246.8 Z M 630.1 246.9 C 630.0 246.7 627.8 247.0 624.9 246.9 C 623.8 247.2 627.4 247.1 627.3 247.3 C 630.8 247.3 626.7 246.9 630.1 246.9 C 630.1 246.9 630.1 246.9 630.1 246.9 Z M 614.5 246.9 C 613.2 246.7 613.0 247.1 615.8 247.0 C 615.5 247.2 614.7 247.3 612.9 247.3 C 614.6 247.6 616.2 247.2 619.4 247.3 C 618.4 247.1 616.7 247.0 614.5 246.9 C 614.5 246.9 614.5 246.9 614.5 246.9 Z M 609.3 246.9 C 607.3 247.1 606.1 246.9 602.7 247.0 C 603.4 247.2 610.7 247.1 611.9 247.0 C 613.2 246.8 605.4 246.8 609.3 246.9 C 609.3 246.9 609.3 246.9 609.3 246.9 Z M 364.6 247.6 C 363.3 247.6 363.6 247.7 363.4 247.7 C 359.3 247.4 353.7 247.4 358.1 247.1 C 354.0 247.3 350.0 247.0 346.4 246.9 C 343.4 246.9 344.9 247.2 342.5 247.2 C 338.7 247.1 344.6 247.1 343.8 246.9 C 343.0 246.7 341.9 247.2 337.3 247.0 C 338.6 247.4 333.4 247.0 334.8 247.4 C 332.3 247.3 331.5 247.4 328.2 247.4 C 328.6 247.6 331.8 247.6 332.2 247.7 C 333.9 248.0 334.0 247.5 330.9 247.6 C 332.7 247.3 337.3 247.7 338.6 247.5 C 340.3 247.8 334.5 247.6 336.1 247.8 C 337.3 247.8 338.4 247.7 338.7 247.7 C 340.6 247.7 341.8 247.8 342.6 247.9 C 341.5 247.9 341.3 247.9 341.3 247.8 C 338.9 247.8 343.8 248.2 338.7 248.2 C 339.6 248.3 341.8 248.3 341.4 248.5 C 342.9 248.6 341.3 247.8 346.5 248.1 C 349.9 247.8 338.4 247.8 341.3 247.3 C 348.5 247.4 344.5 247.8 350.3 247.8 C 350.3 247.7 350.2 247.6 351.7 247.6 C 351.4 247.5 349.3 247.5 347.8 247.5 C 348.0 247.4 350.2 247.4 351.7 247.4 C 351.4 247.3 350.3 247.3 350.3 247.3 C 355.2 247.4 354.8 247.8 350.3 248.0 C 350.5 248.2 356.5 248.2 358.2 248.1 C 356.5 247.9 358.3 247.9 356.9 247.7 C 355.6 247.7 355.9 247.8 355.5 247.8 C 353.2 247.8 355.4 247.7 355.5 247.6 C 358.2 247.6 358.0 247.8 360.7 247.7 C 360.1 247.7 359.4 247.8 359.4 247.9 C 360.7 247.9 362.1 247.9 363.4 247.9 C 363.2 247.8 364.9 247.7 364.6 247.6 C 364.6 247.6 364.6 247.6 364.6 247.6 Z M 297.0 246.9 C 292.6 246.9 295.0 247.1 297.0 247.1 C 296.1 247.2 294.6 247.2 293.1 247.3 C 294.4 247.3 295.5 247.3 299.6 247.3 C 296.1 247.7 299.9 248.1 306.3 248.1 C 308.1 247.6 302.7 247.5 304.8 247.3 C 300.1 247.4 297.5 247.2 297.0 246.9 C 297.0 246.9 297.0 246.9 297.0 246.9 Z M 654.8 247.0 C 652.2 247.0 649.6 247.0 647.0 247.0 C 647.1 247.2 655.1 247.4 654.8 247.0 C 654.8 247.0 654.8 247.0 654.8 247.0 Z M 623.0 277.2 C 621.8 277.2 621.7 277.1 621.5 277.1 C 617.8 277.1 623.5 277.3 621.9 277.5 C 623.2 277.5 624.5 277.5 625.8 277.5 C 625.9 277.4 620.3 277.2 624.2 277.2 C 623.9 277.1 622.9 277.1 623.0 277.2 C 623.0 277.2 623.0 277.2 623.0 277.2 Z M 596.2 247.1 C 593.8 247.2 595.1 247.5 589.4 247.4 C 591.3 247.6 592.6 247.5 596.0 247.5 C 596.1 247.4 596.1 247.2 596.2 247.1 C 596.2 247.1 596.2 247.1 596.2 247.1 Z M 384.1 247.2 C 380.8 246.9 379.9 247.5 373.7 247.3 C 376.9 247.7 380.5 247.3 384.1 247.2 C 384.1 247.2 384.1 247.2 384.1 247.2 Z M 168.4 247.6 C 170.4 247.7 168.0 247.7 171.2 247.8 C 172.9 247.7 173.6 247.6 176.3 247.6 C 172.4 247.3 166.0 247.6 163.1 247.2 C 159.9 247.2 160.4 247.5 159.5 247.7 C 161.0 247.6 161.8 247.7 162.0 247.7 C 163.7 247.4 166.4 248.0 168.4 247.6 C 168.4 247.6 168.4 247.6 168.4 247.6 Z M 313.9 247.3 C 316.3 247.5 312.3 247.6 311.4 247.7 C 309.7 247.7 310.3 247.5 310.0 247.4 C 307.7 247.4 307.1 247.6 307.5 247.7 C 311.8 247.8 317.2 247.8 314.0 248.1 C 318.2 248.2 315.9 247.9 317.9 247.8 C 320.2 248.0 318.1 248.0 318.0 248.3 C 319.0 248.2 322.1 248.0 321.9 248.3 C 328.1 248.0 325.2 247.6 320.5 247.2 C 316.3 247.4 321.2 247.5 313.9 247.3 C 313.9 247.3 313.9 247.3 313.9 247.3 Z M 479.0 247.6 C 478.6 247.5 476.4 247.5 476.4 247.4 C 473.5 247.6 471.1 247.9 468.5 248.1 C 468.9 248.4 472.5 248.1 471.0 248.0 C 472.1 248.1 474.6 248.2 476.1 248.4 C 478.7 248.4 479.8 247.9 480.0 248.3 C 482.6 248.1 481.1 248.1 485.3 248.2 C 478.8 248.0 487.6 248.1 488.0 247.8 C 484.2 247.8 481.0 247.8 481.4 248.1 C 478.6 248.0 475.6 247.9 475.0 247.7 C 475.3 247.6 477.5 247.6 479.0 247.6 C 479.0 247.6 479.0 247.6 479.0 247.6 Z M 463.2 248.3 C 464.3 248.3 465.3 248.2 467.0 248.2 C 466.1 248.1 465.7 248.0 465.9 247.9 C 462.6 247.9 461.8 248.1 460.7 247.8 C 457.7 247.8 461.4 248.2 456.7 248.1 C 457.1 248.1 459.4 248.1 459.3 248.2 C 459.8 248.0 461.7 248.0 463.2 248.3 C 463.2 248.3 463.2 248.3 463.2 248.3 Z M 423.1 247.8 C 419.7 247.8 424.9 248.0 423.1 248.1 C 423.9 248.1 430.4 248.2 429.5 248.4 C 431.3 248.7 438.0 248.0 437.3 248.5 C 438.8 248.4 438.3 248.3 438.6 248.2 C 434.0 248.3 434.1 248.1 437.4 248.1 C 436.9 247.9 434.1 248.0 432.2 248.0 C 431.9 248.1 433.7 248.1 433.4 248.3 C 429.5 248.2 426.6 248.0 423.1 247.8 C 423.1 247.8 423.1 247.8 423.1 247.8 Z M 481.3 276.7 C 484.4 276.7 486.2 276.7 487.7 276.6 C 486.7 276.5 485.3 276.6 483.8 276.6 C 483.3 276.5 484.7 276.4 486.3 276.4 C 484.7 276.2 479.4 276.4 481.3 276.7 C 481.3 276.7 481.3 276.7 481.3 276.7 Z M 507.2 276.7 C 510.1 276.7 512.0 276.7 512.3 276.5 C 511.0 276.4 511.6 276.6 509.7 276.6 C 508.5 276.5 507.7 276.4 507.0 276.4 C 505.7 276.4 506.0 276.4 505.7 276.5 C 504.7 276.5 504.5 276.5 504.4 276.4 C 501.0 276.7 508.5 276.4 507.2 276.7 C 507.2 276.7 507.2 276.7 507.2 276.7 Z M 445.1 248.0 C 446.2 248.1 447.1 248.2 450.2 248.2 C 449.6 248.0 452.2 248.1 454.2 248.1 C 451.2 247.9 449.7 248.0 445.1 248.0 C 445.1 248.0 445.1 248.0 445.1 248.0 Z M 669.0 276.5 C 673.1 276.7 672.4 276.3 678.1 276.5 C 678.0 276.4 678.0 276.4 677.9 276.3 C 674.7 276.5 673.0 276.3 669.0 276.5 C 669.0 276.5 669.0 276.5 669.0 276.5 Z M 134.0 276.5 C 134.3 276.3 130.3 276.4 130.0 276.3 C 129.3 276.7 127.2 276.0 119.7 276.1 C 119.5 276.0 120.0 276.0 121.0 275.9 C 114.8 275.9 122.8 276.2 123.6 276.4 C 128.4 276.4 129.2 276.6 134.0 276.5 C 134.0 276.5 134.0 276.5 134.0 276.5 Z M 207.8 248.3 C 208.0 248.2 207.2 248.2 206.5 248.2 C 205.6 248.2 204.7 248.2 203.9 248.2 C 204.4 248.5 208.7 248.7 205.6 249.0 C 206.7 249.0 206.8 249.0 206.8 248.9 C 212.8 248.2 218.3 249.4 226.3 248.9 C 227.5 248.9 227.2 248.8 227.4 248.8 C 226.4 248.8 226.3 248.7 226.1 248.7 C 225.3 249.0 217.7 248.7 220.9 248.5 C 220.6 248.4 219.6 248.5 219.6 248.5 C 218.8 248.5 217.9 248.5 217.0 248.5 C 217.5 248.6 219.3 248.7 219.7 248.8 C 215.5 248.7 210.4 248.6 213.0 248.3 C 210.4 248.3 209.6 248.5 207.9 248.5 C 206.2 248.5 206.1 248.3 207.8 248.3 C 207.8 248.3 207.8 248.3 207.8 248.3 Z M 174.2 248.4 C 170.1 248.3 171.8 248.6 167.7 248.5 C 170.4 248.7 173.3 248.4 176.9 248.6 C 176.3 248.5 174.5 248.5 174.2 248.4 C 174.2 248.4 174.2 248.4 174.2 248.4 Z M 249.4 248.7 C 248.7 249.0 252.3 249.0 256.1 249.0 C 256.7 248.7 253.3 248.7 249.4 248.7 C 249.4 248.7 249.4 248.7 249.4 248.7 Z M 232.6 248.7 C 228.8 248.8 237.4 248.8 235.4 249.0 C 237.1 249.0 239.0 249.0 239.2 249.1 C 240.6 249.0 240.5 248.9 243.0 248.9 C 242.8 248.8 238.7 248.9 239.0 248.7 C 236.2 248.9 235.7 248.9 232.6 248.7 C 232.6 248.7 232.6 248.7 232.6 248.7 Z M 230.1 248.7 C 227.6 248.8 230.9 249.2 234.1 249.2 C 232.8 249.0 232.0 248.8 230.1 248.7 C 230.1 248.7 230.1 248.7 230.1 248.7 Z M 532.9 248.8 C 531.1 248.8 532.4 249.0 530.3 249.0 C 530.2 249.1 537.9 249.1 531.5 249.2 C 533.7 249.5 535.2 249.0 538.1 249.1 C 537.2 249.0 536.5 249.0 538.1 248.9 C 539.1 248.7 531.9 249.0 532.9 248.8 C 532.9 248.8 532.9 248.8 532.9 248.8 Z M 525.2 248.8 C 523.7 248.8 524.4 248.9 525.2 248.9 C 524.9 248.9 522.7 248.9 521.2 248.9 C 521.2 248.8 523.8 249.3 523.6 249.5 C 530.3 249.3 525.3 249.0 525.2 248.8 C 525.2 248.8 525.2 248.8 525.2 248.8 Z M 518.7 248.9 C 514.5 248.7 508.5 248.8 505.7 249.0 C 508.6 249.4 516.6 249.2 518.7 248.9 C 518.7 248.9 518.7 248.9 518.7 248.9 Z M 561.3 249.0 C 553.8 248.7 538.3 249.1 552.1 249.3 C 551.6 249.2 560.8 249.0 565.1 249.2 C 565.3 249.1 570.3 248.9 570.4 249.0 C 573.9 248.8 559.7 248.8 561.3 249.0 C 561.3 249.0 561.3 249.0 561.3 249.0 Z M 500.3 249.5 C 502.5 249.4 499.9 248.9 503.1 249.1 C 505.0 249.1 502.7 249.0 503.2 248.9 C 499.2 248.9 490.9 249.1 490.2 248.9 C 488.2 248.9 487.5 249.1 483.7 249.1 C 483.5 249.2 497.5 248.9 500.4 249.3 C 500.1 249.4 495.0 249.5 500.3 249.5 C 500.3 249.5 500.3 249.5 500.3 249.5 Z M 667.7 275.1 C 667.5 275.3 672.8 275.1 671.9 275.4 C 674.5 275.1 677.5 275.3 680.5 275.1 C 681.6 275.1 681.6 275.5 686.2 275.6 C 686.1 275.3 683.9 275.4 685.9 275.2 C 690.0 275.2 689.1 275.5 693.8 275.4 C 692.7 275.0 703.8 275.3 702.4 274.9 C 699.9 274.9 700.3 275.1 696.0 275.1 C 694.6 275.0 695.1 274.9 693.4 274.9 C 694.4 274.7 696.9 275.0 698.5 274.8 C 697.9 274.7 694.8 274.7 694.2 274.5 C 692.4 274.5 694.8 274.6 694.5 274.8 C 689.5 274.8 694.3 274.2 688.8 274.3 C 690.2 274.5 690.2 274.5 689.3 274.8 C 687.1 274.6 680.5 274.8 683.9 274.5 C 683.4 274.3 679.6 274.6 680.2 274.8 C 678.1 274.8 677.8 274.7 677.6 274.6 C 672.1 274.7 671.6 274.9 672.9 275.2 C 672.0 275.4 670.9 275.0 667.7 275.1 C 667.7 275.1 667.7 275.1 667.7 275.1 Z M 602.6 249.1 C 605.8 248.9 599.2 249.2 596.2 249.1 C 599.8 249.1 598.5 249.5 602.4 249.5 C 601.0 249.4 601.3 249.3 603.9 249.3 C 604.6 249.2 598.9 249.1 602.6 249.1 C 602.6 249.1 602.6 249.1 602.6 249.1 Z M 475.9 249.1 C 474.6 248.9 467.8 249.1 464.3 249.0 C 464.8 249.4 473.6 248.9 474.6 249.3 C 476.6 249.2 473.5 249.1 475.9 249.1 C 475.9 249.1 475.9 249.1 475.9 249.1 Z M 715.2 273.4 C 715.1 272.0 715.1 272.7 715.1 273.3 C 715.0 272.9 715.0 270.2 715.0 268.2 C 714.8 270.9 714.8 267.5 714.5 268.0 C 714.5 266.6 714.5 265.8 714.4 265.6 C 714.9 265.6 714.2 258.0 714.1 265.5 C 714.4 264.2 714.3 264.8 714.4 268.0 C 714.3 270.8 714.4 273.3 714.3 274.5 C 714.0 274.5 713.8 274.5 713.6 274.4 C 711.2 274.5 710.4 274.6 707.3 274.6 C 706.3 274.4 703.3 274.3 705.4 274.0 C 699.7 274.0 704.1 274.5 699.5 274.6 C 694.9 274.4 701.5 274.3 700.3 274.1 C 699.1 274.1 699.3 274.0 698.9 274.0 C 697.2 274.0 697.5 274.2 699.1 274.2 C 698.7 274.3 694.3 274.5 695.3 274.2 C 692.8 274.3 700.1 274.9 703.5 274.7 C 705.6 274.6 706.0 275.1 703.9 275.1 C 704.8 275.3 708.6 274.7 707.9 275.2 C 709.7 275.2 711.3 275.2 713.1 275.2 C 712.8 275.2 711.8 275.2 711.7 275.1 C 712.7 275.1 713.8 275.1 714.8 275.1 C 714.8 274.4 714.8 273.8 714.8 273.1 C 715.0 274.7 715.0 274.8 715.2 273.4 C 715.2 273.4 715.2 273.4 715.2 273.4 Z M 492.8 249.2 C 489.5 249.2 488.7 249.3 486.2 249.3 C 487.1 249.5 494.2 249.4 492.8 249.2 C 492.8 249.2 492.8 249.2 492.8 249.2 Z M 645.0 274.4 C 645.4 274.4 647.7 274.4 647.8 274.5 C 643.8 274.6 648.5 274.7 645.7 275.2 C 650.7 274.9 651.9 274.4 644.8 274.2 C 639.8 274.2 650.1 274.3 645.0 274.4 C 645.0 274.4 645.0 274.4 645.0 274.4 Z M 660.7 274.5 C 663.8 274.4 655.7 274.3 653.9 274.2 C 653.8 274.1 653.8 274.0 653.7 274.0 C 649.6 274.3 655.6 274.4 652.0 274.9 C 657.2 275.0 659.4 275.1 663.7 275.0 C 663.4 274.9 662.4 274.9 662.4 275.0 C 659.1 275.0 661.1 274.6 664.7 274.8 C 663.6 274.6 660.5 274.6 658.2 274.6 C 658.9 274.7 659.7 274.7 659.6 274.8 C 656.9 274.9 657.7 274.7 655.7 274.7 C 655.6 274.6 660.5 274.4 660.7 274.5 C 660.7 274.5 660.7 274.5 660.7 274.5 Z M 406.4 274.9 C 409.1 274.9 403.5 274.6 403.5 274.2 C 400.7 274.2 400.2 274.2 398.4 274.3 C 399.4 274.4 402.4 274.5 403.7 274.6 C 403.4 274.9 399.7 274.5 398.7 274.8 C 397.2 275.1 405.1 274.6 406.4 274.9 C 406.4 274.9 406.4 274.9 406.4 274.9 Z M 678.5 249.6 C 677.1 249.6 677.8 249.7 678.4 249.7 C 678.1 249.8 675.8 249.7 675.9 249.7 C 673.9 249.7 676.9 249.8 674.5 249.8 C 673.9 250.0 678.2 249.8 678.3 249.7 C 681.3 249.7 678.7 250.0 679.4 250.1 C 681.9 250.1 681.2 249.9 684.7 250.0 C 682.7 249.8 680.9 249.7 678.5 249.6 C 678.5 249.6 678.5 249.6 678.5 249.6 Z M 636.5 274.8 C 636.1 274.9 639.2 274.5 642.8 274.7 C 647.3 274.7 639.7 274.4 643.8 274.4 C 640.4 274.4 636.4 274.6 631.1 274.6 C 630.0 274.7 638.4 274.6 633.7 274.8 C 634.1 274.8 635.2 274.8 635.1 274.8 C 636.1 274.7 636.3 274.8 636.5 274.8 C 636.5 274.8 636.5 274.8 636.5 274.8 Z M 641.1 274.3 C 640.8 274.2 639.7 274.2 639.7 274.3 C 638.1 274.3 637.9 274.0 639.5 274.0 C 637.1 273.7 637.7 274.3 633.2 274.1 C 635.3 274.3 636.3 274.5 632.1 274.3 C 629.0 274.5 639.8 274.4 641.1 274.3 C 641.1 274.3 641.1 274.3 641.1 274.3 Z M 447.7 274.8 C 447.2 274.6 444.5 274.7 442.5 274.7 C 444.9 274.5 455.4 274.6 456.7 274.8 C 457.8 274.7 459.0 274.7 459.4 274.8 C 459.2 274.7 462.0 274.6 460.5 274.5 C 460.7 274.4 463.0 274.5 462.9 274.3 C 466.9 274.4 461.9 274.5 463.1 274.7 C 467.6 274.4 466.7 274.6 472.2 274.7 C 471.2 274.4 465.2 274.5 465.5 274.2 C 461.3 274.5 456.6 274.3 453.8 274.0 C 458.0 274.4 443.0 274.6 435.9 274.5 C 436.1 274.4 433.6 274.4 430.6 274.3 C 428.5 274.0 429.4 274.6 433.3 274.4 C 433.2 274.6 427.9 274.5 425.6 274.5 C 428.3 274.6 426.9 274.8 428.3 274.8 C 433.4 274.8 428.8 274.8 429.6 274.6 C 430.8 274.6 432.1 274.6 433.5 274.6 C 426.9 275.0 443.3 274.6 437.3 274.7 C 442.6 274.6 442.9 274.9 447.7 274.8 C 447.7 274.8 447.7 274.8 447.7 274.8 Z M 569.2 274.8 C 570.0 274.8 574.1 274.6 574.4 274.8 C 579.5 274.6 574.7 274.4 580.6 274.4 C 580.1 274.3 577.9 274.4 577.8 274.3 C 575.6 274.3 573.4 274.4 574.2 274.7 C 571.6 274.6 570.9 274.7 569.1 274.8 C 569.7 274.7 570.6 274.6 572.9 274.6 C 573.1 274.4 572.1 274.2 568.7 274.3 C 567.4 274.5 568.5 274.7 569.2 274.8 C 569.2 274.8 569.2 274.8 569.2 274.8 Z M 581.9 274.5 C 582.6 274.6 583.4 274.6 583.4 274.8 C 585.5 275.0 583.9 274.4 585.7 274.4 C 587.3 274.4 586.9 274.6 587.2 274.7 C 589.4 274.6 591.2 274.6 592.4 274.7 C 595.8 274.5 588.2 274.5 586.9 274.4 C 584.4 274.4 585.5 274.6 581.9 274.5 C 581.9 274.5 581.9 274.5 581.9 274.5 Z M 620.9 274.8 C 621.7 275.0 622.8 274.6 624.6 274.7 C 623.2 274.4 619.5 274.6 621.7 274.3 C 617.9 274.2 617.7 274.2 613.9 274.3 C 611.4 274.1 614.0 274.5 617.9 274.4 C 617.5 274.5 615.8 274.5 615.6 274.6 C 612.7 274.1 606.8 274.9 610.4 274.5 C 611.5 274.6 612.4 274.7 613.1 274.8 C 613.8 274.5 622.7 274.7 620.9 274.8 C 620.9 274.8 620.9 274.8 620.9 274.8 Z M 705.2 250.1 C 710.0 250.0 710.4 250.0 714.3 250.0 C 714.3 250.4 714.3 250.8 714.3 251.2 C 714.2 251.4 714.1 251.1 714.1 250.2 C 714.0 251.3 714.1 252.8 714.1 254.8 C 714.2 254.6 714.2 253.6 714.1 253.7 C 714.3 249.7 714.3 253.0 714.5 253.4 C 714.6 252.1 714.6 250.9 714.6 249.8 C 711.2 249.8 708.2 250.0 706.8 249.7 C 704.8 249.8 707.1 249.9 705.2 250.1 C 705.2 250.1 705.2 250.1 705.2 250.1 Z M 138.9 274.5 C 138.1 274.6 136.0 274.6 136.4 274.8 C 138.3 274.7 139.6 274.6 141.5 274.6 C 137.9 274.5 138.3 274.2 133.6 274.2 C 135.2 274.3 134.8 274.5 138.9 274.5 C 138.9 274.5 138.9 274.5 138.9 274.5 Z M 607.9 274.7 C 607.6 274.6 607.4 274.4 608.9 274.4 C 609.3 274.2 605.2 274.3 604.9 274.2 C 603.6 274.2 604.2 274.3 602.4 274.4 C 603.2 274.5 606.5 274.4 605.3 274.7 C 604.2 274.7 604.0 274.6 603.9 274.6 C 601.3 274.7 605.4 274.8 607.9 274.7 C 607.9 274.7 607.9 274.7 607.9 274.7 Z M 393.5 274.7 C 395.2 274.6 393.4 274.5 392.0 274.5 C 395.6 274.3 389.5 274.1 389.1 273.9 C 390.9 274.1 396.0 274.0 396.9 274.0 C 398.4 274.0 396.5 273.8 400.6 273.7 C 400.0 273.5 395.6 273.7 396.8 273.9 C 395.5 273.6 391.3 273.9 391.5 273.6 C 385.7 273.6 384.4 273.8 384.1 274.0 C 389.7 273.9 387.0 274.3 391.9 274.3 C 391.9 274.3 390.4 274.3 389.4 274.4 C 389.9 274.5 392.0 274.6 393.5 274.7 C 393.5 274.7 393.5 274.7 393.5 274.7 Z M 527.7 274.7 C 530.6 274.7 530.4 274.5 530.1 274.3 C 529.0 274.3 527.3 274.4 525.0 274.4 C 525.6 274.5 529.1 274.4 527.7 274.7 C 527.7 274.7 527.7 274.7 527.7 274.7 Z M 413.9 274.4 C 414.2 274.4 415.2 274.4 415.2 274.4 C 418.5 274.3 419.3 274.5 420.5 274.6 C 422.2 274.6 421.5 274.4 421.6 274.3 C 418.7 274.5 419.1 274.2 415.1 274.2 C 415.4 274.3 414.9 274.3 413.9 274.4 C 413.9 274.4 413.9 274.4 413.9 274.4 Z M 500.6 274.5 C 502.1 274.5 501.2 274.4 500.5 274.4 C 502.1 274.2 507.5 274.4 509.4 274.3 C 509.6 274.1 503.0 274.1 510.5 274.0 C 509.0 273.8 502.3 274.0 498.9 274.0 C 499.5 273.7 504.2 273.7 503.7 273.5 C 499.8 273.6 495.5 273.7 495.1 274.1 C 500.9 274.1 499.1 274.4 500.6 274.5 C 500.6 274.5 500.6 274.5 500.6 274.5 Z M 494.0 274.4 C 494.6 274.5 495.6 274.3 497.8 274.4 C 494.4 274.1 492.6 274.2 486.1 274.1 C 486.1 274.2 486.1 274.2 486.2 274.3 C 484.9 274.3 483.5 274.3 482.3 274.3 C 488.1 274.5 489.4 274.4 495.2 274.3 C 495.5 274.3 494.8 274.3 494.0 274.4 C 494.0 274.4 494.0 274.4 494.0 274.4 Z M 667.0 274.4 C 665.1 274.2 663.5 274.1 660.3 274.0 C 660.8 274.3 662.8 274.4 667.0 274.4 C 667.0 274.4 667.0 274.4 667.0 274.4 Z M 408.7 274.2 C 405.2 274.3 412.1 274.2 409.8 274.0 C 407.0 273.9 403.9 273.8 403.2 273.6 C 398.2 273.9 409.1 273.9 408.7 274.2 C 408.7 274.2 408.7 274.2 408.7 274.2 Z M 431.5 273.6 C 433.1 273.7 433.3 274.0 431.6 273.8 C 428.0 273.8 434.9 274.0 429.2 274.0 C 431.6 274.1 437.1 274.2 439.6 274.0 C 439.3 273.8 434.5 273.9 434.2 273.7 C 433.9 273.6 434.7 273.6 435.4 273.6 C 434.9 273.5 433.8 273.7 431.5 273.6 C 431.5 273.6 431.5 273.6 431.5 273.6 Z M 451.1 274.0 C 448.9 273.9 446.3 273.8 441.9 273.8 C 444.9 274.0 446.7 274.2 451.1 274.0 C 451.1 274.0 451.1 274.0 451.1 274.0 Z M 207.2 273.7 C 210.3 273.7 207.5 273.4 207.1 273.4 C 203.9 273.4 204.2 273.5 200.6 273.5 C 201.8 273.8 205.1 273.4 207.2 273.7 C 207.2 273.7 207.2 273.7 207.2 273.7 Z M 195.6 273.5 C 195.1 273.4 190.6 273.5 190.3 273.3 C 187.8 273.8 183.6 273.0 183.8 273.4 C 182.8 273.3 181.8 273.3 179.9 273.3 C 183.6 273.7 191.7 273.6 195.6 273.5 C 195.6 273.5 195.6 273.5 195.6 273.5 Z M 472.9 273.5 C 476.3 273.6 471.6 273.2 475.2 273.2 C 475.3 273.1 468.5 273.1 472.5 273.0 C 467.1 272.8 473.2 273.5 472.9 273.5 C 472.9 273.5 472.9 273.5 472.9 273.5 Z M 535.8 273.3 C 535.7 273.5 540.4 273.3 542.3 273.4 C 542.2 273.3 540.7 273.3 539.7 273.3 C 540.2 273.2 540.7 273.2 542.1 273.2 C 541.0 273.0 537.7 273.3 535.8 273.3 C 535.8 273.3 535.8 273.3 535.8 273.3 Z M 469.0 277.7 C 466.7 277.5 463.8 277.3 462.5 277.6 C 460.1 277.4 463.8 277.4 460.9 277.2 C 457.3 277.4 459.0 277.1 453.1 277.2 C 454.0 276.9 449.8 276.9 448.9 276.8 C 451.3 276.7 454.5 277.0 455.5 276.8 C 453.4 276.8 454.4 276.5 455.4 276.7 C 459.4 276.8 450.8 277.0 455.7 277.2 C 456.9 276.8 464.2 277.4 468.8 277.4 C 467.1 277.6 472.4 277.7 469.0 277.7 C 469.0 277.7 469.0 277.7 469.0 277.7 Z M 445.4 277.2 C 442.2 277.2 440.3 276.7 441.2 276.8 C 441.2 276.9 444.8 276.9 445.1 276.8 C 444.2 276.7 443.4 276.7 443.7 276.7 C 449.5 276.7 447.6 276.9 449.1 277.1 C 446.0 277.2 445.0 277.0 443.9 277.2 C 444.7 277.2 445.5 277.2 445.4 277.2 C 445.4 277.2 445.4 277.2 445.4 277.2 Z M 374.6 273.2 C 375.3 273.4 376.0 273.2 377.2 273.2 C 377.6 273.5 383.9 273.0 384.9 273.2 C 383.5 273.3 380.1 273.4 378.6 273.5 C 380.4 273.5 380.8 273.6 382.5 273.5 C 382.3 273.7 378.5 273.7 377.6 273.9 C 377.1 273.7 375.4 273.9 374.9 273.8 C 379.8 273.7 371.7 273.2 374.6 273.2 C 374.6 273.2 374.6 273.2 374.6 273.2 Z M 502.2 273.2 C 502.5 273.0 496.6 272.4 501.4 272.1 C 502.7 272.3 503.5 272.5 503.3 272.8 C 506.3 272.7 507.9 272.9 509.6 272.7 C 516.0 273.4 505.0 272.6 502.2 273.2 C 502.2 273.2 502.2 273.2 502.2 273.2 Z M 522.8 273.0 C 521.8 273.2 524.7 273.2 524.3 273.4 C 521.7 273.2 513.8 273.5 516.4 273.3 C 519.0 273.2 518.9 273.0 522.8 273.0 C 522.8 273.0 522.8 273.0 522.8 273.0 Z M 399.6 249.4 C 403.7 249.2 405.8 249.7 403.4 249.8 C 404.5 249.5 398.2 249.7 399.6 249.4 C 399.6 249.4 399.6 249.4 399.6 249.4 Z M 551.5 245.6 C 547.7 245.4 545.5 245.6 545.1 245.3 C 548.8 245.3 548.3 245.4 551.6 245.4 C 551.8 245.3 553.8 245.2 554.1 245.3 C 552.3 245.4 552.6 245.5 551.5 245.6 C 551.5 245.6 551.5 245.6 551.5 245.6 Z M 606.0 278.7 C 606.5 278.8 608.1 278.8 607.6 279.0 C 603.6 278.9 599.3 279.1 596.1 279.2 C 596.0 279.1 595.9 279.0 595.8 278.9 C 602.1 279.0 603.6 278.8 606.0 278.7 C 606.0 278.7 606.0 278.7 606.0 278.7 Z M 614.3 279.2 C 614.8 279.0 612.4 278.7 615.2 278.8 C 615.2 278.9 620.4 279.2 618.2 279.2 C 617.3 279.1 616.0 279.1 614.3 279.2 C 614.3 279.2 614.3 279.2 614.3 279.2 Z M 395.1 277.9 C 392.0 277.9 396.7 278.1 396.6 278.2 C 394.3 278.1 391.1 278.2 390.0 278.0 C 392.3 278.1 393.8 277.7 395.1 277.9 C 395.1 277.9 395.1 277.9 395.1 277.9 Z M 442.8 277.3 C 449.5 277.3 446.8 277.7 453.4 277.8 C 450.9 278.0 444.9 277.9 443.3 278.1 C 443.4 278.0 441.8 277.9 441.8 277.8 C 444.2 277.8 444.6 277.9 447.0 277.9 C 446.0 277.6 446.1 277.7 446.8 277.5 C 445.0 277.5 443.9 277.5 442.9 277.6 C 443.3 277.4 440.9 277.3 442.8 277.3 C 442.8 277.3 442.8 277.3 442.8 277.3 Z M 396.1 277.2 C 393.5 277.3 391.0 277.0 393.3 277.0 C 393.8 277.1 395.4 276.9 396.0 277.1 C 392.2 277.1 399.1 277.2 397.4 277.4 C 395.1 277.4 394.4 277.5 395.0 277.6 C 393.5 277.6 391.2 277.6 391.1 277.6 C 392.1 277.5 393.6 277.6 393.5 277.5 C 392.8 277.5 392.0 277.5 392.2 277.4 C 394.5 277.4 395.5 277.3 396.1 277.2 C 396.1 277.2 396.1 277.2 396.1 277.2 Z M 414.2 277.2 C 410.6 277.2 410.1 277.0 408.8 276.8 C 413.6 276.9 414.5 277.2 418.2 277.4 C 414.2 277.3 410.5 277.6 409.1 277.5 C 410.8 277.4 414.0 277.4 414.2 277.2 C 414.2 277.2 414.2 277.2 414.2 277.2 Z M 62.2 247.8 C 65.4 247.9 68.1 248.1 71.6 248.2 C 72.5 248.0 65.7 247.5 68.5 247.7 C 72.0 247.6 69.9 248.0 72.7 248.0 C 69.6 247.6 84.7 247.6 85.6 248.0 C 83.4 248.0 82.7 248.1 83.3 248.2 C 77.2 248.2 75.0 248.4 70.5 248.5 C 66.9 248.1 57.3 248.1 52.4 248.4 C 48.5 247.9 42.8 248.4 37.8 248.1 C 36.7 248.2 42.0 248.3 38.1 248.4 C 35.5 248.1 37.0 248.0 34.3 247.9 C 34.3 248.1 34.3 248.3 34.3 248.5 C 34.4 248.9 34.6 248.3 34.6 250.2 C 34.5 249.7 34.5 252.0 34.4 252.7 C 34.4 245.8 34.1 252.2 34.0 247.6 C 34.2 247.6 34.4 247.6 34.6 247.6 C 37.0 247.7 32.7 248.0 39.0 248.0 C 41.2 247.9 43.2 247.8 42.5 247.6 C 44.3 247.6 45.2 247.5 46.3 247.5 C 44.2 247.8 55.1 247.4 50.4 247.7 C 50.0 247.7 46.4 247.7 44.0 247.8 C 46.5 248.1 49.2 247.9 53.1 247.8 C 54.9 248.0 52.6 248.1 54.7 248.1 C 57.7 248.0 53.2 247.8 55.5 247.7 C 54.5 247.6 52.9 247.6 52.9 247.6 C 58.6 247.8 60.5 247.6 63.3 247.6 C 61.5 247.7 66.6 247.8 62.2 247.8 C 62.2 247.8 62.2 247.8 62.2 247.8 Z M 34.6 267.6 C 34.6 268.9 34.6 270.2 34.6 271.6 C 34.3 271.8 34.3 266.6 34.1 270.1 C 34.1 264.1 34.4 270.4 34.6 267.6 C 34.6 267.6 34.6 267.6 34.6 267.6 Z M 42.5 249.0 C 44.7 249.3 43.1 248.7 44.8 248.7 C 41.7 248.7 38.9 248.8 38.3 248.5 C 42.0 248.6 43.6 248.6 47.3 248.5 C 44.0 248.9 51.7 248.8 53.1 249.1 C 50.2 249.2 48.0 249.3 44.1 249.3 C 44.6 249.1 38.9 249.1 42.5 249.0 C 42.5 249.0 42.5 249.0 42.5 249.0 Z M 35.8 252.6 C 35.6 253.2 35.7 258.9 35.4 257.5 C 35.5 254.1 35.4 252.8 35.2 253.3 C 35.2 251.0 35.3 250.6 35.3 248.9 C 35.5 248.9 35.7 248.9 35.9 248.9 C 36.7 249.0 36.3 249.1 35.5 249.1 C 35.6 250.2 35.6 251.7 35.7 252.5 C 35.7 251.7 35.7 251.1 35.8 252.6 C 35.8 252.6 35.8 252.6 35.8 252.6 Z M 109.1 273.7 C 110.2 274.0 104.9 273.9 103.9 273.8 C 105.4 274.0 104.7 274.1 101.4 274.2 C 102.7 273.9 97.9 274.0 95.0 273.6 C 94.2 273.9 98.0 274.0 93.6 274.0 C 90.2 273.9 87.2 274.1 82.0 274.1 C 80.9 273.9 83.1 273.8 84.5 273.7 C 81.0 273.8 82.0 273.5 79.4 273.5 C 79.9 273.7 77.7 273.8 76.8 273.6 C 81.4 273.5 70.8 273.3 75.6 273.2 C 75.8 273.3 76.9 273.3 78.1 273.2 C 76.8 273.6 83.1 273.4 84.5 273.6 C 87.0 273.1 93.7 273.3 101.4 273.5 C 101.9 273.6 99.5 273.7 101.4 273.7 C 101.6 273.6 104.1 273.6 105.3 273.5 C 105.1 273.7 106.2 273.7 107.8 273.8 C 107.9 273.7 108.0 273.7 109.1 273.7 C 109.1 273.7 109.1 273.7 109.1 273.7 Z M 275.9 250.5 C 275.8 250.9 284.0 250.6 286.2 250.5 C 286.0 251.0 271.4 250.9 275.9 250.5 C 275.9 250.5 275.9 250.5 275.9 250.5 Z M 225.8 250.8 C 227.9 250.8 226.3 250.6 228.2 250.5 C 228.4 250.8 233.1 250.3 233.4 250.5 C 231.1 250.8 229.6 250.7 225.8 250.8 C 225.8 250.8 225.8 250.8 225.8 250.8 Z M 179.3 250.7 C 183.1 250.7 177.2 250.6 177.9 250.5 C 181.2 250.5 184.6 250.5 184.5 250.7 C 181.5 250.6 179.8 250.9 179.3 250.7 C 179.3 250.7 179.3 250.7 179.3 250.7 Z M 249.0 251.0 C 252.2 251.1 247.1 251.4 246.6 251.3 C 249.9 251.2 244.2 251.0 241.4 251.1 C 241.4 250.8 242.7 250.9 241.2 250.6 C 245.6 250.5 242.0 250.9 245.2 250.9 C 247.2 250.7 245.0 250.8 245.0 250.5 C 246.3 250.5 247.5 250.5 248.8 250.5 C 248.9 250.7 248.9 250.8 249.0 250.9 C 247.5 250.9 246.0 251.0 246.5 251.1 C 247.8 251.1 248.0 251.0 249.0 251.0 C 249.0 251.0 249.0 251.0 249.0 251.0 Z M 42.0 273.2 C 40.0 273.2 41.8 273.4 43.3 273.4 C 43.6 273.3 44.9 272.8 47.2 273.1 C 42.1 273.3 48.7 273.4 45.9 273.6 C 44.8 273.3 41.8 273.6 39.4 273.6 C 38.4 273.4 40.9 273.0 42.0 273.2 C 42.0 273.2 42.0 273.2 42.0 273.2 Z M 51.1 273.4 C 50.8 273.3 49.9 273.3 48.4 273.3 C 50.0 273.1 47.8 273.1 49.8 273.0 C 49.5 273.1 56.3 273.2 52.3 273.2 C 48.8 273.1 53.3 273.4 55.0 273.4 C 53.2 273.4 50.1 273.7 49.7 273.5 C 50.6 273.5 51.3 273.5 51.1 273.4 C 51.1 273.4 51.1 273.4 51.1 273.4 Z M 134.7 273.1 C 135.2 272.9 133.0 272.9 132.2 272.8 C 138.7 272.9 144.4 272.9 147.7 272.9 C 144.6 272.9 144.7 273.1 146.5 273.2 C 143.2 273.1 142.4 273.3 141.3 273.1 C 144.0 272.9 138.8 273.1 134.7 273.1 C 134.7 273.1 134.7 273.1 134.7 273.1 Z M 134.7 273.1 " fill="#DC312E"></path></g></svg>