<?xml version="1.0" encoding="UTF-8" standalone="no"?><svg xmlns="http://www.w3.org/2000/svg" xmlns:xlink="http://www.w3.org/1999/xlink" clip-rule="evenodd" stroke-miterlimit="10" viewBox="0 0 720 540"><desc>SVG generated by Keynote</desc><defs></defs><g transform="matrix(1.00, 0.00, -0.00, -1.00, 0.0, 540.0)"><g><clipPath id="clip0x7fda56556b40"><path d="M 0.0 540.0 L 720.0 540.0 L 720.0 0.0 L 0.0 0.0 Z M 0.0 540.0 "></path></clipPath><g clip-path="url(#clip0x7fda56556b40)"><image xlink:href="CF91160C7D345B5E9725DD58C6CE8E0B.jpeg" width="1280.00" height="960.00" transform="matrix(0.56, 0.00, -0.00, -0.56, 0.0, 540.0)"></image></g></g><text xml:space="preserve" font-family="HelveticaNeue,Helvetica Neue" font-size="14.0" fill="#000000" transform="matrix(1.00, 0.00, -0.00, -1.00, 60.5, 156.0)">P</text><text xml:space="preserve" font-family="HelveticaNeue,Helvetica Neue" font-size="14.0" fill="#000000" transform="matrix(1.00, 0.00, -0.00, -1.00, 69.5, 156.0)">r</text><text xml:space="preserve" font-family="HelveticaNeue,Helvetica Neue" font-size="14.0" fill="#000000" transform="matrix(1.00, 0.00, -0.00, -1.00, 74.0, 156.0)">o</text><text xml:space="preserve" font-family="HelveticaNeue,Helvetica Neue" font-size="14.0" fill="#000000" transform="matrix(1.00, 0.00, -0.00, -1.00, 82.0, 156.0)">f</text><text xml:space="preserve" font-family="HelveticaNeue,Helvetica Neue" font-size="14.0" fill="#000000" transform="matrix(1.00, 0.00, -0.00, -1.00, 86.1, 156.0)">.</text><text xml:space="preserve" font-family="HelveticaNeue,Helvetica Neue" font-size="14.0" fill="#000000" transform="matrix(1.00, 0.00, -0.00, -1.00, 90.0, 156.0)"> </text><text xml:space="preserve" font-family="HelveticaNeue,Helvetica Neue" font-size="14.0" fill="#000000" transform="matrix(1.00, 0.00, -0.00, -1.00, 93.9, 156.0)">D</text><text xml:space="preserve" font-family="HelveticaNeue,Helvetica Neue" font-size="14.0" fill="#000000" transform="matrix(1.00, 0.00, -0.00, -1.00, 103.8, 156.0)">r</text><text xml:space="preserve" font-family="HelveticaNeue,Helvetica Neue" font-size="14.0" fill="#000000" transform="matrix(1.00, 0.00, -0.00, -1.00, 107.2, 156.0)">.</text><text xml:space="preserve" font-family="HelveticaNeue,Helvetica Neue" font-size="14.0" fill="#000000" transform="matrix(1.00, 0.00, -0.00, -1.00, 111.0, 156.0)"> </text><text xml:space="preserve" font-family="HelveticaNeue,Helvetica Neue" font-size="14.0" fill="#000000" transform="matrix(1.00, 0.00, -0.00, -1.00, 114.9, 156.0)">S</text><text xml:space="preserve" font-family="HelveticaNeue,Helvetica Neue" font-size="14.0" fill="#000000" transform="matrix(1.00, 0.00, -0.00, -1.00, 124.0, 156.0)">e</text><text xml:space="preserve" font-family="HelveticaNeue,Helvetica Neue" font-size="14.0" fill="#000000" transform="matrix(1.00, 0.00, -0.00, -1.00, 131.5, 156.0)">b</text><text xml:space="preserve" font-family="HelveticaNeue,Helvetica Neue" font-size="14.0" fill="#000000" transform="matrix(1.00, 0.00, -0.00, -1.00, 139.8, 156.0)">a</text><text xml:space="preserve" font-family="HelveticaNeue,Helvetica Neue" font-size="14.0" fill="#000000" transform="matrix(1.00, 0.00, -0.00, -1.00, 147.3, 156.0)">s</text><text xml:space="preserve" font-family="HelveticaNeue,Helvetica Neue" font-size="14.0" fill="#000000" transform="matrix(1.00, 0.00, -0.00, -1.00, 154.3, 156.0)">t</text><text xml:space="preserve" font-family="HelveticaNeue,Helvetica Neue" font-size="14.0" fill="#000000" transform="matrix(1.00, 0.00, -0.00, -1.00, 158.8, 156.0)">i</text><text xml:space="preserve" font-family="HelveticaNeue,Helvetica Neue" font-size="14.0" fill="#000000" transform="matrix(1.00, 0.00, -0.00, -1.00, 161.9, 156.0)">a</text><text xml:space="preserve" font-family="HelveticaNeue,Helvetica Neue" font-size="14.0" fill="#000000" transform="matrix(1.00, 0.00, -0.00, -1.00, 169.4, 156.0)">n</text><text xml:space="preserve" font-family="HelveticaNeue,Helvetica Neue" font-size="14.0" fill="#000000" transform="matrix(1.00, 0.00, -0.00, -1.00, 177.2, 156.0)"> </text><text xml:space="preserve" font-family="HelveticaNeue,Helvetica Neue" font-size="14.0" fill="#000000" transform="matrix(1.00, 0.00, -0.00, -1.00, 181.1, 156.0)">R</text><text xml:space="preserve" font-family="HelveticaNeue,Helvetica Neue" font-size="14.0" fill="#000000" transform="matrix(1.00, 0.00, -0.00, -1.00, 190.6, 156.0)">i</text><text xml:space="preserve" font-family="HelveticaNeue,Helvetica Neue" font-size="14.0" fill="#000000" transform="matrix(1.00, 0.00, -0.00, -1.00, 193.8, 156.0)">e</text><text xml:space="preserve" font-family="HelveticaNeue,Helvetica Neue" font-size="14.0" fill="#000000" transform="matrix(1.00, 0.00, -0.00, -1.00, 201.3, 156.0)">g</text><text xml:space="preserve" font-family="HelveticaNeue,Helvetica Neue" font-size="14.0" fill="#000000" transform="matrix(1.00, 0.00, -0.00, -1.00, 209.3, 156.0)">e</text><text xml:space="preserve" font-family="HelveticaNeue,Helvetica Neue" font-size="14.0" fill="#000000" transform="matrix(1.00, 0.00, -0.00, -1.00, 216.8, 156.0)">r</text><text xml:space="preserve" font-family="HelveticaNeue,Helvetica Neue" font-size="14.0" fill="#000000" transform="matrix(1.00, 0.00, -0.00, -1.00, 221.5, 156.0)">
</text><text xml:space="preserve" font-family="HelveticaNeue,Helvetica Neue" font-size="14.0" fill="#000000" transform="matrix(1.00, 0.00, -0.00, -1.00, 60.5, 135.2)">D</text><text xml:space="preserve" font-family="HelveticaNeue,Helvetica Neue" font-size="14.0" fill="#000000" transform="matrix(1.00, 0.00, -0.00, -1.00, 70.3, 135.2)">i</text><text xml:space="preserve" font-family="HelveticaNeue,Helvetica Neue" font-size="14.0" fill="#000000" transform="matrix(1.00, 0.00, -0.00, -1.00, 73.4, 135.2)">p</text><text xml:space="preserve" font-family="HelveticaNeue,Helvetica Neue" font-size="14.0" fill="#000000" transform="matrix(1.00, 0.00, -0.00, -1.00, 81.7, 135.2)">l</text><text xml:space="preserve" font-family="HelveticaNeue,Helvetica Neue" font-size="14.0" fill="#000000" transform="matrix(1.00, 0.00, -0.00, -1.00, 84.8, 135.2)">.</text><text xml:space="preserve" font-family="HelveticaNeue,Helvetica Neue" font-size="14.0" fill="#000000" transform="matrix(1.00, 0.00, -0.00, -1.00, 88.7, 135.2)">-</text><text xml:space="preserve" font-family="HelveticaNeue,Helvetica Neue" font-size="14.0" fill="#000000" transform="matrix(1.00, 0.00, -0.00, -1.00, 94.2, 135.2)">I</text><text xml:space="preserve" font-family="HelveticaNeue,Helvetica Neue" font-size="14.0" fill="#000000" transform="matrix(1.00, 0.00, -0.00, -1.00, 97.8, 135.2)">n</text><text xml:space="preserve" font-family="HelveticaNeue,Helvetica Neue" font-size="14.0" fill="#000000" transform="matrix(1.00, 0.00, -0.00, -1.00, 105.6, 135.2)">f</text><text xml:space="preserve" font-family="HelveticaNeue,Helvetica Neue" font-size="14.0" fill="#000000" transform="matrix(1.00, 0.00, -0.00, -1.00, 109.7, 135.2)">.</text><text xml:space="preserve" font-family="HelveticaNeue,Helvetica Neue" font-size="14.0" fill="#000000" transform="matrix(1.00, 0.00, -0.00, -1.00, 113.6, 135.2)"> </text><text xml:space="preserve" font-family="HelveticaNeue,Helvetica Neue" font-size="14.0" fill="#000000" transform="matrix(1.00, 0.00, -0.00, -1.00, 117.5, 135.2)">C</text><text xml:space="preserve" font-family="HelveticaNeue,Helvetica Neue" font-size="14.0" fill="#000000" transform="matrix(1.00, 0.00, -0.00, -1.00, 127.6, 135.2)">h</text><text xml:space="preserve" font-family="HelveticaNeue,Helvetica Neue" font-size="14.0" fill="#000000" transform="matrix(1.00, 0.00, -0.00, -1.00, 135.4, 135.2)">r</text><text xml:space="preserve" font-family="HelveticaNeue,Helvetica Neue" font-size="14.0" fill="#000000" transform="matrix(1.00, 0.00, -0.00, -1.00, 140.1, 135.2)">i</text><text xml:space="preserve" font-family="HelveticaNeue,Helvetica Neue" font-size="14.0" fill="#000000" transform="matrix(1.00, 0.00, -0.00, -1.00, 143.2, 135.2)">s</text><text xml:space="preserve" font-family="HelveticaNeue,Helvetica Neue" font-size="14.0" fill="#000000" transform="matrix(1.00, 0.00, -0.00, -1.00, 150.2, 135.2)">t</text><text xml:space="preserve" font-family="HelveticaNeue,Helvetica Neue" font-size="14.0" fill="#000000" transform="matrix(1.00, 0.00, -0.00, -1.00, 154.6, 135.2)">i</text><text xml:space="preserve" font-family="HelveticaNeue,Helvetica Neue" font-size="14.0" fill="#000000" transform="matrix(1.00, 0.00, -0.00, -1.00, 157.7, 135.2)">a</text><text xml:space="preserve" font-family="HelveticaNeue,Helvetica Neue" font-size="14.0" fill="#000000" transform="matrix(1.00, 0.00, -0.00, -1.00, 165.2, 135.2)">n</text><text xml:space="preserve" font-family="HelveticaNeue,Helvetica Neue" font-size="14.0" fill="#000000" transform="matrix(1.00, 0.00, -0.00, -1.00, 173.0, 135.2)"> </text><text xml:space="preserve" font-family="HelveticaNeue,Helvetica Neue" font-size="14.0" fill="#000000" transform="matrix(1.00, 0.00, -0.00, -1.00, 176.9, 135.2)">P</text><text xml:space="preserve" font-family="HelveticaNeue,Helvetica Neue" font-size="14.0" fill="#000000" transform="matrix(1.00, 0.00, -0.00, -1.00, 186.0, 135.2)">a</text><text xml:space="preserve" font-family="HelveticaNeue,Helvetica Neue" font-size="14.0" fill="#000000" transform="matrix(1.00, 0.00, -0.00, -1.00, 193.5, 135.2)">p</text><text xml:space="preserve" font-family="HelveticaNeue,Helvetica Neue" font-size="14.0" fill="#000000" transform="matrix(1.00, 0.00, -0.00, -1.00, 201.8, 135.2)">e</text><text xml:space="preserve" font-family="HelveticaNeue,Helvetica Neue" font-size="14.0" fill="#000000" transform="matrix(1.00, 0.00, -0.00, -1.00, 209.3, 135.2)">
</text><text xml:space="preserve" font-family="HelveticaNeue,Helvetica Neue" font-size="14.0" fill="#000000" transform="matrix(1.00, 0.00, -0.00, -1.00, 60.5, 114.4)">D</text><text xml:space="preserve" font-family="HelveticaNeue,Helvetica Neue" font-size="14.0" fill="#000000" transform="matrix(1.00, 0.00, -0.00, -1.00, 70.3, 114.4)">i</text><text xml:space="preserve" font-family="HelveticaNeue,Helvetica Neue" font-size="14.0" fill="#000000" transform="matrix(1.00, 0.00, -0.00, -1.00, 73.4, 114.4)">p</text><text xml:space="preserve" font-family="HelveticaNeue,Helvetica Neue" font-size="14.0" fill="#000000" transform="matrix(1.00, 0.00, -0.00, -1.00, 81.7, 114.4)">l</text><text xml:space="preserve" font-family="HelveticaNeue,Helvetica Neue" font-size="14.0" fill="#000000" transform="matrix(1.00, 0.00, -0.00, -1.00, 84.8, 114.4)">.</text><text xml:space="preserve" font-family="HelveticaNeue,Helvetica Neue" font-size="14.0" fill="#000000" transform="matrix(1.00, 0.00, -0.00, -1.00, 88.7, 114.4)">-</text><text xml:space="preserve" font-family="HelveticaNeue,Helvetica Neue" font-size="14.0" fill="#000000" transform="matrix(1.00, 0.00, -0.00, -1.00, 94.2, 114.4)">I</text><text xml:space="preserve" font-family="HelveticaNeue,Helvetica Neue" font-size="14.0" fill="#000000" transform="matrix(1.00, 0.00, -0.00, -1.00, 97.8, 114.4)">n</text><text xml:space="preserve" font-family="HelveticaNeue,Helvetica Neue" font-size="14.0" fill="#000000" transform="matrix(1.00, 0.00, -0.00, -1.00, 105.6, 114.4)">f</text><text xml:space="preserve" font-family="HelveticaNeue,Helvetica Neue" font-size="14.0" fill="#000000" transform="matrix(1.00, 0.00, -0.00, -1.00, 109.7, 114.4)">.</text><text xml:space="preserve" font-family="HelveticaNeue,Helvetica Neue" font-size="14.0" fill="#000000" transform="matrix(1.00, 0.00, -0.00, -1.00, 113.6, 114.4)">(</text><text xml:space="preserve" font-family="HelveticaNeue,Helvetica Neue" font-size="14.0" fill="#000000" transform="matrix(1.00, 0.00, -0.00, -1.00, 117.3, 114.4)">H</text><text xml:space="preserve" font-family="HelveticaNeue,Helvetica Neue" font-size="14.0" fill="#000000" transform="matrix(1.00, 0.00, -0.00, -1.00, 127.4, 114.4)">S</text><text xml:space="preserve" font-family="HelveticaNeue,Helvetica Neue" font-size="14.0" fill="#000000" transform="matrix(1.00, 0.00, -0.00, -1.00, 136.4, 114.4)">)</text><text xml:space="preserve" font-family="HelveticaNeue,Helvetica Neue" font-size="14.0" fill="#000000" transform="matrix(1.00, 0.00, -0.00, -1.00, 140.1, 114.4)"> </text><text xml:space="preserve" font-family="HelveticaNeue,Helvetica Neue" font-size="14.0" fill="#000000" transform="matrix(1.00, 0.00, -0.00, -1.00, 144.0, 114.4)">R</text><text xml:space="preserve" font-family="HelveticaNeue,Helvetica Neue" font-size="14.0" fill="#000000" transform="matrix(1.00, 0.00, -0.00, -1.00, 153.5, 114.4)">o</text><text xml:space="preserve" font-family="HelveticaNeue,Helvetica Neue" font-size="14.0" fill="#000000" transform="matrix(1.00, 0.00, -0.00, -1.00, 161.6, 114.4)">n</text><text xml:space="preserve" font-family="HelveticaNeue,Helvetica Neue" font-size="14.0" fill="#000000" transform="matrix(1.00, 0.00, -0.00, -1.00, 169.4, 114.4)">n</text><text xml:space="preserve" font-family="HelveticaNeue,Helvetica Neue" font-size="14.0" fill="#000000" transform="matrix(1.00, 0.00, -0.00, -1.00, 177.2, 114.4)">y</text><text xml:space="preserve" font-family="HelveticaNeue,Helvetica Neue" font-size="14.0" fill="#000000" transform="matrix(1.00, 0.00, -0.00, -1.00, 184.2, 114.4)"> </text><text xml:space="preserve" font-family="HelveticaNeue,Helvetica Neue" font-size="14.0" fill="#000000" transform="matrix(1.00, 0.00, -0.00, -1.00, 188.0, 114.4)">T</text><text xml:space="preserve" font-family="HelveticaNeue,Helvetica Neue" font-size="14.0" fill="#000000" transform="matrix(1.00, 0.00, -0.00, -1.00, 194.8, 114.4)">r</text><text xml:space="preserve" font-family="HelveticaNeue,Helvetica Neue" font-size="14.0" fill="#000000" transform="matrix(1.00, 0.00, -0.00, -1.00, 199.2, 114.4)">o</text><text xml:space="preserve" font-family="HelveticaNeue,Helvetica Neue" font-size="14.0" fill="#000000" transform="matrix(1.00, 0.00, -0.00, -1.00, 207.2, 114.4)">m</text><text xml:space="preserve" font-family="HelveticaNeue,Helvetica Neue" font-size="14.0" fill="#000000" transform="matrix(1.00, 0.00, -0.00, -1.00, 219.2, 114.4)">m</text><text xml:space="preserve" font-family="HelveticaNeue,Helvetica Neue" font-size="14.0" fill="#000000" transform="matrix(1.00, 0.00, -0.00, -1.00, 231.1, 114.4)">e</text><text xml:space="preserve" font-family="HelveticaNeue,Helvetica Neue" font-size="14.0" fill="#000000" transform="matrix(1.00, 0.00, -0.00, -1.00, 238.6, 114.4)">r</text><text xml:space="preserve" font-family="HelveticaNeue-Bold,Helvetica Neue" font-weight="bold" font-size="25.0" fill="#000000" transform="matrix(1.00, 0.00, -0.00, -1.00, 60.5, 278.6)">E</text><text xml:space="preserve" font-family="HelveticaNeue-Bold,Helvetica Neue" font-weight="bold" font-size="25.0" fill="#000000" transform="matrix(1.00, 0.00, -0.00, -1.00, 76.7, 278.6)">n</text><text xml:space="preserve" font-family="HelveticaNeue-Bold,Helvetica Neue" font-weight="bold" font-size="25.0" fill="#000000" transform="matrix(1.00, 0.00, -0.00, -1.00, 91.5, 278.6)">e</text><text xml:space="preserve" font-family="HelveticaNeue-Bold,Helvetica Neue" font-weight="bold" font-size="25.0" fill="#000000" transform="matrix(1.00, 0.00, -0.00, -1.00, 105.9, 278.6)">r</text><text xml:space="preserve" font-family="HelveticaNeue-Bold,Helvetica Neue" font-weight="bold" font-size="25.0" fill="#000000" transform="matrix(1.00, 0.00, -0.00, -1.00, 114.9, 278.6)">g</text><text xml:space="preserve" font-family="HelveticaNeue-Bold,Helvetica Neue" font-weight="bold" font-size="25.0" fill="#000000" transform="matrix(1.00, 0.00, -0.00, -1.00, 130.2, 278.6)">i</text><text xml:space="preserve" font-family="HelveticaNeue-Bold,Helvetica Neue" font-weight="bold" font-size="25.0" fill="#000000" transform="matrix(1.00, 0.00, -0.00, -1.00, 136.6, 278.6)">e</text><text xml:space="preserve" font-family="HelveticaNeue-Bold,Helvetica Neue" font-weight="bold" font-size="25.0" fill="#000000" transform="matrix(1.00, 0.00, -0.00, -1.00, 151.0, 278.6)">v</text><text xml:space="preserve" font-family="HelveticaNeue-Bold,Helvetica Neue" font-weight="bold" font-size="25.0" fill="#000000" transform="matrix(1.00, 0.00, -0.00, -1.00, 164.0, 278.6)">e</text><text xml:space="preserve" font-family="HelveticaNeue-Bold,Helvetica Neue" font-weight="bold" font-size="25.0" fill="#000000" transform="matrix(1.00, 0.00, -0.00, -1.00, 178.3, 278.6)">r</text><text xml:space="preserve" font-family="HelveticaNeue-Bold,Helvetica Neue" font-weight="bold" font-size="25.0" fill="#000000" transform="matrix(1.00, 0.00, -0.00, -1.00, 188.0, 278.6)">b</text><text xml:space="preserve" font-family="HelveticaNeue-Bold,Helvetica Neue" font-weight="bold" font-size="25.0" fill="#000000" transform="matrix(1.00, 0.00, -0.00, -1.00, 203.3, 278.6)">r</text><text xml:space="preserve" font-family="HelveticaNeue-Bold,Helvetica Neue" font-weight="bold" font-size="25.0" fill="#000000" transform="matrix(1.00, 0.00, -0.00, -1.00, 213.0, 278.6)">a</text><text xml:space="preserve" font-family="HelveticaNeue-Bold,Helvetica Neue" font-weight="bold" font-size="25.0" fill="#000000" transform="matrix(1.00, 0.00, -0.00, -1.00, 227.4, 278.6)">u</text><text xml:space="preserve" font-family="HelveticaNeue-Bold,Helvetica Neue" font-weight="bold" font-size="25.0" fill="#000000" transform="matrix(1.00, 0.00, -0.00, -1.00, 242.2, 278.6)">c</text><text xml:space="preserve" font-family="HelveticaNeue-Bold,Helvetica Neue" font-weight="bold" font-size="25.0" fill="#000000" transform="matrix(1.00, 0.00, -0.00, -1.00, 256.6, 278.6)">h</text><text xml:space="preserve" font-family="HelveticaNeue-Bold,Helvetica Neue" font-weight="bold" font-size="25.0" fill="#000000" transform="matrix(1.00, 0.00, -0.00, -1.00, 271.4, 278.6)"> </text><text xml:space="preserve" font-family="HelveticaNeue-Bold,Helvetica Neue" font-weight="bold" font-size="25.0" fill="#000000" transform="matrix(1.00, 0.00, -0.00, -1.00, 278.3, 278.6)">v</text><text xml:space="preserve" font-family="HelveticaNeue-Bold,Helvetica Neue" font-weight="bold" font-size="25.0" fill="#000000" transform="matrix(1.00, 0.00, -0.00, -1.00, 291.3, 278.6)">o</text><text xml:space="preserve" font-family="HelveticaNeue-Bold,Helvetica Neue" font-weight="bold" font-size="25.0" fill="#000000" transform="matrix(1.00, 0.00, -0.00, -1.00, 306.6, 278.6)">n</text><text xml:space="preserve" font-family="HelveticaNeue-Bold,Helvetica Neue" font-weight="bold" font-size="25.0" fill="#000000" transform="matrix(1.00, 0.00, -0.00, -1.00, 321.4, 278.6)"> </text><text xml:space="preserve" font-family="HelveticaNeue-Bold,Helvetica Neue" font-weight="bold" font-size="25.0" fill="#000000" transform="matrix(1.00, 0.00, -0.00, -1.00, 328.4, 278.6)">L</text><text xml:space="preserve" font-family="HelveticaNeue-Bold,Helvetica Neue" font-weight="bold" font-size="25.0" fill="#000000" transform="matrix(1.00, 0.00, -0.00, -1.00, 343.2, 278.6)">i</text><text xml:space="preserve" font-family="HelveticaNeue-Bold,Helvetica Neue" font-weight="bold" font-size="25.0" fill="#000000" transform="matrix(1.00, 0.00, -0.00, -1.00, 349.7, 278.6)">v</text><text xml:space="preserve" font-family="HelveticaNeue-Bold,Helvetica Neue" font-weight="bold" font-size="25.0" fill="#000000" transform="matrix(1.00, 0.00, -0.00, -1.00, 362.7, 278.6)">e</text><text xml:space="preserve" font-family="HelveticaNeue-Bold,Helvetica Neue" font-weight="bold" font-size="25.0" fill="#000000" transform="matrix(1.00, 0.00, -0.00, -1.00, 377.0, 278.6)">-</text><text xml:space="preserve" font-family="HelveticaNeue-Bold,Helvetica Neue" font-weight="bold" font-size="25.0" fill="#000000" transform="matrix(1.00, 0.00, -0.00, -1.00, 387.2, 278.6)">M</text><text xml:space="preserve" font-family="HelveticaNeue-Bold,Helvetica Neue" font-weight="bold" font-size="25.0" fill="#000000" transform="matrix(1.00, 0.00, -0.00, -1.00, 409.9, 278.6)">i</text><text xml:space="preserve" font-family="HelveticaNeue-Bold,Helvetica Neue" font-weight="bold" font-size="25.0" fill="#000000" transform="matrix(1.00, 0.00, -0.00, -1.00, 416.3, 278.6)">g</text><text xml:space="preserve" font-family="HelveticaNeue-Bold,Helvetica Neue" font-weight="bold" font-size="25.0" fill="#000000" transform="matrix(1.00, 0.00, -0.00, -1.00, 431.6, 278.6)">r</text><text xml:space="preserve" font-family="HelveticaNeue-Bold,Helvetica Neue" font-weight="bold" font-size="25.0" fill="#000000" transform="matrix(1.00, 0.00, -0.00, -1.00, 441.3, 278.6)">a</text><text xml:space="preserve" font-family="HelveticaNeue-Bold,Helvetica Neue" font-weight="bold" font-size="25.0" fill="#000000" transform="matrix(1.00, 0.00, -0.00, -1.00, 455.7, 278.6)">t</text><text xml:space="preserve" font-family="HelveticaNeue-Bold,Helvetica Neue" font-weight="bold" font-size="25.0" fill="#000000" transform="matrix(1.00, 0.00, -0.00, -1.00, 464.5, 278.6)">i</text><text xml:space="preserve" font-family="HelveticaNeue-Bold,Helvetica Neue" font-weight="bold" font-size="25.0" fill="#000000" transform="matrix(1.00, 0.00, -0.00, -1.00, 470.9, 278.6)">o</text><text xml:space="preserve" font-family="HelveticaNeue-Bold,Helvetica Neue" font-weight="bold" font-size="25.0" fill="#000000" transform="matrix(1.00, 0.00, -0.00, -1.00, 486.2, 278.6)">n</text><text xml:space="preserve" font-family="HelveticaNeue-Bold,Helvetica Neue" font-weight="bold" font-size="25.0" fill="#000000" transform="matrix(1.00, 0.00, -0.00, -1.00, 501.0, 278.6)">e</text><text xml:space="preserve" font-family="HelveticaNeue-Bold,Helvetica Neue" font-weight="bold" font-size="25.0" fill="#000000" transform="matrix(1.00, 0.00, -0.00, -1.00, 515.4, 278.6)">n</text><text xml:space="preserve" font-family="HelveticaNeue-Bold,Helvetica Neue" font-weight="bold" font-size="25.0" fill="#000000" transform="matrix(1.00, 0.00, -0.00, -1.00, 530.2, 278.6)"> </text><text xml:space="preserve" font-family="HelveticaNeue-Bold,Helvetica Neue" font-weight="bold" font-size="25.0" fill="#000000" transform="matrix(1.00, 0.00, -0.00, -1.00, 537.1, 278.6)">i</text><text xml:space="preserve" font-family="HelveticaNeue-Bold,Helvetica Neue" font-weight="bold" font-size="25.0" fill="#000000" transform="matrix(1.00, 0.00, -0.00, -1.00, 543.6, 278.6)">n</text><text xml:space="preserve" font-family="HelveticaNeue-Bold,Helvetica Neue" font-weight="bold" font-size="25.0" fill="#000000" transform="matrix(1.00, 0.00, -0.00, -1.00, 558.4, 278.6)"> </text><text xml:space="preserve" font-family="HelveticaNeue-Bold,Helvetica Neue" font-weight="bold" font-size="25.0" fill="#000000" transform="matrix(1.00, 0.00, -0.00, -1.00, 565.4, 278.6)"> </text><text xml:space="preserve" font-family="HelveticaNeue-Bold,Helvetica Neue" font-weight="bold" font-size="25.0" fill="#000000" transform="matrix(1.00, 0.00, -0.00, -1.00, 60.5, 243.8)">O</text><text xml:space="preserve" font-family="HelveticaNeue-Bold,Helvetica Neue" font-weight="bold" font-size="25.0" fill="#000000" transform="matrix(1.00, 0.00, -0.00, -1.00, 79.9, 243.8)">p</text><text xml:space="preserve" font-family="HelveticaNeue-Bold,Helvetica Neue" font-weight="bold" font-size="25.0" fill="#000000" transform="matrix(1.00, 0.00, -0.00, -1.00, 95.2, 243.8)">e</text><text xml:space="preserve" font-family="HelveticaNeue-Bold,Helvetica Neue" font-weight="bold" font-size="25.0" fill="#000000" transform="matrix(1.00, 0.00, -0.00, -1.00, 109.6, 243.8)">n</text><text xml:space="preserve" font-family="HelveticaNeue-Bold,Helvetica Neue" font-weight="bold" font-size="25.0" fill="#000000" transform="matrix(1.00, 0.00, -0.00, -1.00, 124.4, 243.8)">S</text><text xml:space="preserve" font-family="HelveticaNeue-Bold,Helvetica Neue" font-weight="bold" font-size="25.0" fill="#000000" transform="matrix(1.00, 0.00, -0.00, -1.00, 140.6, 243.8)">t</text><text xml:space="preserve" font-family="HelveticaNeue-Bold,Helvetica Neue" font-weight="bold" font-size="25.0" fill="#000000" transform="matrix(1.00, 0.00, -0.00, -1.00, 149.4, 243.8)">a</text><text xml:space="preserve" font-family="HelveticaNeue-Bold,Helvetica Neue" font-weight="bold" font-size="25.0" fill="#000000" transform="matrix(1.00, 0.00, -0.00, -1.00, 163.8, 243.8)">c</text><text xml:space="preserve" font-family="HelveticaNeue-Bold,Helvetica Neue" font-weight="bold" font-size="25.0" fill="#000000" transform="matrix(1.00, 0.00, -0.00, -1.00, 178.1, 243.8)">k</text><text xml:space="preserve" font-family="HelveticaNeue-Bold,Helvetica Neue" font-weight="bold" font-size="25.0" fill="#000000" transform="matrix(1.00, 0.00, -0.00, -1.00, 192.5, 243.8)">-</text><text xml:space="preserve" font-family="HelveticaNeue-Bold,Helvetica Neue" font-weight="bold" font-size="25.0" fill="#000000" transform="matrix(1.00, 0.00, -0.00, -1.00, 202.6, 243.8)">b</text><text xml:space="preserve" font-family="HelveticaNeue-Bold,Helvetica Neue" font-weight="bold" font-size="25.0" fill="#000000" transform="matrix(1.00, 0.00, -0.00, -1.00, 217.9, 243.8)">a</text><text xml:space="preserve" font-family="HelveticaNeue-Bold,Helvetica Neue" font-weight="bold" font-size="25.0" fill="#000000" transform="matrix(1.00, 0.00, -0.00, -1.00, 232.3, 243.8)">s</text><text xml:space="preserve" font-family="HelveticaNeue-Bold,Helvetica Neue" font-weight="bold" font-size="25.0" fill="#000000" transform="matrix(1.00, 0.00, -0.00, -1.00, 245.7, 243.8)">i</text><text xml:space="preserve" font-family="HelveticaNeue-Bold,Helvetica Neue" font-weight="bold" font-size="25.0" fill="#000000" transform="matrix(1.00, 0.00, -0.00, -1.00, 252.1, 243.8)">e</text><text xml:space="preserve" font-family="HelveticaNeue-Bold,Helvetica Neue" font-weight="bold" font-size="25.0" fill="#000000" transform="matrix(1.00, 0.00, -0.00, -1.00, 266.5, 243.8)">r</text><text xml:space="preserve" font-family="HelveticaNeue-Bold,Helvetica Neue" font-weight="bold" font-size="25.0" fill="#000000" transform="matrix(1.00, 0.00, -0.00, -1.00, 276.2, 243.8)">t</text><text xml:space="preserve" font-family="HelveticaNeue-Bold,Helvetica Neue" font-weight="bold" font-size="25.0" fill="#000000" transform="matrix(1.00, 0.00, -0.00, -1.00, 285.0, 243.8)">e</text><text xml:space="preserve" font-family="HelveticaNeue-Bold,Helvetica Neue" font-weight="bold" font-size="25.0" fill="#000000" transform="matrix(1.00, 0.00, -0.00, -1.00, 299.4, 243.8)">n</text><text xml:space="preserve" font-family="HelveticaNeue-Bold,Helvetica Neue" font-weight="bold" font-size="25.0" fill="#000000" transform="matrix(1.00, 0.00, -0.00, -1.00, 314.2, 243.8)"> </text><text xml:space="preserve" font-family="HelveticaNeue-Bold,Helvetica Neue" font-weight="bold" font-size="25.0" fill="#000000" transform="matrix(1.00, 0.00, -0.00, -1.00, 321.1, 243.8)">P</text><text xml:space="preserve" font-family="HelveticaNeue-Bold,Helvetica Neue" font-weight="bold" font-size="25.0" fill="#000000" transform="matrix(1.00, 0.00, -0.00, -1.00, 337.8, 243.8)">r</text><text xml:space="preserve" font-family="HelveticaNeue-Bold,Helvetica Neue" font-weight="bold" font-size="25.0" fill="#000000" transform="matrix(1.00, 0.00, -0.00, -1.00, 347.5, 243.8)">i</text><text xml:space="preserve" font-family="HelveticaNeue-Bold,Helvetica Neue" font-weight="bold" font-size="25.0" fill="#000000" transform="matrix(1.00, 0.00, -0.00, -1.00, 354.0, 243.8)">v</text><text xml:space="preserve" font-family="HelveticaNeue-Bold,Helvetica Neue" font-weight="bold" font-size="25.0" fill="#000000" transform="matrix(1.00, 0.00, -0.00, -1.00, 367.0, 243.8)">a</text><text xml:space="preserve" font-family="HelveticaNeue-Bold,Helvetica Neue" font-weight="bold" font-size="25.0" fill="#000000" transform="matrix(1.00, 0.00, -0.00, -1.00, 381.3, 243.8)">t</text><text xml:space="preserve" font-family="HelveticaNeue-Bold,Helvetica Neue" font-weight="bold" font-size="25.0" fill="#000000" transform="matrix(1.00, 0.00, -0.00, -1.00, 390.1, 243.8)">e</text><text xml:space="preserve" font-family="HelveticaNeue-Bold,Helvetica Neue" font-weight="bold" font-size="25.0" fill="#000000" transform="matrix(1.00, 0.00, -0.00, -1.00, 404.5, 243.8)">-</text><text xml:space="preserve" font-family="HelveticaNeue-Bold,Helvetica Neue" font-weight="bold" font-size="25.0" fill="#000000" transform="matrix(1.00, 0.00, -0.00, -1.00, 414.7, 243.8)">C</text><text xml:space="preserve" font-family="HelveticaNeue-Bold,Helvetica Neue" font-weight="bold" font-size="25.0" fill="#000000" transform="matrix(1.00, 0.00, -0.00, -1.00, 433.2, 243.8)">l</text><text xml:space="preserve" font-family="HelveticaNeue-Bold,Helvetica Neue" font-weight="bold" font-size="25.0" fill="#000000" transform="matrix(1.00, 0.00, -0.00, -1.00, 439.6, 243.8)">o</text><text xml:space="preserve" font-family="HelveticaNeue-Bold,Helvetica Neue" font-weight="bold" font-size="25.0" fill="#000000" transform="matrix(1.00, 0.00, -0.00, -1.00, 454.9, 243.8)">u</text><text xml:space="preserve" font-family="HelveticaNeue-Bold,Helvetica Neue" font-weight="bold" font-size="25.0" fill="#000000" transform="matrix(1.00, 0.00, -0.00, -1.00, 469.7, 243.8)">d</text><text xml:space="preserve" font-family="HelveticaNeue-Bold,Helvetica Neue" font-weight="bold" font-size="25.0" fill="#000000" transform="matrix(1.00, 0.00, -0.00, -1.00, 485.0, 243.8)">-</text><text xml:space="preserve" font-family="HelveticaNeue-Bold,Helvetica Neue" font-weight="bold" font-size="25.0" fill="#000000" transform="matrix(1.00, 0.00, -0.00, -1.00, 495.2, 243.8)">U</text><text xml:space="preserve" font-family="HelveticaNeue-Bold,Helvetica Neue" font-weight="bold" font-size="25.0" fill="#000000" transform="matrix(1.00, 0.00, -0.00, -1.00, 513.7, 243.8)">m</text><text xml:space="preserve" font-family="HelveticaNeue-Bold,Helvetica Neue" font-weight="bold" font-size="25.0" fill="#000000" transform="matrix(1.00, 0.00, -0.00, -1.00, 536.4, 243.8)">g</text><text xml:space="preserve" font-family="HelveticaNeue-Bold,Helvetica Neue" font-weight="bold" font-size="25.0" fill="#000000" transform="matrix(1.00, 0.00, -0.00, -1.00, 551.6, 243.8)">e</text><text xml:space="preserve" font-family="HelveticaNeue-Bold,Helvetica Neue" font-weight="bold" font-size="25.0" fill="#000000" transform="matrix(1.00, 0.00, -0.00, -1.00, 566.0, 243.8)">b</text><text xml:space="preserve" font-family="HelveticaNeue-Bold,Helvetica Neue" font-weight="bold" font-size="25.0" fill="#000000" transform="matrix(1.00, 0.00, -0.00, -1.00, 581.3, 243.8)">u</text><text xml:space="preserve" font-family="HelveticaNeue-Bold,Helvetica Neue" font-weight="bold" font-size="25.0" fill="#000000" transform="matrix(1.00, 0.00, -0.00, -1.00, 596.1, 243.8)">n</text><text xml:space="preserve" font-family="HelveticaNeue-Bold,Helvetica Neue" font-weight="bold" font-size="25.0" fill="#000000" transform="matrix(1.00, 0.00, -0.00, -1.00, 610.9, 243.8)">g</text><text xml:space="preserve" font-family="HelveticaNeue-Bold,Helvetica Neue" font-weight="bold" font-size="25.0" fill="#000000" transform="matrix(1.00, 0.00, -0.00, -1.00, 626.2, 243.8)">e</text><text xml:space="preserve" font-family="HelveticaNeue-Bold,Helvetica Neue" font-weight="bold" font-size="25.0" fill="#000000" transform="matrix(1.00, 0.00, -0.00, -1.00, 640.5, 243.8)">n</text></g></svg>