<?xml version="1.0" encoding="UTF-8" standalone="no"?><svg xmlns="http://www.w3.org/2000/svg" xmlns:xlink="http://www.w3.org/1999/xlink" clip-rule="evenodd" stroke-miterlimit="10" viewBox="0 0 720 540"><desc>SVG generated by Keynote</desc><defs></defs><g transform="matrix(1.00, 0.00, -0.00, -1.00, 0.0, 540.0)"><g><clipPath id="clip0x7fda566f4790"><path d="M 0.0 540.0 L 720.0 540.0 L 720.0 0.0 L 0.0 0.0 Z M 0.0 540.0 "></path></clipPath><g clip-path="url(#clip0x7fda566f4790)"><image xlink:href="../../A8130665-9052-4470-BAE6-AA5FC7750E31/assets/CF91160C7D345B5E9725DD58C6CE8E0B.jpeg" width="1280.00" height="960.00" transform="matrix(0.56, 0.00, -0.00, -0.56, 0.0, 540.0)"></image></g></g><text xml:space="preserve" font-family="HelveticaNeue-Bold,Helvetica Neue" font-weight="bold" font-size="36.0" fill="#000000" transform="matrix(1.00, 0.00, -0.00, -1.00, 38.5, 479.3)">K</text><text xml:space="preserve" font-family="HelveticaNeue-Bold,Helvetica Neue" font-weight="bold" font-size="36.0" fill="#000000" transform="matrix(1.00, 0.00, -0.00, -1.00, 64.5, 479.3)">o</text><text xml:space="preserve" font-family="HelveticaNeue-Bold,Helvetica Neue" font-weight="bold" font-size="36.0" fill="#000000" transform="matrix(1.00, 0.00, -0.00, -1.00, 86.5, 479.3)">n</text><text xml:space="preserve" font-family="HelveticaNeue-Bold,Helvetica Neue" font-weight="bold" font-size="36.0" fill="#000000" transform="matrix(1.00, 0.00, -0.00, -1.00, 107.8, 479.3)">t</text><text xml:space="preserve" font-family="HelveticaNeue-Bold,Helvetica Neue" font-weight="bold" font-size="36.0" fill="#000000" transform="matrix(1.00, 0.00, -0.00, -1.00, 120.5, 479.3)">e</text><text xml:space="preserve" font-family="HelveticaNeue-Bold,Helvetica Neue" font-weight="bold" font-size="36.0" fill="#000000" transform="matrix(1.00, 0.00, -0.00, -1.00, 141.2, 479.3)">x</text><text xml:space="preserve" font-family="HelveticaNeue-Bold,Helvetica Neue" font-weight="bold" font-size="36.0" fill="#000000" transform="matrix(1.00, 0.00, -0.00, -1.00, 160.5, 479.3)">t</text><text xml:space="preserve" font-family="HelveticaNeue,Helvetica Neue" font-size="32.0" fill="#000000" transform="matrix(1.00, 0.00, -0.00, -1.00, 39.6, 381.1)">•</text><text xml:space="preserve" font-family="HelveticaNeue,Helvetica Neue" font-size="32.0" fill="#000000" transform="matrix(1.00, 0.00, -0.00, -1.00, 66.6, 381.1)">O</text><text xml:space="preserve" font-family="HelveticaNeue,Helvetica Neue" font-size="32.0" fill="#000000" transform="matrix(1.00, 0.00, -0.00, -1.00, 90.9, 381.1)">p</text><text xml:space="preserve" font-family="HelveticaNeue,Helvetica Neue" font-size="32.0" fill="#000000" transform="matrix(1.00, 0.00, -0.00, -1.00, 109.9, 381.1)">t</text><text xml:space="preserve" font-family="HelveticaNeue,Helvetica Neue" font-size="32.0" fill="#000000" transform="matrix(1.00, 0.00, -0.00, -1.00, 120.0, 381.1)">i</text><text xml:space="preserve" font-family="HelveticaNeue,Helvetica Neue" font-size="32.0" fill="#000000" transform="matrix(1.00, 0.00, -0.00, -1.00, 127.1, 381.1)">m</text><text xml:space="preserve" font-family="HelveticaNeue,Helvetica Neue" font-size="32.0" fill="#000000" transform="matrix(1.00, 0.00, -0.00, -1.00, 154.4, 381.1)">i</text><text xml:space="preserve" font-family="HelveticaNeue,Helvetica Neue" font-size="32.0" fill="#000000" transform="matrix(1.00, 0.00, -0.00, -1.00, 161.5, 381.1)">e</text><text xml:space="preserve" font-family="HelveticaNeue,Helvetica Neue" font-size="32.0" fill="#000000" transform="matrix(1.00, 0.00, -0.00, -1.00, 178.7, 381.1)">r</text><text xml:space="preserve" font-family="HelveticaNeue,Helvetica Neue" font-size="32.0" fill="#000000" transform="matrix(1.00, 0.00, -0.00, -1.00, 189.3, 381.1)">u</text><text xml:space="preserve" font-family="HelveticaNeue,Helvetica Neue" font-size="32.0" fill="#000000" transform="matrix(1.00, 0.00, -0.00, -1.00, 207.1, 381.1)">n</text><text xml:space="preserve" font-family="HelveticaNeue,Helvetica Neue" font-size="32.0" fill="#000000" transform="matrix(1.00, 0.00, -0.00, -1.00, 224.9, 381.1)">g</text><text xml:space="preserve" font-family="HelveticaNeue,Helvetica Neue" font-size="32.0" fill="#000000" transform="matrix(1.00, 0.00, -0.00, -1.00, 243.3, 381.1)"> </text><text xml:space="preserve" font-family="HelveticaNeue,Helvetica Neue" font-size="32.0" fill="#000000" transform="matrix(1.00, 0.00, -0.00, -1.00, 252.2, 381.1)">E</text><text xml:space="preserve" font-family="HelveticaNeue,Helvetica Neue" font-size="32.0" fill="#000000" transform="matrix(1.00, 0.00, -0.00, -1.00, 271.7, 381.1)">n</text><text xml:space="preserve" font-family="HelveticaNeue,Helvetica Neue" font-size="32.0" fill="#000000" transform="matrix(1.00, 0.00, -0.00, -1.00, 289.5, 381.1)">e</text><text xml:space="preserve" font-family="HelveticaNeue,Helvetica Neue" font-size="32.0" fill="#000000" transform="matrix(1.00, 0.00, -0.00, -1.00, 306.7, 381.1)">r</text><text xml:space="preserve" font-family="HelveticaNeue,Helvetica Neue" font-size="32.0" fill="#000000" transform="matrix(1.00, 0.00, -0.00, -1.00, 316.5, 381.1)">g</text><text xml:space="preserve" font-family="HelveticaNeue,Helvetica Neue" font-size="32.0" fill="#000000" transform="matrix(1.00, 0.00, -0.00, -1.00, 334.8, 381.1)">i</text><text xml:space="preserve" font-family="HelveticaNeue,Helvetica Neue" font-size="32.0" fill="#000000" transform="matrix(1.00, 0.00, -0.00, -1.00, 341.9, 381.1)">e</text><text xml:space="preserve" font-family="HelveticaNeue,Helvetica Neue" font-size="32.0" fill="#000000" transform="matrix(1.00, 0.00, -0.00, -1.00, 359.1, 381.1)">-</text><text xml:space="preserve" font-family="HelveticaNeue,Helvetica Neue" font-size="32.0" fill="#000000" transform="matrix(1.00, 0.00, -0.00, -1.00, 371.6, 381.1)">E</text><text xml:space="preserve" font-family="HelveticaNeue,Helvetica Neue" font-size="32.0" fill="#000000" transform="matrix(1.00, 0.00, -0.00, -1.00, 391.1, 381.1)">f</text><text xml:space="preserve" font-family="HelveticaNeue,Helvetica Neue" font-size="32.0" fill="#000000" transform="matrix(1.00, 0.00, -0.00, -1.00, 400.0, 381.1)">f</text><text xml:space="preserve" font-family="HelveticaNeue,Helvetica Neue" font-size="32.0" fill="#000000" transform="matrix(1.00, 0.00, -0.00, -1.00, 409.5, 381.1)">i</text><text xml:space="preserve" font-family="HelveticaNeue,Helvetica Neue" font-size="32.0" fill="#000000" transform="matrix(1.00, 0.00, -0.00, -1.00, 416.6, 381.1)">z</text><text xml:space="preserve" font-family="HelveticaNeue,Helvetica Neue" font-size="32.0" fill="#000000" transform="matrix(1.00, 0.00, -0.00, -1.00, 431.9, 381.1)">i</text><text xml:space="preserve" font-family="HelveticaNeue,Helvetica Neue" font-size="32.0" fill="#000000" transform="matrix(1.00, 0.00, -0.00, -1.00, 439.0, 381.1)">e</text><text xml:space="preserve" font-family="HelveticaNeue,Helvetica Neue" font-size="32.0" fill="#000000" transform="matrix(1.00, 0.00, -0.00, -1.00, 456.2, 381.1)">n</text><text xml:space="preserve" font-family="HelveticaNeue,Helvetica Neue" font-size="32.0" fill="#000000" transform="matrix(1.00, 0.00, -0.00, -1.00, 474.0, 381.1)">z</text><text xml:space="preserve" font-family="HelveticaNeue,Helvetica Neue" font-size="32.0" fill="#000000" transform="matrix(1.00, 0.00, -0.00, -1.00, 489.4, 381.1)"> </text><text xml:space="preserve" font-family="HelveticaNeue,Helvetica Neue" font-size="32.0" fill="#000000" transform="matrix(1.00, 0.00, -0.00, -1.00, 498.3, 381.1)">v</text><text xml:space="preserve" font-family="HelveticaNeue,Helvetica Neue" font-size="32.0" fill="#000000" transform="matrix(1.00, 0.00, -0.00, -1.00, 514.3, 381.1)">o</text><text xml:space="preserve" font-family="HelveticaNeue,Helvetica Neue" font-size="32.0" fill="#000000" transform="matrix(1.00, 0.00, -0.00, -1.00, 532.6, 381.1)">n</text><text xml:space="preserve" font-family="HelveticaNeue,Helvetica Neue" font-size="32.0" fill="#000000" transform="matrix(1.00, 0.00, -0.00, -1.00, 550.4, 381.1)"> </text><text xml:space="preserve" font-family="HelveticaNeue,Helvetica Neue" font-size="32.0" fill="#000000" transform="matrix(1.00, 0.00, -0.00, -1.00, 66.6, 335.7)">R</text><text xml:space="preserve" font-family="HelveticaNeue,Helvetica Neue" font-size="32.0" fill="#000000" transform="matrix(1.00, 0.00, -0.00, -1.00, 88.5, 335.7)">e</text><text xml:space="preserve" font-family="HelveticaNeue,Helvetica Neue" font-size="32.0" fill="#000000" transform="matrix(1.00, 0.00, -0.00, -1.00, 105.7, 335.7)">c</text><text xml:space="preserve" font-family="HelveticaNeue,Helvetica Neue" font-size="32.0" fill="#000000" transform="matrix(1.00, 0.00, -0.00, -1.00, 122.9, 335.7)">h</text><text xml:space="preserve" font-family="HelveticaNeue,Helvetica Neue" font-size="32.0" fill="#000000" transform="matrix(1.00, 0.00, -0.00, -1.00, 140.7, 335.7)">e</text><text xml:space="preserve" font-family="HelveticaNeue,Helvetica Neue" font-size="32.0" fill="#000000" transform="matrix(1.00, 0.00, -0.00, -1.00, 157.9, 335.7)">n</text><text xml:space="preserve" font-family="HelveticaNeue,Helvetica Neue" font-size="32.0" fill="#000000" transform="matrix(1.00, 0.00, -0.00, -1.00, 175.7, 335.7)">z</text><text xml:space="preserve" font-family="HelveticaNeue,Helvetica Neue" font-size="32.0" fill="#000000" transform="matrix(1.00, 0.00, -0.00, -1.00, 191.0, 335.7)">e</text><text xml:space="preserve" font-family="HelveticaNeue,Helvetica Neue" font-size="32.0" fill="#000000" transform="matrix(1.00, 0.00, -0.00, -1.00, 208.2, 335.7)">n</text><text xml:space="preserve" font-family="HelveticaNeue,Helvetica Neue" font-size="32.0" fill="#000000" transform="matrix(1.00, 0.00, -0.00, -1.00, 226.0, 335.7)">t</text><text xml:space="preserve" font-family="HelveticaNeue,Helvetica Neue" font-size="32.0" fill="#000000" transform="matrix(1.00, 0.00, -0.00, -1.00, 236.1, 335.7)">r</text><text xml:space="preserve" font-family="HelveticaNeue,Helvetica Neue" font-size="32.0" fill="#000000" transform="matrix(1.00, 0.00, -0.00, -1.00, 246.2, 335.7)">e</text><text xml:space="preserve" font-family="HelveticaNeue,Helvetica Neue" font-size="32.0" fill="#000000" transform="matrix(1.00, 0.00, -0.00, -1.00, 263.3, 335.7)">n</text><text xml:space="preserve" font-family="HelveticaNeue,Helvetica Neue" font-size="32.0" fill="#000000" transform="matrix(1.00, 0.00, -0.00, -1.00, 281.1, 335.7)">
</text><text xml:space="preserve" font-family="HelveticaNeue,Helvetica Neue" font-size="32.0" fill="#000000" transform="matrix(1.00, 0.00, -0.00, -1.00, 39.6, 282.6)">•</text><text xml:space="preserve" font-family="HelveticaNeue,Helvetica Neue" font-size="32.0" fill="#000000" transform="matrix(1.00, 0.00, -0.00, -1.00, 66.6, 282.6)">K</text><text xml:space="preserve" font-family="HelveticaNeue,Helvetica Neue" font-size="32.0" fill="#000000" transform="matrix(1.00, 0.00, -0.00, -1.00, 87.9, 282.6)">e</text><text xml:space="preserve" font-family="HelveticaNeue,Helvetica Neue" font-size="32.0" fill="#000000" transform="matrix(1.00, 0.00, -0.00, -1.00, 105.1, 282.6)">r</text><text xml:space="preserve" font-family="HelveticaNeue,Helvetica Neue" font-size="32.0" fill="#000000" transform="matrix(1.00, 0.00, -0.00, -1.00, 116.4, 282.6)">n</text><text xml:space="preserve" font-family="HelveticaNeue,Helvetica Neue" font-size="32.0" fill="#000000" transform="matrix(1.00, 0.00, -0.00, -1.00, 134.2, 282.6)">a</text><text xml:space="preserve" font-family="HelveticaNeue,Helvetica Neue" font-size="32.0" fill="#000000" transform="matrix(1.00, 0.00, -0.00, -1.00, 151.3, 282.6)">s</text><text xml:space="preserve" font-family="HelveticaNeue,Helvetica Neue" font-size="32.0" fill="#000000" transform="matrix(1.00, 0.00, -0.00, -1.00, 167.3, 282.6)">p</text><text xml:space="preserve" font-family="HelveticaNeue,Helvetica Neue" font-size="32.0" fill="#000000" transform="matrix(1.00, 0.00, -0.00, -1.00, 186.3, 282.6)">e</text><text xml:space="preserve" font-family="HelveticaNeue,Helvetica Neue" font-size="32.0" fill="#000000" transform="matrix(1.00, 0.00, -0.00, -1.00, 203.5, 282.6)">k</text><text xml:space="preserve" font-family="HelveticaNeue,Helvetica Neue" font-size="32.0" fill="#000000" transform="matrix(1.00, 0.00, -0.00, -1.00, 220.1, 282.6)">t</text><text xml:space="preserve" font-family="HelveticaNeue,Helvetica Neue" font-size="32.0" fill="#000000" transform="matrix(1.00, 0.00, -0.00, -1.00, 230.2, 282.6)"> </text><text xml:space="preserve" font-family="HelveticaNeue,Helvetica Neue" font-size="32.0" fill="#000000" transform="matrix(1.00, 0.00, -0.00, -1.00, 239.1, 282.6)">a</text><text xml:space="preserve" font-family="HelveticaNeue,Helvetica Neue" font-size="32.0" fill="#000000" transform="matrix(1.00, 0.00, -0.00, -1.00, 256.3, 282.6)">u</text><text xml:space="preserve" font-family="HelveticaNeue,Helvetica Neue" font-size="32.0" fill="#000000" transform="matrix(1.00, 0.00, -0.00, -1.00, 274.1, 282.6)">f</text><text xml:space="preserve" font-family="HelveticaNeue,Helvetica Neue" font-size="32.0" fill="#000000" transform="matrix(1.00, 0.00, -0.00, -1.00, 283.5, 282.6)"> </text><text xml:space="preserve" font-family="HelveticaNeue,Helvetica Neue" font-size="32.0" fill="#000000" transform="matrix(1.00, 0.00, -0.00, -1.00, 292.4, 282.6)">a</text><text xml:space="preserve" font-family="HelveticaNeue,Helvetica Neue" font-size="32.0" fill="#000000" transform="matrix(1.00, 0.00, -0.00, -1.00, 309.6, 282.6)">l</text><text xml:space="preserve" font-family="HelveticaNeue,Helvetica Neue" font-size="32.0" fill="#000000" transform="matrix(1.00, 0.00, -0.00, -1.00, 316.7, 282.6)">t</text><text xml:space="preserve" font-family="HelveticaNeue,Helvetica Neue" font-size="32.0" fill="#000000" transform="matrix(1.00, 0.00, -0.00, -1.00, 326.8, 282.6)">e</text><text xml:space="preserve" font-family="HelveticaNeue,Helvetica Neue" font-size="32.0" fill="#000000" transform="matrix(1.00, 0.00, -0.00, -1.00, 344.0, 282.6)">r</text><text xml:space="preserve" font-family="HelveticaNeue,Helvetica Neue" font-size="32.0" fill="#000000" transform="matrix(1.00, 0.00, -0.00, -1.00, 355.2, 282.6)">n</text><text xml:space="preserve" font-family="HelveticaNeue,Helvetica Neue" font-size="32.0" fill="#000000" transform="matrix(1.00, 0.00, -0.00, -1.00, 373.0, 282.6)">a</text><text xml:space="preserve" font-family="HelveticaNeue,Helvetica Neue" font-size="32.0" fill="#000000" transform="matrix(1.00, 0.00, -0.00, -1.00, 390.2, 282.6)">t</text><text xml:space="preserve" font-family="HelveticaNeue,Helvetica Neue" font-size="32.0" fill="#000000" transform="matrix(1.00, 0.00, -0.00, -1.00, 400.3, 282.6)">i</text><text xml:space="preserve" font-family="HelveticaNeue,Helvetica Neue" font-size="32.0" fill="#000000" transform="matrix(1.00, 0.00, -0.00, -1.00, 407.4, 282.6)">v</text><text xml:space="preserve" font-family="HelveticaNeue,Helvetica Neue" font-size="32.0" fill="#000000" transform="matrix(1.00, 0.00, -0.00, -1.00, 423.4, 282.6)">e</text><text xml:space="preserve" font-family="HelveticaNeue,Helvetica Neue" font-size="32.0" fill="#000000" transform="matrix(1.00, 0.00, -0.00, -1.00, 440.6, 282.6)"> </text><text xml:space="preserve" font-family="HelveticaNeue,Helvetica Neue" font-size="32.0" fill="#000000" transform="matrix(1.00, 0.00, -0.00, -1.00, 449.4, 282.6)">E</text><text xml:space="preserve" font-family="HelveticaNeue,Helvetica Neue" font-size="32.0" fill="#000000" transform="matrix(1.00, 0.00, -0.00, -1.00, 469.0, 282.6)">n</text><text xml:space="preserve" font-family="HelveticaNeue,Helvetica Neue" font-size="32.0" fill="#000000" transform="matrix(1.00, 0.00, -0.00, -1.00, 486.8, 282.6)">e</text><text xml:space="preserve" font-family="HelveticaNeue,Helvetica Neue" font-size="32.0" fill="#000000" transform="matrix(1.00, 0.00, -0.00, -1.00, 504.0, 282.6)">r</text><text xml:space="preserve" font-family="HelveticaNeue,Helvetica Neue" font-size="32.0" fill="#000000" transform="matrix(1.00, 0.00, -0.00, -1.00, 513.7, 282.6)">g</text><text xml:space="preserve" font-family="HelveticaNeue,Helvetica Neue" font-size="32.0" fill="#000000" transform="matrix(1.00, 0.00, -0.00, -1.00, 532.1, 282.6)">i</text><text xml:space="preserve" font-family="HelveticaNeue,Helvetica Neue" font-size="32.0" fill="#000000" transform="matrix(1.00, 0.00, -0.00, -1.00, 539.2, 282.6)">e</text><text xml:space="preserve" font-family="HelveticaNeue,Helvetica Neue" font-size="32.0" fill="#000000" transform="matrix(1.00, 0.00, -0.00, -1.00, 556.4, 282.6)">n</text><text xml:space="preserve" font-family="HelveticaNeue,Helvetica Neue" font-size="32.0" fill="#000000" transform="matrix(1.00, 0.00, -0.00, -1.00, 574.2, 282.6)">
</text><text xml:space="preserve" font-family="HelveticaNeue,Helvetica Neue" font-size="32.0" fill="#000000" transform="matrix(1.00, 0.00, -0.00, -1.00, 39.6, 229.5)">•</text><text xml:space="preserve" font-family="HelveticaNeue,Helvetica Neue" font-size="32.0" fill="#000000" transform="matrix(1.00, 0.00, -0.00, -1.00, 66.6, 229.5)">E</text><text xml:space="preserve" font-family="HelveticaNeue,Helvetica Neue" font-size="32.0" fill="#000000" transform="matrix(1.00, 0.00, -0.00, -1.00, 86.2, 229.5)">r</text><text xml:space="preserve" font-family="HelveticaNeue,Helvetica Neue" font-size="32.0" fill="#000000" transform="matrix(1.00, 0.00, -0.00, -1.00, 96.8, 229.5)">m</text><text xml:space="preserve" font-family="HelveticaNeue,Helvetica Neue" font-size="32.0" fill="#000000" transform="matrix(1.00, 0.00, -0.00, -1.00, 124.1, 229.5)">i</text><text xml:space="preserve" font-family="HelveticaNeue,Helvetica Neue" font-size="32.0" fill="#000000" transform="matrix(1.00, 0.00, -0.00, -1.00, 131.2, 229.5)">t</text><text xml:space="preserve" font-family="HelveticaNeue,Helvetica Neue" font-size="32.0" fill="#000000" transform="matrix(1.00, 0.00, -0.00, -1.00, 141.3, 229.5)">t</text><text xml:space="preserve" font-family="HelveticaNeue,Helvetica Neue" font-size="32.0" fill="#000000" transform="matrix(1.00, 0.00, -0.00, -1.00, 151.4, 229.5)">e</text><text xml:space="preserve" font-family="HelveticaNeue,Helvetica Neue" font-size="32.0" fill="#000000" transform="matrix(1.00, 0.00, -0.00, -1.00, 168.6, 229.5)">l</text><text xml:space="preserve" font-family="HelveticaNeue,Helvetica Neue" font-size="32.0" fill="#000000" transform="matrix(1.00, 0.00, -0.00, -1.00, 175.7, 229.5)">n</text><text xml:space="preserve" font-family="HelveticaNeue,Helvetica Neue" font-size="32.0" fill="#000000" transform="matrix(1.00, 0.00, -0.00, -1.00, 193.4, 229.5)"> </text><text xml:space="preserve" font-family="HelveticaNeue,Helvetica Neue" font-size="32.0" fill="#000000" transform="matrix(1.00, 0.00, -0.00, -1.00, 202.3, 229.5)">v</text><text xml:space="preserve" font-family="HelveticaNeue,Helvetica Neue" font-size="32.0" fill="#000000" transform="matrix(1.00, 0.00, -0.00, -1.00, 218.3, 229.5)">o</text><text xml:space="preserve" font-family="HelveticaNeue,Helvetica Neue" font-size="32.0" fill="#000000" transform="matrix(1.00, 0.00, -0.00, -1.00, 236.7, 229.5)">n</text><text xml:space="preserve" font-family="HelveticaNeue,Helvetica Neue" font-size="32.0" fill="#000000" transform="matrix(1.00, 0.00, -0.00, -1.00, 254.5, 229.5)"> </text><text xml:space="preserve" font-family="HelveticaNeue,Helvetica Neue" font-size="32.0" fill="#000000" transform="matrix(1.00, 0.00, -0.00, -1.00, 263.4, 229.5)">M</text><text xml:space="preserve" font-family="HelveticaNeue,Helvetica Neue" font-size="32.0" fill="#000000" transform="matrix(1.00, 0.00, -0.00, -1.00, 291.3, 229.5)">i</text><text xml:space="preserve" font-family="HelveticaNeue,Helvetica Neue" font-size="32.0" fill="#000000" transform="matrix(1.00, 0.00, -0.00, -1.00, 298.4, 229.5)">g</text><text xml:space="preserve" font-family="HelveticaNeue,Helvetica Neue" font-size="32.0" fill="#000000" transform="matrix(1.00, 0.00, -0.00, -1.00, 316.7, 229.5)">r</text><text xml:space="preserve" font-family="HelveticaNeue,Helvetica Neue" font-size="32.0" fill="#000000" transform="matrix(1.00, 0.00, -0.00, -1.00, 327.4, 229.5)">a</text><text xml:space="preserve" font-family="HelveticaNeue,Helvetica Neue" font-size="32.0" fill="#000000" transform="matrix(1.00, 0.00, -0.00, -1.00, 344.6, 229.5)">t</text><text xml:space="preserve" font-family="HelveticaNeue,Helvetica Neue" font-size="32.0" fill="#000000" transform="matrix(1.00, 0.00, -0.00, -1.00, 354.7, 229.5)">i</text><text xml:space="preserve" font-family="HelveticaNeue,Helvetica Neue" font-size="32.0" fill="#000000" transform="matrix(1.00, 0.00, -0.00, -1.00, 361.8, 229.5)">o</text><text xml:space="preserve" font-family="HelveticaNeue,Helvetica Neue" font-size="32.0" fill="#000000" transform="matrix(1.00, 0.00, -0.00, -1.00, 380.1, 229.5)">n</text><text xml:space="preserve" font-family="HelveticaNeue,Helvetica Neue" font-size="32.0" fill="#000000" transform="matrix(1.00, 0.00, -0.00, -1.00, 397.9, 229.5)">s</text><text xml:space="preserve" font-family="HelveticaNeue,Helvetica Neue" font-size="32.0" fill="#000000" transform="matrix(1.00, 0.00, -0.00, -1.00, 413.9, 229.5)">k</text><text xml:space="preserve" font-family="HelveticaNeue,Helvetica Neue" font-size="32.0" fill="#000000" transform="matrix(1.00, 0.00, -0.00, -1.00, 430.5, 229.5)">o</text><text xml:space="preserve" font-family="HelveticaNeue,Helvetica Neue" font-size="32.0" fill="#000000" transform="matrix(1.00, 0.00, -0.00, -1.00, 448.9, 229.5)">s</text><text xml:space="preserve" font-family="HelveticaNeue,Helvetica Neue" font-size="32.0" fill="#000000" transform="matrix(1.00, 0.00, -0.00, -1.00, 464.9, 229.5)">t</text><text xml:space="preserve" font-family="HelveticaNeue,Helvetica Neue" font-size="32.0" fill="#000000" transform="matrix(1.00, 0.00, -0.00, -1.00, 475.0, 229.5)">e</text><text xml:space="preserve" font-family="HelveticaNeue,Helvetica Neue" font-size="32.0" fill="#000000" transform="matrix(1.00, 0.00, -0.00, -1.00, 492.2, 229.5)">n</text><text xml:space="preserve" font-family="HelveticaNeue,Helvetica Neue" font-size="32.0" fill="#000000" transform="matrix(1.00, 0.00, -0.00, -1.00, 510.0, 229.5)">
</text><text xml:space="preserve" font-family="HelveticaNeue,Helvetica Neue" font-size="32.0" fill="#000000" transform="matrix(1.00, 0.00, -0.00, -1.00, 39.6, 176.4)">•</text><text xml:space="preserve" font-family="HelveticaNeue,Helvetica Neue" font-size="32.0" fill="#000000" transform="matrix(1.00, 0.00, -0.00, -1.00, 66.6, 176.4)">P</text><text xml:space="preserve" font-family="HelveticaNeue,Helvetica Neue" font-size="32.0" fill="#000000" transform="matrix(1.00, 0.00, -0.00, -1.00, 87.3, 176.4)">r</text><text xml:space="preserve" font-family="HelveticaNeue,Helvetica Neue" font-size="32.0" fill="#000000" transform="matrix(1.00, 0.00, -0.00, -1.00, 97.4, 176.4)">o</text><text xml:space="preserve" font-family="HelveticaNeue,Helvetica Neue" font-size="32.0" fill="#000000" transform="matrix(1.00, 0.00, -0.00, -1.00, 115.8, 176.4)">j</text><text xml:space="preserve" font-family="HelveticaNeue,Helvetica Neue" font-size="32.0" fill="#000000" transform="matrix(1.00, 0.00, -0.00, -1.00, 122.9, 176.4)">e</text><text xml:space="preserve" font-family="HelveticaNeue,Helvetica Neue" font-size="32.0" fill="#000000" transform="matrix(1.00, 0.00, -0.00, -1.00, 140.1, 176.4)">k</text><text xml:space="preserve" font-family="HelveticaNeue,Helvetica Neue" font-size="32.0" fill="#000000" transform="matrix(1.00, 0.00, -0.00, -1.00, 156.7, 176.4)">t</text><text xml:space="preserve" font-family="HelveticaNeue,Helvetica Neue" font-size="32.0" fill="#000000" transform="matrix(1.00, 0.00, -0.00, -1.00, 166.8, 176.4)">u</text><text xml:space="preserve" font-family="HelveticaNeue,Helvetica Neue" font-size="32.0" fill="#000000" transform="matrix(1.00, 0.00, -0.00, -1.00, 184.6, 176.4)">m</text><text xml:space="preserve" font-family="HelveticaNeue,Helvetica Neue" font-size="32.0" fill="#000000" transform="matrix(1.00, 0.00, -0.00, -1.00, 211.8, 176.4)">g</text><text xml:space="preserve" font-family="HelveticaNeue,Helvetica Neue" font-size="32.0" fill="#000000" transform="matrix(1.00, 0.00, -0.00, -1.00, 230.2, 176.4)">e</text><text xml:space="preserve" font-family="HelveticaNeue,Helvetica Neue" font-size="32.0" fill="#000000" transform="matrix(1.00, 0.00, -0.00, -1.00, 247.4, 176.4)">b</text><text xml:space="preserve" font-family="HelveticaNeue,Helvetica Neue" font-size="32.0" fill="#000000" transform="matrix(1.00, 0.00, -0.00, -1.00, 266.4, 176.4)">u</text><text xml:space="preserve" font-family="HelveticaNeue,Helvetica Neue" font-size="32.0" fill="#000000" transform="matrix(1.00, 0.00, -0.00, -1.00, 284.2, 176.4)">n</text><text xml:space="preserve" font-family="HelveticaNeue,Helvetica Neue" font-size="32.0" fill="#000000" transform="matrix(1.00, 0.00, -0.00, -1.00, 302.0, 176.4)">g</text><text xml:space="preserve" font-family="HelveticaNeue,Helvetica Neue" font-size="32.0" fill="#000000" transform="matrix(1.00, 0.00, -0.00, -1.00, 320.3, 176.4)"> </text><text xml:space="preserve" font-family="HelveticaNeue,Helvetica Neue" font-size="32.0" fill="#000000" transform="matrix(1.00, 0.00, -0.00, -1.00, 329.2, 176.4)">b</text><text xml:space="preserve" font-family="HelveticaNeue,Helvetica Neue" font-size="32.0" fill="#000000" transform="matrix(1.00, 0.00, -0.00, -1.00, 348.2, 176.4)">a</text><text xml:space="preserve" font-family="HelveticaNeue,Helvetica Neue" font-size="32.0" fill="#000000" transform="matrix(1.00, 0.00, -0.00, -1.00, 365.4, 176.4)">s</text><text xml:space="preserve" font-family="HelveticaNeue,Helvetica Neue" font-size="32.0" fill="#000000" transform="matrix(1.00, 0.00, -0.00, -1.00, 381.4, 176.4)">i</text><text xml:space="preserve" font-family="HelveticaNeue,Helvetica Neue" font-size="32.0" fill="#000000" transform="matrix(1.00, 0.00, -0.00, -1.00, 388.5, 176.4)">e</text><text xml:space="preserve" font-family="HelveticaNeue,Helvetica Neue" font-size="32.0" fill="#000000" transform="matrix(1.00, 0.00, -0.00, -1.00, 405.7, 176.4)">r</text><text xml:space="preserve" font-family="HelveticaNeue,Helvetica Neue" font-size="32.0" fill="#000000" transform="matrix(1.00, 0.00, -0.00, -1.00, 415.8, 176.4)">e</text><text xml:space="preserve" font-family="HelveticaNeue,Helvetica Neue" font-size="32.0" fill="#000000" transform="matrix(1.00, 0.00, -0.00, -1.00, 432.9, 176.4)">n</text><text xml:space="preserve" font-family="HelveticaNeue,Helvetica Neue" font-size="32.0" fill="#000000" transform="matrix(1.00, 0.00, -0.00, -1.00, 450.7, 176.4)">d</text><text xml:space="preserve" font-family="HelveticaNeue,Helvetica Neue" font-size="32.0" fill="#000000" transform="matrix(1.00, 0.00, -0.00, -1.00, 469.7, 176.4)"> </text><text xml:space="preserve" font-family="HelveticaNeue,Helvetica Neue" font-size="32.0" fill="#000000" transform="matrix(1.00, 0.00, -0.00, -1.00, 478.6, 176.4)">a</text><text xml:space="preserve" font-family="HelveticaNeue,Helvetica Neue" font-size="32.0" fill="#000000" transform="matrix(1.00, 0.00, -0.00, -1.00, 495.8, 176.4)">u</text><text xml:space="preserve" font-family="HelveticaNeue,Helvetica Neue" font-size="32.0" fill="#000000" transform="matrix(1.00, 0.00, -0.00, -1.00, 513.6, 176.4)">f</text><text xml:space="preserve" font-family="HelveticaNeue,Helvetica Neue" font-size="32.0" fill="#000000" transform="matrix(1.00, 0.00, -0.00, -1.00, 523.0, 176.4)"> </text><text xml:space="preserve" font-family="HelveticaNeue,Helvetica Neue" font-size="32.0" fill="#000000" transform="matrix(1.00, 0.00, -0.00, -1.00, 66.6, 131.0)">O</text><text xml:space="preserve" font-family="HelveticaNeue,Helvetica Neue" font-size="32.0" fill="#000000" transform="matrix(1.00, 0.00, -0.00, -1.00, 90.9, 131.0)">p</text><text xml:space="preserve" font-family="HelveticaNeue,Helvetica Neue" font-size="32.0" fill="#000000" transform="matrix(1.00, 0.00, -0.00, -1.00, 109.9, 131.0)">e</text><text xml:space="preserve" font-family="HelveticaNeue,Helvetica Neue" font-size="32.0" fill="#000000" transform="matrix(1.00, 0.00, -0.00, -1.00, 127.1, 131.0)">n</text><text xml:space="preserve" font-family="HelveticaNeue,Helvetica Neue" font-size="32.0" fill="#000000" transform="matrix(1.00, 0.00, -0.00, -1.00, 144.9, 131.0)">S</text><text xml:space="preserve" font-family="HelveticaNeue,Helvetica Neue" font-size="32.0" fill="#000000" transform="matrix(1.00, 0.00, -0.00, -1.00, 165.6, 131.0)">t</text><text xml:space="preserve" font-family="HelveticaNeue,Helvetica Neue" font-size="32.0" fill="#000000" transform="matrix(1.00, 0.00, -0.00, -1.00, 175.7, 131.0)">a</text><text xml:space="preserve" font-family="HelveticaNeue,Helvetica Neue" font-size="32.0" fill="#000000" transform="matrix(1.00, 0.00, -0.00, -1.00, 192.9, 131.0)">c</text><text xml:space="preserve" font-family="HelveticaNeue,Helvetica Neue" font-size="32.0" fill="#000000" transform="matrix(1.00, 0.00, -0.00, -1.00, 210.1, 131.0)">k</text></g></svg>