<?xml version="1.0" encoding="UTF-8" standalone="no"?><svg xmlns="http://www.w3.org/2000/svg" xmlns:xlink="http://www.w3.org/1999/xlink" clip-rule="evenodd" stroke-miterlimit="10" viewBox="0 0 720 540"><desc>SVG generated by Keynote</desc><defs></defs><g transform="matrix(1.00, 0.00, -0.00, -1.00, 0.0, 540.0)"><g><clipPath id="clip0x7fda58f7a8d0"><path d="M 0.0 540.0 L 720.0 540.0 L 720.0 0.0 L 0.0 0.0 Z M 0.0 540.0 "></path></clipPath><g clip-path="url(#clip0x7fda58f7a8d0)"><image xlink:href="../../A8130665-9052-4470-BAE6-AA5FC7750E31/assets/CF91160C7D345B5E9725DD58C6CE8E0B.jpeg" width="1280.00" height="960.00" transform="matrix(0.56, 0.00, -0.00, -0.56, 0.0, 540.0)"></image></g></g><text xml:space="preserve" font-family="HelveticaNeue,Helvetica Neue" font-size="32.0" fill="#000000" transform="matrix(1.00, 0.00, -0.00, -1.00, 39.6, 381.1)">•</text><text xml:space="preserve" font-family="HelveticaNeue,Helvetica Neue" font-size="32.0" fill="#000000" transform="matrix(1.00, 0.00, -0.00, -1.00, 66.6, 381.1)">F</text><text xml:space="preserve" font-family="HelveticaNeue,Helvetica Neue" font-size="32.0" fill="#000000" transform="matrix(1.00, 0.00, -0.00, -1.00, 85.0, 381.1)">e</text><text xml:space="preserve" font-family="HelveticaNeue,Helvetica Neue" font-size="32.0" fill="#000000" transform="matrix(1.00, 0.00, -0.00, -1.00, 102.2, 381.1)">h</text><text xml:space="preserve" font-family="HelveticaNeue,Helvetica Neue" font-size="32.0" fill="#000000" transform="matrix(1.00, 0.00, -0.00, -1.00, 119.9, 381.1)">l</text><text xml:space="preserve" font-family="HelveticaNeue,Helvetica Neue" font-size="32.0" fill="#000000" transform="matrix(1.00, 0.00, -0.00, -1.00, 127.0, 381.1)">e</text><text xml:space="preserve" font-family="HelveticaNeue,Helvetica Neue" font-size="32.0" fill="#000000" transform="matrix(1.00, 0.00, -0.00, -1.00, 144.2, 381.1)">r</text><text xml:space="preserve" font-family="HelveticaNeue,Helvetica Neue" font-size="32.0" fill="#000000" transform="matrix(1.00, 0.00, -0.00, -1.00, 154.9, 381.1)">t</text><text xml:space="preserve" font-family="HelveticaNeue,Helvetica Neue" font-size="32.0" fill="#000000" transform="matrix(1.00, 0.00, -0.00, -1.00, 165.0, 381.1)">o</text><text xml:space="preserve" font-family="HelveticaNeue,Helvetica Neue" font-size="32.0" fill="#000000" transform="matrix(1.00, 0.00, -0.00, -1.00, 183.3, 381.1)">l</text><text xml:space="preserve" font-family="HelveticaNeue,Helvetica Neue" font-size="32.0" fill="#000000" transform="matrix(1.00, 0.00, -0.00, -1.00, 190.4, 381.1)">e</text><text xml:space="preserve" font-family="HelveticaNeue,Helvetica Neue" font-size="32.0" fill="#000000" transform="matrix(1.00, 0.00, -0.00, -1.00, 207.6, 381.1)">r</text><text xml:space="preserve" font-family="HelveticaNeue,Helvetica Neue" font-size="32.0" fill="#000000" transform="matrix(1.00, 0.00, -0.00, -1.00, 218.3, 381.1)">a</text><text xml:space="preserve" font-family="HelveticaNeue,Helvetica Neue" font-size="32.0" fill="#000000" transform="matrix(1.00, 0.00, -0.00, -1.00, 235.5, 381.1)">n</text><text xml:space="preserve" font-family="HelveticaNeue,Helvetica Neue" font-size="32.0" fill="#000000" transform="matrix(1.00, 0.00, -0.00, -1.00, 253.3, 381.1)">z</text><text xml:space="preserve" font-family="HelveticaNeue,Helvetica Neue" font-size="32.0" fill="#000000" transform="matrix(1.00, 0.00, -0.00, -1.00, 268.6, 381.1)">
</text><text xml:space="preserve" font-family="HelveticaNeue,Helvetica Neue" font-size="32.0" fill="#000000" transform="matrix(1.00, 0.00, -0.00, -1.00, 39.6, 328.0)">•</text><text xml:space="preserve" font-family="HelveticaNeue,Helvetica Neue" font-size="32.0" fill="#000000" transform="matrix(1.00, 0.00, -0.00, -1.00, 66.6, 328.0)">O</text><text xml:space="preserve" font-family="HelveticaNeue,Helvetica Neue" font-size="32.0" fill="#000000" transform="matrix(1.00, 0.00, -0.00, -1.00, 90.9, 328.0)">p</text><text xml:space="preserve" font-family="HelveticaNeue,Helvetica Neue" font-size="32.0" fill="#000000" transform="matrix(1.00, 0.00, -0.00, -1.00, 109.9, 328.0)">t</text><text xml:space="preserve" font-family="HelveticaNeue,Helvetica Neue" font-size="32.0" fill="#000000" transform="matrix(1.00, 0.00, -0.00, -1.00, 120.0, 328.0)">i</text><text xml:space="preserve" font-family="HelveticaNeue,Helvetica Neue" font-size="32.0" fill="#000000" transform="matrix(1.00, 0.00, -0.00, -1.00, 127.1, 328.0)">m</text><text xml:space="preserve" font-family="HelveticaNeue,Helvetica Neue" font-size="32.0" fill="#000000" transform="matrix(1.00, 0.00, -0.00, -1.00, 154.4, 328.0)">i</text><text xml:space="preserve" font-family="HelveticaNeue,Helvetica Neue" font-size="32.0" fill="#000000" transform="matrix(1.00, 0.00, -0.00, -1.00, 161.5, 328.0)">e</text><text xml:space="preserve" font-family="HelveticaNeue,Helvetica Neue" font-size="32.0" fill="#000000" transform="matrix(1.00, 0.00, -0.00, -1.00, 178.7, 328.0)">r</text><text xml:space="preserve" font-family="HelveticaNeue,Helvetica Neue" font-size="32.0" fill="#000000" transform="matrix(1.00, 0.00, -0.00, -1.00, 189.3, 328.0)">u</text><text xml:space="preserve" font-family="HelveticaNeue,Helvetica Neue" font-size="32.0" fill="#000000" transform="matrix(1.00, 0.00, -0.00, -1.00, 207.1, 328.0)">n</text><text xml:space="preserve" font-family="HelveticaNeue,Helvetica Neue" font-size="32.0" fill="#000000" transform="matrix(1.00, 0.00, -0.00, -1.00, 224.9, 328.0)">g</text><text xml:space="preserve" font-family="HelveticaNeue,Helvetica Neue" font-size="32.0" fill="#000000" transform="matrix(1.00, 0.00, -0.00, -1.00, 243.3, 328.0)"> </text><text xml:space="preserve" font-family="HelveticaNeue,Helvetica Neue" font-size="32.0" fill="#000000" transform="matrix(1.00, 0.00, -0.00, -1.00, 252.2, 328.0)">d</text><text xml:space="preserve" font-family="HelveticaNeue,Helvetica Neue" font-size="32.0" fill="#000000" transform="matrix(1.00, 0.00, -0.00, -1.00, 271.1, 328.0)">e</text><text xml:space="preserve" font-family="HelveticaNeue,Helvetica Neue" font-size="32.0" fill="#000000" transform="matrix(1.00, 0.00, -0.00, -1.00, 288.3, 328.0)">r</text><text xml:space="preserve" font-family="HelveticaNeue,Helvetica Neue" font-size="32.0" fill="#000000" transform="matrix(1.00, 0.00, -0.00, -1.00, 299.0, 328.0)"> </text><text xml:space="preserve" font-family="HelveticaNeue,Helvetica Neue" font-size="32.0" fill="#000000" transform="matrix(1.00, 0.00, -0.00, -1.00, 307.9, 328.0)">A</text><text xml:space="preserve" font-family="HelveticaNeue,Helvetica Neue" font-size="32.0" fill="#000000" transform="matrix(1.00, 0.00, -0.00, -1.00, 328.6, 328.0)">u</text><text xml:space="preserve" font-family="HelveticaNeue,Helvetica Neue" font-size="32.0" fill="#000000" transform="matrix(1.00, 0.00, -0.00, -1.00, 346.4, 328.0)">s</text><text xml:space="preserve" font-family="HelveticaNeue,Helvetica Neue" font-size="32.0" fill="#000000" transform="matrix(1.00, 0.00, -0.00, -1.00, 362.4, 328.0)">l</text><text xml:space="preserve" font-family="HelveticaNeue,Helvetica Neue" font-size="32.0" fill="#000000" transform="matrix(1.00, 0.00, -0.00, -1.00, 369.5, 328.0)">a</text><text xml:space="preserve" font-family="HelveticaNeue,Helvetica Neue" font-size="32.0" fill="#000000" transform="matrix(1.00, 0.00, -0.00, -1.00, 386.7, 328.0)">s</text><text xml:space="preserve" font-family="HelveticaNeue,Helvetica Neue" font-size="32.0" fill="#000000" transform="matrix(1.00, 0.00, -0.00, -1.00, 402.7, 328.0)">t</text><text xml:space="preserve" font-family="HelveticaNeue,Helvetica Neue" font-size="32.0" fill="#000000" transform="matrix(1.00, 0.00, -0.00, -1.00, 412.8, 328.0)">u</text><text xml:space="preserve" font-family="HelveticaNeue,Helvetica Neue" font-size="32.0" fill="#000000" transform="matrix(1.00, 0.00, -0.00, -1.00, 430.6, 328.0)">n</text><text xml:space="preserve" font-family="HelveticaNeue,Helvetica Neue" font-size="32.0" fill="#000000" transform="matrix(1.00, 0.00, -0.00, -1.00, 448.4, 328.0)">g</text><text xml:space="preserve" font-family="HelveticaNeue,Helvetica Neue" font-size="32.0" fill="#000000" transform="matrix(1.00, 0.00, -0.00, -1.00, 466.7, 328.0)"> </text><text xml:space="preserve" font-family="HelveticaNeue,Helvetica Neue" font-size="32.0" fill="#000000" transform="matrix(1.00, 0.00, -0.00, -1.00, 475.6, 328.0)">I</text><text xml:space="preserve" font-family="HelveticaNeue,Helvetica Neue" font-size="32.0" fill="#000000" transform="matrix(1.00, 0.00, -0.00, -1.00, 483.9, 328.0)">T</text><text xml:space="preserve" font-family="HelveticaNeue,Helvetica Neue" font-size="32.0" fill="#000000" transform="matrix(1.00, 0.00, -0.00, -1.00, 502.3, 328.0)"> </text><text xml:space="preserve" font-family="HelveticaNeue,Helvetica Neue" font-size="32.0" fill="#000000" transform="matrix(1.00, 0.00, -0.00, -1.00, 511.2, 328.0)">R</text><text xml:space="preserve" font-family="HelveticaNeue,Helvetica Neue" font-size="32.0" fill="#000000" transform="matrix(1.00, 0.00, -0.00, -1.00, 533.1, 328.0)">e</text><text xml:space="preserve" font-family="HelveticaNeue,Helvetica Neue" font-size="32.0" fill="#000000" transform="matrix(1.00, 0.00, -0.00, -1.00, 550.3, 328.0)">s</text><text xml:space="preserve" font-family="HelveticaNeue,Helvetica Neue" font-size="32.0" fill="#000000" transform="matrix(1.00, 0.00, -0.00, -1.00, 566.3, 328.0)">s</text><text xml:space="preserve" font-family="HelveticaNeue,Helvetica Neue" font-size="32.0" fill="#000000" transform="matrix(1.00, 0.00, -0.00, -1.00, 582.3, 328.0)">o</text><text xml:space="preserve" font-family="HelveticaNeue,Helvetica Neue" font-size="32.0" fill="#000000" transform="matrix(1.00, 0.00, -0.00, -1.00, 600.6, 328.0)">u</text><text xml:space="preserve" font-family="HelveticaNeue,Helvetica Neue" font-size="32.0" fill="#000000" transform="matrix(1.00, 0.00, -0.00, -1.00, 618.4, 328.0)">r</text><text xml:space="preserve" font-family="HelveticaNeue,Helvetica Neue" font-size="32.0" fill="#000000" transform="matrix(1.00, 0.00, -0.00, -1.00, 628.5, 328.0)">c</text><text xml:space="preserve" font-family="HelveticaNeue,Helvetica Neue" font-size="32.0" fill="#000000" transform="matrix(1.00, 0.00, -0.00, -1.00, 645.7, 328.0)">e</text><text xml:space="preserve" font-family="HelveticaNeue,Helvetica Neue" font-size="32.0" fill="#000000" transform="matrix(1.00, 0.00, -0.00, -1.00, 662.9, 328.0)">n</text><text xml:space="preserve" font-family="HelveticaNeue,Helvetica Neue" font-size="32.0" fill="#000000" transform="matrix(1.00, 0.00, -0.00, -1.00, 680.7, 328.0)">
</text><text xml:space="preserve" font-family="HelveticaNeue,Helvetica Neue" font-size="32.0" fill="#000000" transform="matrix(1.00, 0.00, -0.00, -1.00, 39.6, 274.9)">•</text><text xml:space="preserve" font-family="HelveticaNeue,Helvetica Neue" font-size="32.0" fill="#000000" transform="matrix(1.00, 0.00, -0.00, -1.00, 66.6, 274.9)">L</text><text xml:space="preserve" font-family="HelveticaNeue,Helvetica Neue" font-size="32.0" fill="#000000" transform="matrix(1.00, 0.00, -0.00, -1.00, 84.4, 274.9)">e</text><text xml:space="preserve" font-family="HelveticaNeue,Helvetica Neue" font-size="32.0" fill="#000000" transform="matrix(1.00, 0.00, -0.00, -1.00, 101.6, 274.9)">i</text><text xml:space="preserve" font-family="HelveticaNeue,Helvetica Neue" font-size="32.0" fill="#000000" transform="matrix(1.00, 0.00, -0.00, -1.00, 108.7, 274.9)">s</text><text xml:space="preserve" font-family="HelveticaNeue,Helvetica Neue" font-size="32.0" fill="#000000" transform="matrix(1.00, 0.00, -0.00, -1.00, 124.7, 274.9)">t</text><text xml:space="preserve" font-family="HelveticaNeue,Helvetica Neue" font-size="32.0" fill="#000000" transform="matrix(1.00, 0.00, -0.00, -1.00, 134.8, 274.9)">u</text><text xml:space="preserve" font-family="HelveticaNeue,Helvetica Neue" font-size="32.0" fill="#000000" transform="matrix(1.00, 0.00, -0.00, -1.00, 152.6, 274.9)">n</text><text xml:space="preserve" font-family="HelveticaNeue,Helvetica Neue" font-size="32.0" fill="#000000" transform="matrix(1.00, 0.00, -0.00, -1.00, 170.3, 274.9)">g</text><text xml:space="preserve" font-family="HelveticaNeue,Helvetica Neue" font-size="32.0" fill="#000000" transform="matrix(1.00, 0.00, -0.00, -1.00, 188.7, 274.9)">s</text><text xml:space="preserve" font-family="HelveticaNeue,Helvetica Neue" font-size="32.0" fill="#000000" transform="matrix(1.00, 0.00, -0.00, -1.00, 204.7, 274.9)">f</text><text xml:space="preserve" font-family="HelveticaNeue,Helvetica Neue" font-size="32.0" fill="#000000" transform="matrix(1.00, 0.00, -0.00, -1.00, 214.2, 274.9)">ä</text><text xml:space="preserve" font-family="HelveticaNeue,Helvetica Neue" font-size="32.0" fill="#000000" transform="matrix(1.00, 0.00, -0.00, -1.00, 231.4, 274.9)">h</text><text xml:space="preserve" font-family="HelveticaNeue,Helvetica Neue" font-size="32.0" fill="#000000" transform="matrix(1.00, 0.00, -0.00, -1.00, 249.2, 274.9)">i</text><text xml:space="preserve" font-family="HelveticaNeue,Helvetica Neue" font-size="32.0" fill="#000000" transform="matrix(1.00, 0.00, -0.00, -1.00, 256.3, 274.9)">g</text><text xml:space="preserve" font-family="HelveticaNeue,Helvetica Neue" font-size="32.0" fill="#000000" transform="matrix(1.00, 0.00, -0.00, -1.00, 274.6, 274.9)">k</text><text xml:space="preserve" font-family="HelveticaNeue,Helvetica Neue" font-size="32.0" fill="#000000" transform="matrix(1.00, 0.00, -0.00, -1.00, 291.2, 274.9)">e</text><text xml:space="preserve" font-family="HelveticaNeue,Helvetica Neue" font-size="32.0" fill="#000000" transform="matrix(1.00, 0.00, -0.00, -1.00, 308.4, 274.9)">i</text><text xml:space="preserve" font-family="HelveticaNeue,Helvetica Neue" font-size="32.0" fill="#000000" transform="matrix(1.00, 0.00, -0.00, -1.00, 315.5, 274.9)">t</text><text xml:space="preserve" font-family="HelveticaNeue,Helvetica Neue" font-size="32.0" fill="#000000" transform="matrix(1.00, 0.00, -0.00, -1.00, 325.6, 274.9)"> </text><text xml:space="preserve" font-family="HelveticaNeue,Helvetica Neue" font-size="32.0" fill="#000000" transform="matrix(1.00, 0.00, -0.00, -1.00, 334.5, 274.9)">v</text><text xml:space="preserve" font-family="HelveticaNeue,Helvetica Neue" font-size="32.0" fill="#000000" transform="matrix(1.00, 0.00, -0.00, -1.00, 350.5, 274.9)">o</text><text xml:space="preserve" font-family="HelveticaNeue,Helvetica Neue" font-size="32.0" fill="#000000" transform="matrix(1.00, 0.00, -0.00, -1.00, 368.9, 274.9)">n</text><text xml:space="preserve" font-family="HelveticaNeue,Helvetica Neue" font-size="32.0" fill="#000000" transform="matrix(1.00, 0.00, -0.00, -1.00, 386.7, 274.9)"> </text><text xml:space="preserve" font-family="HelveticaNeue,Helvetica Neue" font-size="32.0" fill="#000000" transform="matrix(1.00, 0.00, -0.00, -1.00, 395.6, 274.9)">D</text><text xml:space="preserve" font-family="HelveticaNeue,Helvetica Neue" font-size="32.0" fill="#000000" transform="matrix(1.00, 0.00, -0.00, -1.00, 418.1, 274.9)">i</text><text xml:space="preserve" font-family="HelveticaNeue,Helvetica Neue" font-size="32.0" fill="#000000" transform="matrix(1.00, 0.00, -0.00, -1.00, 425.2, 274.9)">e</text><text xml:space="preserve" font-family="HelveticaNeue,Helvetica Neue" font-size="32.0" fill="#000000" transform="matrix(1.00, 0.00, -0.00, -1.00, 442.4, 274.9)">n</text><text xml:space="preserve" font-family="HelveticaNeue,Helvetica Neue" font-size="32.0" fill="#000000" transform="matrix(1.00, 0.00, -0.00, -1.00, 460.2, 274.9)">s</text><text xml:space="preserve" font-family="HelveticaNeue,Helvetica Neue" font-size="32.0" fill="#000000" transform="matrix(1.00, 0.00, -0.00, -1.00, 476.2, 274.9)">t</text><text xml:space="preserve" font-family="HelveticaNeue,Helvetica Neue" font-size="32.0" fill="#000000" transform="matrix(1.00, 0.00, -0.00, -1.00, 486.2, 274.9)">e</text><text xml:space="preserve" font-family="HelveticaNeue,Helvetica Neue" font-size="32.0" fill="#000000" transform="matrix(1.00, 0.00, -0.00, -1.00, 503.4, 274.9)">n</text><text xml:space="preserve" font-family="HelveticaNeue,Helvetica Neue" font-size="32.0" fill="#000000" transform="matrix(1.00, 0.00, -0.00, -1.00, 521.2, 274.9)"> </text><text xml:space="preserve" font-family="HelveticaNeue,Helvetica Neue" font-size="32.0" fill="#000000" transform="matrix(1.00, 0.00, -0.00, -1.00, 530.1, 274.9)">e</text><text xml:space="preserve" font-family="HelveticaNeue,Helvetica Neue" font-size="32.0" fill="#000000" transform="matrix(1.00, 0.00, -0.00, -1.00, 547.3, 274.9)">r</text><text xml:space="preserve" font-family="HelveticaNeue,Helvetica Neue" font-size="32.0" fill="#000000" transform="matrix(1.00, 0.00, -0.00, -1.00, 558.0, 274.9)">h</text><text xml:space="preserve" font-family="HelveticaNeue,Helvetica Neue" font-size="32.0" fill="#000000" transform="matrix(1.00, 0.00, -0.00, -1.00, 575.8, 274.9)">ö</text><text xml:space="preserve" font-family="HelveticaNeue,Helvetica Neue" font-size="32.0" fill="#000000" transform="matrix(1.00, 0.00, -0.00, -1.00, 594.1, 274.9)">h</text><text xml:space="preserve" font-family="HelveticaNeue,Helvetica Neue" font-size="32.0" fill="#000000" transform="matrix(1.00, 0.00, -0.00, -1.00, 611.9, 274.9)">e</text><text xml:space="preserve" font-family="HelveticaNeue,Helvetica Neue" font-size="32.0" fill="#000000" transform="matrix(1.00, 0.00, -0.00, -1.00, 629.1, 274.9)">n</text><text xml:space="preserve" font-family="HelveticaNeue-Bold,Helvetica Neue" font-weight="bold" font-size="36.0" fill="#000000" transform="matrix(1.00, 0.00, -0.00, -1.00, 38.5, 479.3)">M</text><text xml:space="preserve" font-family="HelveticaNeue-Bold,Helvetica Neue" font-weight="bold" font-size="36.0" fill="#000000" transform="matrix(1.00, 0.00, -0.00, -1.00, 71.2, 479.3)">o</text><text xml:space="preserve" font-family="HelveticaNeue-Bold,Helvetica Neue" font-weight="bold" font-size="36.0" fill="#000000" transform="matrix(1.00, 0.00, -0.00, -1.00, 93.2, 479.3)">t</text><text xml:space="preserve" font-family="HelveticaNeue-Bold,Helvetica Neue" font-weight="bold" font-size="36.0" fill="#000000" transform="matrix(1.00, 0.00, -0.00, -1.00, 105.8, 479.3)">i</text><text xml:space="preserve" font-family="HelveticaNeue-Bold,Helvetica Neue" font-weight="bold" font-size="36.0" fill="#000000" transform="matrix(1.00, 0.00, -0.00, -1.00, 115.1, 479.3)">v</text><text xml:space="preserve" font-family="HelveticaNeue-Bold,Helvetica Neue" font-weight="bold" font-size="36.0" fill="#000000" transform="matrix(1.00, 0.00, -0.00, -1.00, 133.8, 479.3)">a</text><text xml:space="preserve" font-family="HelveticaNeue-Bold,Helvetica Neue" font-weight="bold" font-size="36.0" fill="#000000" transform="matrix(1.00, 0.00, -0.00, -1.00, 154.5, 479.3)">t</text><text xml:space="preserve" font-family="HelveticaNeue-Bold,Helvetica Neue" font-weight="bold" font-size="36.0" fill="#000000" transform="matrix(1.00, 0.00, -0.00, -1.00, 167.2, 479.3)">i</text><text xml:space="preserve" font-family="HelveticaNeue-Bold,Helvetica Neue" font-weight="bold" font-size="36.0" fill="#000000" transform="matrix(1.00, 0.00, -0.00, -1.00, 176.5, 479.3)">o</text><text xml:space="preserve" font-family="HelveticaNeue-Bold,Helvetica Neue" font-weight="bold" font-size="36.0" fill="#000000" transform="matrix(1.00, 0.00, -0.00, -1.00, 198.5, 479.3)">n</text><text xml:space="preserve" font-family="HelveticaNeue-Bold,Helvetica Neue" font-weight="bold" font-size="36.0" fill="#000000" transform="matrix(1.00, 0.00, -0.00, -1.00, 219.8, 479.3)"> </text><text xml:space="preserve" font-family="HelveticaNeue-Bold,Helvetica Neue" font-weight="bold" font-size="36.0" fill="#000000" transform="matrix(1.00, 0.00, -0.00, -1.00, 229.8, 479.3)">M</text><text xml:space="preserve" font-family="HelveticaNeue-Bold,Helvetica Neue" font-weight="bold" font-size="36.0" fill="#000000" transform="matrix(1.00, 0.00, -0.00, -1.00, 262.5, 479.3)">i</text><text xml:space="preserve" font-family="HelveticaNeue-Bold,Helvetica Neue" font-weight="bold" font-size="36.0" fill="#000000" transform="matrix(1.00, 0.00, -0.00, -1.00, 271.8, 479.3)">g</text><text xml:space="preserve" font-family="HelveticaNeue-Bold,Helvetica Neue" font-weight="bold" font-size="36.0" fill="#000000" transform="matrix(1.00, 0.00, -0.00, -1.00, 293.7, 479.3)">r</text><text xml:space="preserve" font-family="HelveticaNeue-Bold,Helvetica Neue" font-weight="bold" font-size="36.0" fill="#000000" transform="matrix(1.00, 0.00, -0.00, -1.00, 307.8, 479.3)">a</text><text xml:space="preserve" font-family="HelveticaNeue-Bold,Helvetica Neue" font-weight="bold" font-size="36.0" fill="#000000" transform="matrix(1.00, 0.00, -0.00, -1.00, 328.4, 479.3)">t</text><text xml:space="preserve" font-family="HelveticaNeue-Bold,Helvetica Neue" font-weight="bold" font-size="36.0" fill="#000000" transform="matrix(1.00, 0.00, -0.00, -1.00, 341.1, 479.3)">i</text><text xml:space="preserve" font-family="HelveticaNeue-Bold,Helvetica Neue" font-weight="bold" font-size="36.0" fill="#000000" transform="matrix(1.00, 0.00, -0.00, -1.00, 350.4, 479.3)">o</text><text xml:space="preserve" font-family="HelveticaNeue-Bold,Helvetica Neue" font-weight="bold" font-size="36.0" fill="#000000" transform="matrix(1.00, 0.00, -0.00, -1.00, 372.4, 479.3)">n</text></g></svg>